<svg width="58" height="65" viewBox="0 0 58 65" fill="none" xmlns="http://www.w3.org/2000/svg">
<circle cx="29" cy="29" r="28" fill="#FFBD46"/>
<mask id="mask0" mask-type="alpha" maskUnits="userSpaceOnUse" x="0" y="0" width="58" height="65">
<rect width="58" height="65" fill="#C4C4C4"/>
</mask>
<g mask="url(#mask0)">
<path d="M31 29C37.617 29 43 23.617 43 17C43 10.383 37.617 5 31 5C24.383 5 19 10.383 19 17C19 23.617 24.383 29 31 29ZM31 7C36.514 7 41 11.486 41 17C41 22.514 36.514 27 31 27C25.486 27 21 22.514 21 17C21 11.486 25.486 7 31 7Z" fill="#313741"/>
<path d="M29.5 23H30V25H32V23H32.5C34.43 23 36 21.43 36 19.5C36 17.57 34.43 16 32.5 16H29.5C28.673 16 28 15.327 28 14.5C28 13.673 28.673 13 29.5 13H32.5C33.327 13 34 13.673 34 14.5V15H36V14.5C36 12.57 34.43 11 32.5 11H32V9H30V11H29.5C27.57 11 26 12.57 26 14.5C26 16.43 27.57 18 29.5 18H32.5C33.327 18 34 18.673 34 19.5C34 20.327 33.327 21 32.5 21H29.5C28.673 21 28 20.327 28 19.5V19H26V19.5C26 21.43 27.57 23 29.5 23Z" fill="#313741"/>
<path d="M16 44C14.346 44 13 45.346 13 47C13 48.654 14.346 50 16 50C17.654 50 19 48.654 19 47C19 45.346 17.654 44 16 44ZM16 48C15.449 48 15 47.551 15 47C15 46.449 15.449 46 16 46C16.551 46 17 46.449 17 47C17 47.551 16.551 48 16 48Z" fill="#313741"/>
<path d="M43 47C43 48.654 44.346 50 46 50C47.654 50 49 48.654 49 47C49 45.346 47.654 44 46 44C44.346 44 43 45.346 43 47ZM47 47C47 47.551 46.551 48 46 48C45.449 48 45 47.551 45 47C45 46.449 45.449 46 46 46C46.551 46 47 46.449 47 47Z" fill="#313741"/>
<path d="M52 32.972H48.602L48.371 29.5039C48.143 26.0828 45.506 23.3473 42.101 23.001L41.899 24.9918C44.33 25.24 46.213 27.1928 46.376 29.637L46.931 37.9765H44.926L44.38 29.7701C44.275 28.1977 42.961 26.9666 41.387 26.9666H40V28.9684H41.387C41.911 28.9684 42.349 29.3788 42.385 29.9032L42.922 37.9765H19.078L19.616 29.9012C19.651 29.3788 20.089 28.9684 20.613 28.9684H22V26.9666H20.613C19.039 26.9666 17.724 28.1977 17.62 29.7691L17.074 37.9765H15.069L15.624 29.636C15.787 27.1928 17.67 25.239 20.101 24.9908L19.899 23C16.494 23.3463 13.857 26.0818 13.629 29.5029L13.398 32.972H10C8.346 32.972 7 34.3192 7 35.9747V36.9756C7 38.6311 8.346 39.9783 10 39.9783V37.9765C9.449 37.9765 9 37.5271 9 36.9756V35.9747C9 35.4232 9.449 34.9738 10 34.9738H13.265L13.038 38.3799C11.254 39.1456 10 40.9192 10 42.981V51.9892C8.897 51.9892 8 52.887 8 53.991V55.9928C8 57.0968 8.897 57.9946 10 57.9946H12V59.9964C12 62.2044 13.794 64 16 64C18.206 64 20 62.2044 20 59.9964V57.9946H42V59.9964C42 62.2044 43.794 64 46 64C48.206 64 50 62.2044 50 59.9964V57.9946H52C53.103 57.9946 54 57.0968 54 55.9928V53.991C54 52.887 53.103 51.9892 52 51.9892V42.981C52 40.9192 50.746 39.1456 48.962 38.3799L48.735 34.9738H52C52.551 34.9738 53 35.4232 53 35.9747V36.9756C53 37.5271 52.551 37.9765 52 37.9765V39.9783C53.654 39.9783 55 38.6311 55 36.9756V35.9747C55 34.3192 53.654 32.972 52 32.972ZM44.586 39.9783L40.586 43.9819H21.414L17.414 39.9783H44.586ZM40 45.9837V51.9892H38V45.9837H40ZM36 45.9837V51.9892H34V45.9837H36ZM32 45.9837V51.9892H30V45.9837H32ZM28 45.9837V51.9892H26V45.9837H28ZM24 45.9837V51.9892H22V45.9837H24ZM12 42.981C12 41.4537 13.149 40.2035 14.624 40.0164L20 45.3972V51.9892H12V42.981ZM18 59.9964C18 61.1004 17.103 61.9982 16 61.9982C14.897 61.9982 14 61.1004 14 59.9964V57.9946H18V59.9964ZM48 59.9964C48 61.1004 47.103 61.9982 46 61.9982C44.897 61.9982 44 61.1004 44 59.9964V57.9946H48V59.9964ZM52 53.991L52.001 55.9928H10V53.991H52ZM50 42.981V51.9892H42V45.3972L47.376 40.0164C48.851 40.2035 50 41.4537 50 42.981Z" fill="#313741"/>
<path d="M5.5 5L5.5 10M3 7.5H8" stroke="#313741" stroke-width="1.2" stroke-linecap="round"/>
<rect x="6" y="20" width="4" height="4" transform="rotate(-45 6 20)" fill="#313741"/>
<path d="M48.5 5L48.5 10M46 7.5H51" stroke="#313741" stroke-width="1.2" stroke-linecap="round"/>
</g>
</svg>
