<svg width="73" height="67" viewBox="0 0 73 67" fill="none" xmlns="http://www.w3.org/2000/svg">
<circle cx="39" cy="29" r="28" fill="#FFBD46"/>
<mask id="mask0" mask-type="alpha" maskUnits="userSpaceOnUse" x="0" y="0" width="73" height="67">
<rect width="73" height="67" fill="#C4C4C4"/>
</mask>
<g mask="url(#mask0)">
<path d="M66.0003 29V31H44.5368C44.0949 31 43.6525 31.059 43.2219 31.1757L33.9227 33.7118C32.954 33.977 32.097 34.5199 31.4428 35.2821L26.7539 40.7518C26.268 41.3157 26 42.0389 26 42.8777C26 42.9187 26.0068 42.9588 26.0078 42.9998H26C24.897 42.9998 24 43.8967 24 44.9997V63.9994C24 65.1024 24.897 65.9994 26 65.9994H59.9994C61.1024 65.9994 61.9994 65.1024 61.9994 63.9994V44.9997C61.9994 43.8967 61.1024 42.9998 59.9994 42.9998H57.4145L59.4145 40.9998H66.0003V42.9998H72.0002V29H66.0003ZM59.9994 44.9997V63.9994H26V44.9997H46.5856L45.9147 45.6706C45.3327 46.2517 44.9997 47.0568 44.9997 47.8786C44.9997 49.5998 46.4005 50.9996 48.1227 50.9996C48.9557 50.9996 49.7398 50.6754 50.3297 50.0856L55.4145 44.9997H59.9994ZM48.5865 42.9998H38.1697C38.2595 42.3137 38.3748 41.6307 38.5418 40.9607L38.782 39.9998H44.8927C45.4357 39.9998 45.9699 40.1468 46.4357 40.428L49.3868 42.199L48.5865 42.9998ZM36.6009 40.4769C36.3938 41.306 36.2586 42.1516 36.158 42.9998H34.22L34.0858 42.3289L35.5359 40.8787C35.8616 40.554 36.2527 40.3231 36.6746 40.1771L36.6009 40.4769ZM58.5864 38.9998L48.9156 48.6706C48.7037 48.8825 48.4205 48.9997 48.1207 48.9997C47.5026 48.9997 46.9996 48.4968 46.9996 47.8786C46.9996 47.5837 47.1197 47.2946 47.3287 47.0856L52.0005 42.4138V37.9999H50.0006V40.2337L47.4654 38.7127C46.6876 38.2459 45.7985 37.9999 44.8927 37.9999H37.658C36.323 37.9999 35.0667 38.5208 34.1219 39.4647L30.5868 42.9998H28.0239C28.0151 42.9299 27.9999 42.8689 27.9999 42.7849C27.9999 42.5169 28.0961 42.2586 28.2709 42.055L32.9608 36.5839C33.3529 36.1259 33.868 35.8007 34.449 35.642L43.7448 33.1059C44.0046 33.0361 44.2707 33.0009 44.5358 33.0009H65.9993V39.0008H58.5864V38.9998ZM70.0002 40.9998H68.0003V31H70.0002V40.9998Z" fill="#313741"/>
<path d="M23 15H26.9999C27.5507 15 27.9999 15.4482 27.9999 15.9999H29.9998C29.9998 14.3462 28.6537 13 26.9999 13H25.9999V12H23.9999V13H23C21.3462 13 20 14.3462 20 15.9999V16.9999C20 18.6537 21.3462 19.9999 23 19.9999H26.9999C27.5507 19.9999 27.9999 20.4481 27.9999 20.9999V21.9998C27.9999 22.5521 27.5507 22.9998 26.9999 22.9998H23C22.4492 22.9998 22 22.5521 22 21.9998H20C20 23.6536 21.3462 24.9998 23 24.9998H23.9999V25.9998H25.9999V24.9998H26.9999C28.6537 24.9998 29.9998 23.6536 29.9998 21.9998V20.9999C29.9998 19.3461 28.6537 17.9999 26.9999 17.9999H23C22.4492 17.9999 22 17.5522 22 16.9999V15.9999C22 15.4482 22.4492 15 23 15Z" fill="#313741"/>
<path d="M25.0239 30C27.5602 30 30.0377 29.1153 32 27.5097L30.7302 25.959C29.1256 27.2719 27.0982 27.9957 25.0239 27.9957C20.0512 27.9957 16.0043 23.9498 16.0043 18.9761C16.0043 16.9018 16.7281 14.8744 18.041 13.2708L16.4893 12C14.8838 13.9623 14 16.4398 14 18.9761C14 25.0542 18.9458 30 25.0239 30Z" fill="#313741"/>
<path d="M24.9761 10.0043C29.9488 10.0043 33.9957 14.0502 33.9957 19.0239C33.9957 21.0982 33.2719 23.1256 31.959 24.7292L33.5107 26C35.1162 24.0377 36 21.5607 36 19.0239C36 12.9458 31.0542 8 24.9761 8C22.4398 8 19.9623 8.88473 18 10.4903L19.2698 12.041C20.8744 10.7281 22.9018 10.0043 24.9761 10.0043Z" fill="#313741"/>
<path d="M24.9998 33.9995C33.2706 33.9995 39.9995 27.2706 39.9995 18.9998C39.9995 10.7289 33.2706 4 24.9998 4C16.7289 4 10 10.7289 10 18.9998C10 27.2706 16.7289 33.9995 24.9998 33.9995ZM24.9998 5.99997C32.1676 5.99997 37.9995 11.8319 37.9995 18.9998C37.9995 26.1676 32.1676 31.9995 24.9998 31.9995C17.8319 31.9995 12 26.1676 12 18.9998C12 11.8319 17.8319 5.99997 24.9998 5.99997Z" fill="#313741"/>
<path d="M48.9999 52C46.2431 52 44 54.2431 44 56.9999C44 59.7567 46.2431 61.9998 48.9999 61.9998C49.7118 61.9998 50.3861 61.846 50.9999 61.576C51.6136 61.846 52.2879 61.9998 52.9999 61.9998C55.7566 61.9998 57.9998 59.7567 57.9998 56.9999C57.9998 54.2431 55.7566 52 52.9999 52C52.2879 52 51.6136 52.1538 50.9999 52.4238C50.3861 52.1538 49.7118 52 48.9999 52ZM51.9999 56.9999C51.9999 57.8827 51.6088 58.6698 50.9999 59.2201C50.391 58.6708 49.9999 57.8827 49.9999 56.9999C49.9999 56.1171 50.391 55.33 50.9999 54.7797C51.6088 55.33 51.9999 56.1171 51.9999 56.9999ZM46 56.9999C46 55.3461 47.3461 54 48.9999 54C49.0077 54 49.016 54.0019 49.0238 54.0019C48.3901 54.8398 47.9999 55.871 47.9999 56.9999C47.9999 58.1288 48.3901 59.16 49.0238 59.9979C49.016 59.9979 49.0077 59.9999 48.9999 59.9999C47.3461 59.9999 46 58.6537 46 56.9999ZM55.9998 56.9999C55.9998 58.6537 54.6536 59.9999 52.9999 59.9999C52.992 59.9999 52.9837 59.9979 52.9759 59.9979C53.6097 59.16 53.9998 58.1288 53.9998 56.9999C53.9998 55.871 53.6097 54.8398 52.9759 54.0019C52.9837 54.0019 52.992 54 52.9999 54C54.6536 54 55.9998 55.3461 55.9998 56.9999Z" fill="#313741"/>
<path d="M28 47H30V49H28V47Z" fill="#313741"/>
<path d="M32 47H34V49H32V47Z" fill="#313741"/>
<path d="M36 47H38V49H36V47Z" fill="#313741"/>
<path d="M28 55H30V59H28V55Z" fill="#313741"/>
<path d="M32 55H34V59H32V55Z" fill="#313741"/>
<path d="M36 55H38V59H36V55Z" fill="#313741"/>
<path d="M40 55H42V59H40V55Z" fill="#313741"/>
<path d="M46.5 9L46.5 14M49 11.5H44" stroke="#313741" stroke-width="1.2" stroke-linecap="round"/>
<rect width="4" height="4" transform="matrix(-0.707107 -0.707107 -0.707107 0.707107 55 24)" fill="#313741"/>
<path d="M3.5 9L3.5 14M6 11.5H1" stroke="#313741" stroke-width="1.2" stroke-linecap="round"/>
</g>
</svg>
