<svg width="30" height="31" viewBox="0 0 30 31" fill="none" xmlns="http://www.w3.org/2000/svg">
<g clip-path="url(#clip0)">
<path d="M27.1875 25.8333H2.8125C1.26125 25.8333 0 24.53 0 22.927V8.07288C0 6.46992 1.26125 5.16663 2.8125 5.16663H27.1875C28.7388 5.16663 30 6.46992 30 8.07288V22.927C30 24.53 28.7388 25.8333 27.1875 25.8333ZM2.8125 7.10413C2.295 7.10413 1.875 7.53813 1.875 8.07288V22.927C1.875 23.4618 2.295 23.8958 2.8125 23.8958H27.1875C27.705 23.8958 28.125 23.4618 28.125 22.927V8.07288C28.125 7.53813 27.705 7.10413 27.1875 7.10413H2.8125Z" fill="#5D6B81"/>
<path d="M14.9986 18.0782C14.4511 18.0782 13.9049 17.9452 13.4074 17.6791L0.503635 10.7131C0.0448851 10.4664 -0.132615 9.88131 0.106135 9.40727C0.346135 8.93323 0.913635 8.74981 1.37114 8.99781L14.2711 15.9599C14.7186 16.1988 15.2811 16.1988 15.7324 15.9573L28.6286 8.99781C29.0874 8.74852 29.6536 8.93323 29.8936 9.40727C30.1336 9.88131 29.9561 10.4664 29.4974 10.7144L16.5974 17.6765C16.0949 17.9439 15.5474 18.0782 14.9986 18.0782Z" fill="#5D6B81"/>
</g>
<defs>
<clipPath id="clip0">
<rect width="30" height="31" fill="white"/>
</clipPath>
</defs>
</svg>
