<svg width="114" height="75" viewBox="0 0 114 75" fill="none" xmlns="http://www.w3.org/2000/svg">
<mask id="mask0" mask-type="alpha" maskUnits="userSpaceOnUse" x="0" y="0" width="114" height="75">
<rect width="114" height="75" fill="white"/>
</mask>
<g mask="url(#mask0)">
<path d="M68.6429 61.8095C70.4938 61.8095 72 60.3033 72 58.4524C72 56.6015 70.4938 55.0952 68.6429 55.0952C67.1859 55.0952 65.9549 56.0341 65.4916 57.3333H60.8095V50.619H65.4916C65.9549 51.9183 67.1859 52.8571 68.6429 52.8571C70.4938 52.8571 72 51.3509 72 49.5C72 47.6491 70.4938 46.1429 68.6429 46.1429C67.1859 46.1429 65.9549 47.0817 65.4916 48.381H60.8095V41.6667H65.4916C65.9549 42.9659 67.1859 43.9048 68.6429 43.9048C70.4938 43.9048 72 42.3985 72 40.5476C72 38.6967 70.4938 37.1905 68.6429 37.1905C67.1859 37.1905 65.9549 38.1294 65.4916 39.4286H60.8095V37.1905H58.5714V32.5084C59.8706 32.0451 60.8095 30.8141 60.8095 29.3571C60.8095 27.5062 59.3033 26 57.4524 26C55.6015 26 54.0952 27.5062 54.0952 29.3571C54.0952 30.8141 55.0341 32.0451 56.3333 32.5084V37.1905H49.619V32.5084C50.9183 32.0451 51.8571 30.8141 51.8571 29.3571C51.8571 27.5062 50.3509 26 48.5 26C46.6491 26 45.1429 27.5062 45.1429 29.3571C45.1429 30.8141 46.0817 32.0451 47.381 32.5084V37.1905H40.6667V32.5084C41.9659 32.0451 42.9048 30.8141 42.9048 29.3571C42.9048 27.5062 41.3985 26 39.5476 26C37.6967 26 36.1905 27.5062 36.1905 29.3571C36.1905 30.8141 37.1294 32.0451 38.4286 32.5084V37.1905H36.1905V39.4286H31.5084C31.0451 38.1294 29.8141 37.1905 28.3571 37.1905C26.5062 37.1905 25 38.6967 25 40.5476C25 42.3985 26.5062 43.9048 28.3571 43.9048C29.8141 43.9048 31.0451 42.9659 31.5084 41.6667H36.1905V48.381H31.5084C31.0451 47.0817 29.8141 46.1429 28.3571 46.1429C26.5062 46.1429 25 47.6491 25 49.5C25 51.3509 26.5062 52.8571 28.3571 52.8571C29.8141 52.8571 31.0451 51.9183 31.5084 50.619H36.1905V57.3333H31.5084C31.0451 56.0341 29.8141 55.0952 28.3571 55.0952C26.5062 55.0952 25 56.6015 25 58.4524C25 60.3033 26.5062 61.8095 28.3571 61.8095C29.8141 61.8095 31.0451 60.8706 31.5084 59.5714H36.1905V61.8095H38.4286V66.4916C37.1294 66.9549 36.1905 68.1859 36.1905 69.6429C36.1905 71.4938 37.6967 73 39.5476 73C41.3985 73 42.9048 71.4938 42.9048 69.6429C42.9048 68.1859 41.9659 66.9549 40.6667 66.4916V61.8095H47.381V66.4916C46.0817 66.9549 45.1429 68.1859 45.1429 69.6429C45.1429 71.4938 46.6491 73 48.5 73C50.3509 73 51.8571 71.4938 51.8571 69.6429C51.8571 68.1859 50.9183 66.9549 49.619 66.4916V61.8095H56.3333V66.4916C55.0341 66.9549 54.0952 68.1859 54.0952 69.6429C54.0952 71.4938 55.6015 73 57.4524 73C59.3033 73 60.8095 71.4938 60.8095 69.6429C60.8095 68.1859 59.8706 66.9549 58.5714 66.4916V61.8095H60.8095V59.5714H65.4916C65.9549 60.8706 67.1859 61.8095 68.6429 61.8095ZM68.6429 57.3333C69.2606 57.3333 69.7619 57.8347 69.7619 58.4524C69.7619 59.0701 69.2606 59.5714 68.6429 59.5714C68.0251 59.5714 67.5238 59.0701 67.5238 58.4524C67.5238 57.8347 68.0251 57.3333 68.6429 57.3333ZM68.6429 48.381C69.2606 48.381 69.7619 48.8823 69.7619 49.5C69.7619 50.1177 69.2606 50.619 68.6429 50.619C68.0251 50.619 67.5238 50.1177 67.5238 49.5C67.5238 48.8823 68.0251 48.381 68.6429 48.381ZM68.6429 39.4286C69.2606 39.4286 69.7619 39.9299 69.7619 40.5476C69.7619 41.1653 69.2606 41.6667 68.6429 41.6667C68.0251 41.6667 67.5238 41.1653 67.5238 40.5476C67.5238 39.9299 68.0251 39.4286 68.6429 39.4286ZM28.3571 41.6667C27.7394 41.6667 27.2381 41.1653 27.2381 40.5476C27.2381 39.9299 27.7394 39.4286 28.3571 39.4286C28.9749 39.4286 29.4762 39.9299 29.4762 40.5476C29.4762 41.1653 28.9749 41.6667 28.3571 41.6667ZM28.3571 50.619C27.7394 50.619 27.2381 50.1177 27.2381 49.5C27.2381 48.8823 27.7394 48.381 28.3571 48.381C28.9749 48.381 29.4762 48.8823 29.4762 49.5C29.4762 50.1177 28.9749 50.619 28.3571 50.619ZM28.3571 59.5714C27.7394 59.5714 27.2381 59.0701 27.2381 58.4524C27.2381 57.8347 27.7394 57.3333 28.3571 57.3333C28.9749 57.3333 29.4762 57.8347 29.4762 58.4524C29.4762 59.0701 28.9749 59.5714 28.3571 59.5714ZM57.4524 28.2381C58.0701 28.2381 58.5714 28.7405 58.5714 29.3571C58.5714 29.9737 58.0701 30.4762 57.4524 30.4762C56.8347 30.4762 56.3333 29.9737 56.3333 29.3571C56.3333 28.7405 56.8347 28.2381 57.4524 28.2381ZM48.5 28.2381C49.1177 28.2381 49.619 28.7405 49.619 29.3571C49.619 29.9737 49.1177 30.4762 48.5 30.4762C47.8823 30.4762 47.381 29.9737 47.381 29.3571C47.381 28.7405 47.8823 28.2381 48.5 28.2381ZM39.5476 28.2381C40.1653 28.2381 40.6667 28.7405 40.6667 29.3571C40.6667 29.9737 40.1653 30.4762 39.5476 30.4762C38.9299 30.4762 38.4286 29.9737 38.4286 29.3571C38.4286 28.7405 38.9299 28.2381 39.5476 28.2381ZM39.5476 70.7619C38.9299 70.7619 38.4286 70.2606 38.4286 69.6429C38.4286 69.0251 38.9299 68.5238 39.5476 68.5238C40.1653 68.5238 40.6667 69.0251 40.6667 69.6429C40.6667 70.2606 40.1653 70.7619 39.5476 70.7619ZM48.5 70.7619C47.8823 70.7619 47.381 70.2606 47.381 69.6429C47.381 69.0251 47.8823 68.5238 48.5 68.5238C49.1177 68.5238 49.619 69.0251 49.619 69.6429C49.619 70.2606 49.1177 70.7619 48.5 70.7619ZM57.4524 70.7619C56.8347 70.7619 56.3333 70.2606 56.3333 69.6429C56.3333 69.0251 56.8347 68.5238 57.4524 68.5238C58.0701 68.5238 58.5714 69.0251 58.5714 69.6429C58.5714 70.2606 58.0701 70.7619 57.4524 70.7619ZM58.5714 59.5714H38.4286V39.4286H58.5714V59.5714Z" fill="#2694F5"/>
<path d="M89.9174 21.0502V21.0513C89.4966 19.4199 88.849 17.8607 87.9837 16.3986L91.5815 12.7996L85.1993 6.41846L81.6003 10.0174C80.1382 9.15097 78.5801 8.50338 76.9487 8.08256V3H67.9231V8.08256C66.2917 8.50338 64.7336 9.15097 63.2715 10.0163L59.6725 6.41733L53.2903 12.7985L56.8881 16.3974C56.0228 17.8596 55.3752 19.4188 54.9544 21.0502H51V23.3066H56.7742L56.9581 22.4029C57.3586 20.4274 58.1336 18.5625 59.2618 16.8577L59.7707 16.0894L56.4797 12.7985L59.6714 9.6079L62.9624 12.8989L63.7307 12.3901C65.4343 11.2618 67.2992 10.4868 69.2758 10.0863L70.1795 9.90349V5.25641H74.6923V9.90349L75.596 10.0874C77.5726 10.4879 79.4375 11.263 81.1411 12.3912L81.9094 12.9L85.2004 9.60903L88.3921 12.7996L85.1011 16.0906L85.6099 16.8589C86.7382 18.5636 87.5132 20.4285 87.9137 22.404L88.0976 23.3077H92.7436V27.8205H88.0976L87.9137 28.7242C87.5132 30.6997 86.7382 32.5646 85.6099 34.2682L85.1011 35.0376L88.3921 38.3286L85.2004 41.5203L81.9094 38.2293L81.1411 38.7382C79.4364 39.8664 77.5715 40.6426 75.596 41.042L74.6923 41.2258V47H76.9487V43.0456C78.579 42.6259 80.1382 41.9784 81.6003 41.1119L85.1993 44.7097L91.5815 38.3275L87.9837 34.7285C88.849 33.2664 89.4966 31.7072 89.9174 30.0758H95V21.0502H89.9174V21.0502Z" fill="#2694F5"/>
<path d="M72.5 34.7V37C78.8411 37 84 31.8411 84 25.5C84 19.1589 78.8411 14 72.5 14C66.1589 14 61 19.1589 61 25.5H63.3C63.3 20.4274 67.4274 16.3 72.5 16.3C77.5726 16.3 81.7 20.4274 81.7 25.5C81.7 30.5726 77.5726 34.7 72.5 34.7Z" fill="#2694F5"/>
<path d="M57 41H41V43H57V41Z" fill="#2694F5"/>
<path d="M56 55H54V57H56V55Z" fill="#2694F5"/>
<path d="M52 55H41V57H52V55Z" fill="#2694F5"/>
<path d="M67 70.766L67.4534 73C81.3634 70.1758 92.1758 59.3634 95 45.4534L92.766 45C90.1264 58.0123 80.0123 68.1264 67 70.766Z" fill="#2694F5"/>
<path d="M54 6.23298L53.5466 4C39.6366 6.82427 28.8242 17.6371 26 31.5477L28.234 32C30.8736 18.9895 40.9877 8.87383 54 6.23298Z" fill="#2694F5"/>
<rect x="16.5419" y="21.4194" width="4" height="4" transform="rotate(-77.5337 16.5419 21.4194)" fill="#2694F5"/>
<path d="M2.32583 31.6738L5.01481 35.8892M1.56263 35.126L5.77801 32.437" stroke="#2694F5" stroke-width="1.2" stroke-linecap="round"/>
<path d="M6.10769 3.65551L8.79667 7.87089M5.34449 7.10769L9.55987 4.41871" stroke="#2694F5" stroke-width="1.2" stroke-linecap="round"/>
<path d="M109.108 24.6555L111.797 28.8709M108.344 28.1077L112.56 25.4187" stroke="#2694F5" stroke-width="1.2" stroke-linecap="round"/>
</g>
</svg>
