<svg width="108" height="59" viewBox="0 0 108 59" fill="none" xmlns="http://www.w3.org/2000/svg">
<mask id="mask0" mask-type="alpha" maskUnits="userSpaceOnUse" x="0" y="0" width="108" height="59">
<rect width="108" height="59" fill="white"/>
</mask>
<g mask="url(#mask0)">
<path d="M88.7419 2H51.4839C50.2385 2 49.2258 3.00912 49.2258 4.25V5.375H26.6452C25.3998 5.375 24.3871 6.38412 24.3871 7.625V9.875C24.3871 11.1159 25.3998 12.125 26.6452 12.125H28.7158L26.8552 24.1839C26.7942 24.5754 26.5277 24.9106 26.1585 25.0569L23.1282 26.264C21.8355 26.7804 21 28.0111 21 29.3983V45.875C21 47.1159 22.0127 48.125 23.2581 48.125H26.7231C27.2819 52.5575 31.08 56 35.6774 56C40.2748 56 44.0729 52.5575 44.6318 48.125H52.6919C53.2508 52.5575 57.0489 56 61.6463 56C65.0447 56 68.0084 54.1179 69.5495 51.347C71.0895 54.1179 74.0532 56 77.4516 56C81.6505 56 85.1798 53.1256 86.1869 49.25H88.7419C89.9873 49.25 91 48.2409 91 47V4.25C91 3.00912 89.9873 2 88.7419 2ZM26.7231 45.875H23.2581V43.625H27.3102C27.0211 44.3349 26.8224 45.0897 26.7231 45.875ZM35.6774 53.75C31.9415 53.75 28.9032 50.7226 28.9032 47C28.9032 43.2774 31.9415 40.25 35.6774 40.25C39.4134 40.25 42.4516 43.2774 42.4516 47C42.4516 50.7226 39.4134 53.75 35.6774 53.75ZM35.6774 38C34.8961 38 34.1431 38.1091 33.4194 38.2959V27.875H44.7097V41.375H42.7169C41.0595 39.3208 38.5226 38 35.6774 38ZM33.6677 25.625L35.4742 16.625H44.7097V25.625H33.6677ZM47.4419 45.875H44.6318C44.5324 45.0897 44.3337 44.3349 44.0447 43.625H48.7324L47.4419 45.875ZM49.2258 41.375H46.9677V14.375H33.6237L31.1839 26.5295L31.1624 39.2173C30.1926 39.7775 29.3368 40.5088 28.6379 41.375H23.2581V36.875H26.6452V34.625H23.2581V32.375H26.6452V30.125H23.2581V29.3983C23.2581 28.9359 23.5369 28.5253 23.9671 28.3543L26.9974 27.1471C28.105 26.705 28.9055 25.7004 29.0873 24.5259L31.001 12.125H49.2258V41.375ZM49.2258 9.875H30.0323H29.0635H26.6452V7.625H49.2258V9.875ZM52.6908 45.875H50.0421L53.2677 40.25H55.6906C54.0761 41.6664 52.9719 43.643 52.6908 45.875ZM61.6452 53.75C57.9092 53.75 54.871 50.7226 54.871 47C54.871 43.2774 57.9092 40.25 61.6452 40.25C65.3811 40.25 68.4194 43.2774 68.4194 47C68.4194 50.7226 65.3811 53.75 61.6452 53.75ZM69.5484 42.653C69.0415 41.7429 68.3787 40.9329 67.5997 40.25H71.4971C70.7181 40.9329 70.0542 41.7418 69.5484 42.653ZM77.4516 53.75C73.7156 53.75 70.6774 50.7226 70.6774 47C70.6774 43.2774 73.7156 40.25 77.4516 40.25C81.1876 40.25 84.2258 43.2774 84.2258 47C84.2258 50.7226 81.1876 53.75 77.4516 53.75ZM88.7419 47H86.4839C86.4839 46.2215 86.3744 45.4711 86.1869 44.75H88.7419V47ZM88.7419 42.5H85.2623C84.7677 41.6529 84.14 40.8935 83.4061 40.25H88.7419V42.5ZM88.7419 38H51.9581L51.4839 38.8269V4.25H88.7419V38Z" fill="#2694F5"/>
<path d="M43 30H38V32H43V30Z" fill="#2694F5"/>
<path d="M35.5 43C33.0182 43 31 45.0182 31 47.5C31 49.9818 33.0182 52 35.5 52C37.9818 52 40 49.9818 40 47.5C40 45.0182 37.9818 43 35.5 43ZM35.5 49.75C34.2591 49.75 33.25 48.7409 33.25 47.5C33.25 46.2591 34.2591 45.25 35.5 45.25C36.7409 45.25 37.75 46.2591 37.75 47.5C37.75 48.7409 36.7409 49.75 35.5 49.75Z" fill="#2694F5"/>
<path d="M61.5 43C59.0182 43 57 45.0182 57 47.5C57 49.9818 59.0182 52 61.5 52C63.9818 52 66 49.9818 66 47.5C66 45.0182 63.9818 43 61.5 43ZM61.5 49.75C60.2591 49.75 59.25 48.7409 59.25 47.5C59.25 46.2591 60.2591 45.25 61.5 45.25C62.7409 45.25 63.75 46.2591 63.75 47.5C63.75 48.7409 62.7409 49.75 61.5 49.75Z" fill="#2694F5"/>
<path d="M77.5 43C75.0182 43 73 45.0182 73 47.5C73 49.9818 75.0182 52 77.5 52C79.9818 52 82 49.9818 82 47.5C82 45.0182 79.9818 43 77.5 43ZM77.5 49.75C76.2591 49.75 75.25 48.7409 75.25 47.5C75.25 46.2591 76.2591 45.25 77.5 45.25C78.7409 45.25 79.75 46.2591 79.75 47.5C79.75 48.7409 78.7409 49.75 77.5 49.75Z" fill="#2694F5"/>
<path d="M78 14H57V16H78V14Z" fill="#2694F5"/>
<path d="M74 19H57V21H74V19Z" fill="#2694F5"/>
<path d="M71 23H57V25H71V23Z" fill="#2694F5"/>
<path d="M83 14H81V16H83V14Z" fill="#2694F5"/>
<path d="M4.22463 7.2019L6.91361 11.4173M3.46143 10.6541L7.67681 7.9651" stroke="#2694F5" stroke-width="1.2" stroke-linecap="round"/>
<rect x="12.713" y="19.5791" width="4" height="4" transform="rotate(-77.5337 12.713 19.5791)" fill="#2694F5"/>
<path d="M4.32583 29.6738L7.01481 33.8892M3.56263 33.126L7.77801 30.437" stroke="#2694F5" stroke-width="1.2" stroke-linecap="round"/>
<path d="M99.1077 36.6555L101.797 40.8709M98.3445 40.1077L102.56 37.4187" stroke="#2694F5" stroke-width="1.2" stroke-linecap="round"/>
</g>
</svg>
