<svg width="96" height="70" viewBox="0 0 96 70" fill="none" xmlns="http://www.w3.org/2000/svg">
<path d="M75.7004 10.927L72.0877 0H61.2V4.51613C61.2 5.76148 60.1954 6.77419 58.96 6.77419C57.7246 6.77419 56.72 5.76148 56.72 4.51613V0H43.28V4.51613C43.28 5.76148 42.2754 6.77419 41.04 6.77419C39.8046 6.77419 38.8 5.76148 38.8 4.51613V0H27.9123L24.2996 10.927C22.7738 15.5413 22 20.3474 22 25.2125C22 37.4791 27.0433 49.3781 35.8365 57.8585L47.2962 68.9073C48.0291 69.6113 48.9888 70 50 70C51.0112 70 51.9709 69.6113 52.7038 68.9057L64.1624 57.8574C72.9567 49.377 78 37.478 78 25.2125C78 20.3474 77.2262 15.5413 75.7004 10.927ZM62.6148 56.2256L51.1561 67.2744C50.5288 67.8764 49.4712 67.8764 48.8455 67.2744L37.3852 56.2256C29.0312 48.1691 24.24 36.865 24.24 25.2125C24.24 20.5911 24.9745 16.0242 26.4253 11.6415L29.5277 2.25806H36.56V4.51613C36.56 7.00684 38.5692 9.03226 41.04 9.03226C43.5108 9.03226 45.52 7.00684 45.52 4.51613V2.25806H54.48V4.51613C54.48 7.00684 56.4892 9.03226 58.96 9.03226C61.4308 9.03226 63.44 7.00684 63.44 4.51613V2.25806H70.4723L73.5747 11.6415C75.0255 16.0242 75.76 20.59 75.76 25.2125C75.76 36.865 70.9688 48.1691 62.6148 56.2256Z" fill="#2694F5"/>
<path d="M70.1601 14H30.8399L30.6012 14.8161C29.5387 18.438 29 22.12 29 25.7624C29 36.2768 33.3318 46.476 40.8838 53.7459L50.5 63L60.1162 53.7459C67.6682 46.476 72 36.2768 72 25.7624C72 22.12 71.4613 18.438 70.3988 14.8161L70.1601 14ZM58.5514 52.1004L50.5 59.8495L42.4486 52.1004C35.3403 45.259 31.2632 35.6586 31.2632 25.7624C31.2632 22.6109 31.693 19.4254 32.5417 16.2771H68.4583C69.307 19.4254 69.7368 22.6109 69.7368 25.7624C69.7368 35.6586 65.6597 45.259 58.5514 52.1004Z" fill="#2694F5"/>
<path d="M67 6H69V8H67V6Z" fill="#2694F5"/>
<path d="M31 6H33V8H31V6Z" fill="#2694F5"/>
<path d="M50 22L43.9527 30.3505L36 26.4288L38.8001 43H61.1999L64 26.4299L56.0473 30.3516L50 22ZM60.0314 36.2697H55.6869V38.5131H59.6516L59.2728 40.7566H40.7272L40.3484 38.5131H53.4121V36.2697H39.9686L38.9778 30.4053L44.6736 33.2139L50 25.8614L55.3264 33.215L61.0222 30.4064L60.0314 36.2697Z" fill="#2694F5"/>
<path d="M49 30H51V32H49V30Z" fill="#2694F5"/>
<path d="M50.5 12C52.4294 12 54 10.4294 54 8.5C54 6.57056 52.4294 5 50.5 5C48.5706 5 47 6.57056 47 8.5C47 10.4294 48.5706 12 50.5 12ZM50.5 7.33333C51.1426 7.33333 51.6667 7.85742 51.6667 8.5C51.6667 9.14258 51.1426 9.66667 50.5 9.66667C49.8574 9.66667 49.3333 9.14258 49.3333 8.5C49.3333 7.85742 49.8574 7.33333 50.5 7.33333Z" fill="#2694F5"/>
<path d="M15.5 2L15.5 7M13 4.5H18" stroke="#2694F5" stroke-width="1.2" stroke-linecap="round"/>
<rect x="11" y="37" width="4" height="4" transform="rotate(-45 11 37)" fill="#2694F5"/>
<path d="M3.5 21L3.5 26M1 23.5H6" stroke="#2694F5" stroke-width="1.2" stroke-linecap="round"/>
<path d="M92.5 5L92.5 10M90 7.5H95" stroke="#2694F5" stroke-width="1.2" stroke-linecap="round"/>
</svg>
