<svg width="87" height="70" viewBox="0 0 87 70" fill="none" xmlns="http://www.w3.org/2000/svg">
<g clip-path="url(#clip0)">
<path d="M77.528 55.2479C76.7739 50.754 73.6039 47.0666 69.2556 45.6255L59.5997 42.4266V41H57.3555V42.9508L49.5006 57.5913L41.6457 42.9519V41H39.4014V43.5096L48.3784 60.2404V62.1923H34.9129V64.4231H48.3784V67.7692H31.6958L32.5912 60.6475C34.0376 59.7017 34.9129 58.1055 34.9129 56.3522V55.5H32.6686V56.3522C32.6686 57.4653 32.0459 58.4669 31.0449 58.9644L30.5074 59.231L29.4335 67.7692H21.6493L22.9274 60.1445L20.7135 59.7786L19 70H80L77.528 55.2479ZM50.6227 67.7692V64.4231H64.0882V62.1923H50.6227V60.2404L59.0218 44.5871L64.0882 46.2646V56.351C64.0882 58.1044 64.9635 59.7005 66.4099 60.6475L67.3054 67.7692H50.6227ZM69.5676 67.7692L68.4937 59.231L67.9562 58.9644C66.9553 58.4658 66.3325 57.4653 66.3325 56.3522V47.0086L68.5453 47.7414C72.1036 48.9215 74.6968 51.9386 75.314 55.6149L77.3507 67.7692H69.5676Z" fill="#2694F5"/>
<path d="M30.1389 24.973C30.1389 27.8857 32.3597 30.265 35.1978 30.5851C35.7787 32.5772 36.8515 34.4037 38.3639 35.9111L42.8045 40.337C43.8796 41.4086 45.31 42 46.8316 42H52.1684C53.69 42 55.1204 41.4086 56.1955 40.337L60.6361 35.9111C62.1485 34.4037 63.2202 32.5772 63.8022 30.5851C66.6403 30.265 68.8611 27.8857 68.8611 24.973C68.8611 23.6903 68.4158 22.5188 67.6926 21.5676H70V14.7568H66.4205C65.5151 8.05605 60.6076 2.44962 54.0556 0.640216V0H44.9444V0.640216C38.3936 2.44962 33.4861 8.05605 32.5795 14.7568H29V21.5676H31.3074C30.5842 22.5188 30.1389 23.6903 30.1389 24.973ZM32.4167 24.973C32.4167 23.495 33.3722 22.2464 34.6944 21.7764V27.0809C34.6944 27.4521 34.7161 27.8199 34.748 28.1854C33.3984 27.7314 32.4167 26.4702 32.4167 24.973ZM62.0278 27.0809C62.0278 29.8109 60.9606 32.3752 59.0257 34.3061L54.5851 38.7319C53.9394 39.3756 53.0818 39.7297 52.1684 39.7297H46.8316C45.9182 39.7297 45.0595 39.3756 44.4149 38.7319L39.9743 34.3061C38.0394 32.3763 36.9722 29.8109 36.9722 27.0821V21.5676H62.0278V27.0809ZM64.252 28.1854C64.2839 27.8199 64.3056 27.4532 64.3056 27.0809V21.7764C65.6278 22.2464 66.5833 23.495 66.5833 24.973C66.5833 26.4702 65.6016 27.7314 64.252 28.1854ZM44.9444 3.00357V12.4865H47.2222V2.27027H51.7778V12.4865H54.0556V3.00357C59.3332 4.70968 63.2737 9.29108 64.1302 14.7568H34.8698C35.7274 9.28995 39.6668 4.70968 44.9444 3.00357ZM31.2778 19.2973V17.027H67.7222V19.2973H31.2778Z" fill="#2694F5"/>
<path d="M58 10H56V12H58V10Z" fill="#2694F5"/>
<path d="M42 10H40V12H42V10Z" fill="#2694F5"/>
<path d="M20.0818 58H26.5196L27.1098 55.0944C27.4877 54.9637 27.8576 54.8127 28.2172 54.6447L30.714 56.2869L35.2658 51.7933L33.6024 49.3284C33.7725 48.9745 33.9255 48.6082 34.058 48.2351L37 47.6525V41.297L34.0568 40.7143C33.8433 40.118 33.583 39.5432 33.2759 39L31.2803 40.0966C31.6148 40.6883 31.882 41.3296 32.0749 41.9991L32.2667 42.6596L34.7167 43.1442V45.8052L32.2667 46.2898L32.0749 46.9503C31.882 47.6209 31.6148 48.2611 31.2803 48.8528L30.9412 49.4535L32.3249 51.5025L30.4195 53.3836L28.344 52.0176L27.7355 52.3523C27.1361 52.6825 26.4865 52.9463 25.8083 53.1367L25.1393 53.325L24.6484 55.7459H21.953L21.4621 53.3272L20.793 53.139C20.1138 52.9485 19.4653 52.6848 18.8659 52.3546L18.2574 52.0198L16.1819 53.3858L13.6143 50.8522L12 52.4458L15.8896 56.2869L18.3864 54.6447C18.7449 54.8127 19.1159 54.9637 19.4938 55.0944L20.0818 58Z" fill="#2694F5"/>
<path d="M13.7241 49L15.7197 47.9033C15.3852 47.3116 15.118 46.6702 14.9251 46.0007L14.7333 45.3402L12.2833 44.8567V42.1955L14.7333 41.7109L14.9251 41.0504C15.118 40.3797 15.3852 39.7395 15.7197 39.1478L16.0588 38.547L14.6751 36.4979L16.5805 34.6167L18.656 35.9828L19.2645 35.648C19.8639 35.3178 20.5135 35.054 21.1917 34.8636L21.8607 34.6753L22.3516 32.2543H25.047L25.5379 34.6731L26.207 34.8613C26.8862 35.0518 27.5347 35.3155 28.1341 35.6458L28.7426 35.9805L30.8181 34.6145L33.3857 37.1482L35 35.5545L31.1104 31.7132L28.6136 33.3555C28.2551 33.1875 27.8841 33.0365 27.5062 32.9057L26.9182 30H20.4804L19.8902 32.9057C19.5123 33.0365 19.1424 33.1875 18.7828 33.3555L16.286 31.7132L11.7342 36.2071L13.3976 38.6721C13.2275 39.026 13.0745 39.3924 12.942 39.7654L10 40.3482V46.704L12.9432 47.2868C13.1567 47.8819 13.417 48.4567 13.7241 49Z" fill="#2694F5"/>
<path d="M23.5 38C20.4673 38 18 40.4673 18 43.5C18 46.5327 20.4673 49 23.5 49C26.5327 49 29 46.5327 29 43.5C29 40.4673 26.5327 38 23.5 38ZM23.5 46.8C21.6806 46.8 20.2 45.3194 20.2 43.5C20.2 41.6806 21.6806 40.2 23.5 40.2C25.3194 40.2 26.8 41.6806 26.8 43.5C26.8 45.3194 25.3194 46.8 23.5 46.8Z" fill="#2694F5"/>
</g>
<path d="M15.5 2L15.5 7M13 4.5H18" stroke="#2694F5" stroke-width="1.2" stroke-linecap="round"/>
<rect x="16" y="17" width="4" height="4" transform="rotate(-45 16 17)" fill="#2694F5"/>
<path d="M83.5 20L83.5 25M81 22.5H86" stroke="#2694F5" stroke-width="1.2" stroke-linecap="round"/>
<path d="M3.5 21L3.5 26M1 23.5H6" stroke="#2694F5" stroke-width="1.2" stroke-linecap="round"/>
<defs>
<clipPath id="clip0">
<rect width="70" height="70" fill="white" transform="translate(10)"/>
</clipPath>
</defs>
</svg>
