<svg width="87" height="71" viewBox="0 0 87 71" fill="none" xmlns="http://www.w3.org/2000/svg">
<path d="M80.8818 63.0895L87 56.9713L84.1748 54.1461L87 51.321L80.8818 45.2028L77.4916 48.593L68.9189 40.0203L72.3091 36.6301L66.1909 30.5119L62.8007 33.9021L61.0084 32.1098L64.3986 28.7196L58.2804 22.6014L56.0203 24.8615L52.6301 21.4713L51.5 22.6014L42.4594 13.5608L41.3294 14.6909L33.4189 6.78042L31.7238 8.47552L23.2483 0L16 7.24826L24.4755 15.7238L22.7804 17.4189L30.6909 25.3294L29.5608 26.4594L38.6014 35.5L37.4713 36.6301L40.8615 40.0203L38.6014 42.2804L44.7196 48.3986L48.1098 45.0084L49.9021 46.8007L46.5119 50.1909L52.6301 56.3091L56.0203 52.9189L64.593 61.4916L61.2028 64.8818L67.321 71L74.1014 64.2196L80.8818 71L86.201 65.6808L84.6031 64.0828L80.8818 67.8042L75.6993 62.6217L78.0566 60.2643L80.8818 63.0895ZM80.8818 59.8937L79.6545 58.6664L82.5769 55.7441L83.8042 56.9713L80.8818 59.8937ZM58.2804 25.7972L61.2028 28.7196L53.7601 36.1622L50.8378 33.2399L58.2804 25.7972ZM19.1958 7.24826L23.2483 3.19584L26.1706 6.1182L22.1182 10.1706L19.1958 7.24826ZM23.7161 11.7685L27.7685 7.71611L30.1259 10.0734L26.0734 14.1259L23.7161 11.7685ZM25.9763 17.4189L33.4189 9.97625L35.7762 12.3336L28.3336 19.7762L25.9763 17.4189ZM32.7567 26.4594L35.3479 23.8682L33.75 22.2703L32.2888 23.7315L29.9315 21.3741L37.3741 13.9315L39.7315 16.2888L34.8801 21.1402L36.478 22.7381L42.4594 16.7567L49.9021 24.1993L40.1993 33.9021L32.7567 26.4594ZM40.6672 36.6301L52.6301 24.6672L54.4224 26.4594L42.4594 38.4224L40.6672 36.6301ZM44.7196 45.2028L41.7972 42.2804L49.2399 34.8378L52.1622 37.7601L44.7196 45.2028ZM49.7077 43.4105L59.4105 33.7077L61.2028 35.5L51.5 45.2028L49.7077 43.4105ZM52.6301 53.1133L49.7077 50.1909L66.1909 33.7077L69.1133 36.6301L52.6301 53.1133ZM57.6182 51.321L67.321 41.6182L69.1133 43.4105L59.4105 53.1133L57.6182 51.321ZM64.3986 58.1014L71.5101 50.9899L69.9122 49.3919L62.8007 56.5035L61.0084 54.7112L70.7112 45.0084L72.5035 46.8007L71.0423 48.2619L72.6402 49.8598L74.1014 48.3986L75.8937 50.1909L66.1909 59.8937L64.3986 58.1014ZM67.321 67.8042L64.3986 64.8818L80.8818 48.3986L83.8042 51.321L67.321 67.8042Z" fill="#2694F5"/>
<path d="M12.2246 38.2019L14.9136 42.4173M11.4614 41.6541L15.6768 38.9651" stroke="#2694F5" stroke-width="1.2" stroke-linecap="round"/>
<rect x="20.713" y="50.5791" width="4" height="4" transform="rotate(-77.5337 20.713 50.5791)" fill="#2694F5"/>
<path d="M79.234 16.8071L81.923 21.0225M78.4708 20.2593L82.6862 17.5703" stroke="#2694F5" stroke-width="1.2" stroke-linecap="round"/>
<path d="M12.3258 60.6738L15.0148 64.8892M11.5626 64.126L15.778 61.437" stroke="#2694F5" stroke-width="1.2" stroke-linecap="round"/>
</svg>
