<svg width="128" height="74" viewBox="0 0 128 74" fill="none" xmlns="http://www.w3.org/2000/svg">
<rect x="39" y="4" width="51" height="50" fill="#FFBD46"/>
<path d="M30.9459 22.6447C30.9459 24.0753 30.7388 25.4494 30.3247 26.7671C29.9482 28.0471 29.4024 29.2329 28.6871 30.3247C28.0094 31.4165 27.1624 32.4141 26.1459 33.3176C25.1671 34.1835 24.0753 34.8988 22.8706 35.4635L30.9459 48H22.8706L15.6988 36.8753H11.0682L13.8353 30.0988H16.7718C18.8047 30.0988 20.5553 29.3647 22.0235 27.8965C22.7012 27.1812 23.2282 26.3718 23.6047 25.4682C23.9812 24.5647 24.1694 23.6235 24.1694 22.6447C24.1694 21.6659 23.9812 20.7247 23.6047 19.8212C23.2282 18.9176 22.7012 18.1271 22.0235 17.4494C20.5553 15.9812 18.8047 15.2471 16.7718 15.2471H8.75294V18.9741V30.0988V36.8753V48H1.97647V36.8753V18.9741V8.47058H16.7718C18.7294 8.47058 20.5553 8.84705 22.2494 9.6C23.9812 10.3529 25.4871 11.3694 26.7671 12.6494C28.0471 13.9294 29.0635 15.4353 29.8165 17.1671C30.5694 18.8612 30.9459 20.6871 30.9459 22.6447ZM76.9765 8.41411H84.3741V47.9435H77.5977V19.9341L64.5529 40.0941L51.5647 19.9341V47.9435H44.7882V8.41411H52.1859L64.5529 27.6141L76.9765 8.41411ZM125.117 15.2471H105.296V24.8471H120.034L121.729 31.6235H105.296V41.2235H125.117V48H98.5191V8.47058H125.117V15.2471Z" fill="#313741"/>
<path d="M3.20051 62.3745C3.80329 62.3745 4.24993 62.5342 4.54043 62.8538C4.83818 63.1733 4.98706 63.6418 4.98706 64.2591V65.2504C4.98706 65.8677 4.83818 66.3361 4.54043 66.6557C4.24993 66.9752 3.80329 67.135 3.20051 67.135H2.63404V70H1.43574V62.3745H3.20051ZM2.63404 63.4638V66.0456H3.20051C3.38933 66.0456 3.53458 65.9948 3.63626 65.8931C3.73793 65.7914 3.78877 65.6026 3.78877 65.3266V64.1828C3.78877 63.9068 3.73793 63.718 3.63626 63.6163C3.53458 63.5147 3.38933 63.4638 3.20051 63.4638H2.63404ZM7.82979 65.5881H9.47472V66.6774H7.82979V68.9106H9.89957V70H6.63149V62.3745H9.89957V63.4638H7.82979V65.5881ZM14.2697 67.7886L15.0867 62.3745H16.7534V70H15.6205V64.5314L14.7926 70H13.6597L12.7664 64.6077V70H11.7206V62.3745H13.3873L14.2697 67.7886ZM19.8147 68.2461C19.8147 68.5221 19.8692 68.7182 19.9781 68.8344C20.0943 68.9433 20.2468 68.9978 20.4357 68.9978C20.6245 68.9978 20.7734 68.9433 20.8823 68.8344C20.9985 68.7182 21.0566 68.5221 21.0566 68.2461V64.1283C21.0566 63.8524 20.9985 63.6599 20.8823 63.551C20.7734 63.4348 20.6245 63.3767 20.4357 63.3767C20.2468 63.3767 20.0943 63.4348 19.9781 63.551C19.8692 63.6599 19.8147 63.8524 19.8147 64.1283V68.2461ZM18.6164 64.2046C18.6164 63.5873 18.7726 63.1152 19.0848 62.7884C19.3971 62.4544 19.8474 62.2873 20.4357 62.2873C21.0239 62.2873 21.4742 62.4544 21.7865 62.7884C22.0987 63.1152 22.2549 63.5873 22.2549 64.2046V68.1699C22.2549 68.7872 22.0987 69.2629 21.7865 69.5969C21.4742 69.9237 21.0239 70.0871 20.4357 70.0871C19.8474 70.0871 19.3971 69.9237 19.0848 69.5969C18.7726 69.2629 18.6164 68.7872 18.6164 68.1699V64.2046ZM25.3213 70H24.123V62.3745H25.3213V65.6426H26.683V62.3745H27.9031V70H26.683V66.7319H25.3213V70ZM29.5127 62.3745H33.2165V63.4638H31.9637V70H30.7654V63.4638H29.5127V62.3745ZM40.1527 67.7886L40.9697 62.3745H42.6364V70H41.5035V64.5314L40.6756 70H39.5426L38.6494 64.6077V70H37.6036V62.3745H39.2703L40.1527 67.7886ZM48.4756 70H47.2664L47.0594 68.6165H45.5888L45.3818 70H44.2815L45.5016 62.3745H47.2555L48.4756 70ZM45.7413 67.5816H46.896L46.3186 63.7253L45.7413 67.5816ZM53.598 67.1568V68.1699C53.598 68.7872 53.4455 69.2629 53.1405 69.5969C52.8427 69.9237 52.3997 70.0871 51.8115 70.0871C51.2232 70.0871 50.7766 69.9237 50.4716 69.5969C50.1738 69.2629 50.0249 68.7872 50.0249 68.1699V64.2046C50.0249 63.5873 50.1738 63.1152 50.4716 62.7884C50.7766 62.4544 51.2232 62.2873 51.8115 62.2873C52.3997 62.2873 52.8427 62.4544 53.1405 62.7884C53.4455 63.1152 53.598 63.5873 53.598 64.2046V64.9454H52.4651V64.1283C52.4651 63.8524 52.407 63.6599 52.2908 63.551C52.1819 63.4348 52.033 63.3767 51.8442 63.3767C51.6553 63.3767 51.5028 63.4348 51.3866 63.551C51.2777 63.6599 51.2232 63.8524 51.2232 64.1283V68.2461C51.2232 68.5221 51.2777 68.7146 51.3866 68.8235C51.5028 68.9324 51.6553 68.9869 51.8442 68.9869C52.033 68.9869 52.1819 68.9324 52.2908 68.8235C52.407 68.7146 52.4651 68.5221 52.4651 68.2461V67.1568H53.598ZM58.8895 67.1568V68.1699C58.8895 68.7872 58.737 69.2629 58.432 69.5969C58.1342 69.9237 57.6912 70.0871 57.103 70.0871C56.5147 70.0871 56.0681 69.9237 55.7631 69.5969C55.4653 69.2629 55.3164 68.7872 55.3164 68.1699V64.2046C55.3164 63.5873 55.4653 63.1152 55.7631 62.7884C56.0681 62.4544 56.5147 62.2873 57.103 62.2873C57.6912 62.2873 58.1342 62.4544 58.432 62.7884C58.737 63.1152 58.8895 63.5873 58.8895 64.2046V64.9454H57.7566V64.1283C57.7566 63.8524 57.6985 63.6599 57.5823 63.551C57.4734 63.4348 57.3245 63.3767 57.1357 63.3767C56.9468 63.3767 56.7943 63.4348 56.6781 63.551C56.5692 63.6599 56.5147 63.8524 56.5147 64.1283V68.2461C56.5147 68.5221 56.5692 68.7146 56.6781 68.8235C56.7943 68.9324 56.9468 68.9869 57.1357 68.9869C57.3245 68.9869 57.4734 68.9324 57.5823 68.8235C57.6985 68.7146 57.7566 68.5221 57.7566 68.2461V67.1568H58.8895ZM64.5841 70H63.3749L63.1679 68.6165H61.6973L61.4903 70H60.39L61.6101 62.3745H63.364L64.5841 70ZM61.8498 67.5816H63.0045L62.4271 63.7253L61.8498 67.5816ZM69.6848 65.4574L71.1009 62.3745H72.2992L70.8286 65.4683L72.2992 70H71.0682L69.9789 66.623L69.6848 67.2003V70H68.4974V67.2003L68.2032 66.6121L67.1139 70H65.8829L67.3644 65.5009L65.8829 62.3745H67.0812L68.4974 65.4574V62.3745H69.6848V65.4574ZM75.0936 70H73.8953V62.3745H75.0936V65.6426H76.4553V62.3745H77.6754V70H76.4553V66.7319H75.0936V70ZM79.6336 70V62.3745H80.8319V65.2395H81.3984C82.0012 65.2395 82.4478 65.3993 82.7383 65.7188C83.036 66.0384 83.1849 66.5068 83.1849 67.1241V68.1154C83.1849 68.7327 83.036 69.2011 82.7383 69.5207C82.4478 69.8402 82.0012 70 81.3984 70H79.6336ZM81.3984 68.9106C81.5872 68.9106 81.7324 68.8598 81.8341 68.7581C81.9358 68.6565 81.9866 68.4676 81.9866 68.1917V67.0478C81.9866 66.7719 81.9358 66.583 81.8341 66.4814C81.7324 66.3797 81.5872 66.3289 81.3984 66.3289H80.8319V68.9106H81.3984ZM83.8712 70V62.3745H85.0695V70H83.8712ZM91.0294 62.3745L89.7767 66.0783L91.1166 70H89.8529L88.8725 66.9825L87.8812 70H86.7591L88.0991 66.0783L86.8463 62.3745H88.0882L88.9923 65.185L89.9183 62.3745H91.0294ZM97.1512 66.9607L96.7808 67.6579V70H95.5825V62.3745H96.7808V65.697L98.3495 62.3745H99.5478L97.8811 65.7733L99.5478 70H98.3168L97.1512 66.9607ZM102.947 62.3745C103.55 62.3745 103.997 62.5342 104.287 62.8538C104.585 63.1733 104.734 63.6418 104.734 64.2591V65.2504C104.734 65.8677 104.585 66.3361 104.287 66.6557C103.997 66.9752 103.55 67.135 102.947 67.135H102.381V70H101.183V62.3745H102.947ZM102.381 63.4638V66.0456H102.947C103.136 66.0456 103.281 65.9948 103.383 65.8931C103.485 65.7914 103.536 65.6026 103.536 65.3266V64.1828C103.536 63.9068 103.485 63.718 103.383 63.6163C103.281 63.5147 103.136 63.4638 102.947 63.4638H102.381ZM107.577 65.5881H109.222V66.6774H107.577V68.9106H109.646V70H106.378V62.3745H109.646V63.4638H107.577V65.5881ZM114.953 67.1568V68.1699C114.953 68.7872 114.801 69.2629 114.496 69.5969C114.198 69.9237 113.755 70.0871 113.167 70.0871C112.579 70.0871 112.132 69.9237 111.827 69.5969C111.529 69.2629 111.38 68.7872 111.38 68.1699V64.2046C111.38 63.5873 111.529 63.1152 111.827 62.7884C112.132 62.4544 112.579 62.2873 113.167 62.2873C113.755 62.2873 114.198 62.4544 114.496 62.7884C114.801 63.1152 114.953 63.5873 114.953 64.2046V64.9454H113.82V64.1283C113.82 63.8524 113.762 63.6599 113.646 63.551C113.537 63.4348 113.388 63.3767 113.199 63.3767C113.011 63.3767 112.858 63.4348 112.742 63.551C112.633 63.6599 112.579 63.8524 112.579 64.1283V68.2461C112.579 68.5221 112.633 68.7146 112.742 68.8235C112.858 68.9324 113.011 68.9869 113.199 68.9869C113.388 68.9869 113.537 68.9324 113.646 68.8235C113.762 68.7146 113.82 68.5221 113.82 68.2461V67.1568H114.953ZM117.968 65.5881H119.613V66.6774H117.968V68.9106H120.038V70H116.77V62.3745H120.038V63.4638H117.968V65.5881ZM121.532 68.9215C121.67 68.9215 121.783 68.9143 121.87 68.8997C121.964 68.8852 122.04 68.8525 122.099 68.8017C122.157 68.7436 122.197 68.6637 122.218 68.562C122.247 68.4531 122.266 68.3115 122.273 68.1372L122.469 62.3745H125.857V70H124.637V63.4638H123.591L123.46 68.0718C123.438 68.769 123.29 69.2665 123.014 69.5643C122.745 69.862 122.313 70.0109 121.717 70.0109H121.532V68.9215Z" fill="#313741"/>
</svg>
