<svg width="104" height="113" viewBox="0 0 104 113" fill="none" xmlns="http://www.w3.org/2000/svg">
<circle cx="53" cy="53" r="51" fill="#FFBD46"/>
<circle cx="15" cy="38" r="3.5" stroke="#313741" stroke-width="3"/>
<path d="M94.5 42L94.5 53M89 47.5H100" stroke="#313741" stroke-width="3" stroke-linecap="round"/>
<path d="M95.3916 91.6349C94.293 85.1265 89.6679 79.7861 83.3221 77.699L69.2356 73.0661V71H65.9612V74.0321L63.5169 83.6759L56.9042 75.8462H52.0958L45.4831 83.6759L43.0404 74.0321V71H39.766V73.0661L25.6795 77.699C19.3353 79.7861 14.7102 85.1265 13.61 91.6349L10 113H99L95.3916 91.6349ZM25.1867 109.769H13.8671L16.8402 92.1664C17.6523 87.3606 20.8268 83.3512 25.2538 81.3562L26.6602 95.2308L25.1867 109.769ZM80.5242 109.769H62.6983C62.7081 108.635 62.7261 107.545 62.754 106.538H77.4217V103.308H62.8882C62.9521 102.12 63.0257 101.046 63.1076 100.077H77.4217V96.8462H63.4449C63.8362 93.7963 64.234 92.5266 64.2422 92.504L62.6868 92L61.1331 91.4895C61.066 91.6898 59.5418 96.3971 59.4239 109.769H56.138V83.9231H52.8636V109.769H49.5777C49.4599 96.3971 47.9356 91.6898 47.8685 91.4895L44.7595 92.504C44.7676 92.5282 45.1655 93.7979 45.5568 96.8462H31.58V100.077H45.8924C45.9743 101.046 46.0479 102.12 46.1118 103.308H31.58V106.538H46.2477C46.2771 107.545 46.2935 108.635 46.3033 109.769H28.4775L29.951 95.2308L28.4284 80.1996L40.2441 76.3146L43.8721 90.6318L53.6298 79.0769H55.3702L65.1295 90.6318L68.7576 76.3146L80.5733 80.1996L79.0507 95.2308L80.5242 109.769ZM83.8149 109.769L82.3415 95.2308L83.7478 81.3562C88.1748 83.3512 91.351 87.359 92.1614 92.1664L95.1346 109.769H83.8149Z" fill="#313741"/>
<path d="M28.5089 42.5838C27.3584 43.98 26.6389 45.7378 26.6389 47.6757C26.6389 51.8368 29.8347 55.2357 33.9188 55.693C34.7547 58.5389 36.2985 61.1481 38.4749 63.3016L44.8666 69.6243C46.4137 71.1551 48.4722 72 50.6601 72H58.3416C60.5295 72 62.5879 71.1551 64.135 69.6243L70.5267 63.3016C72.7031 61.1481 74.247 58.5373 75.0828 55.693C79.1653 55.2357 82.3611 51.8368 82.3611 47.6757C82.3611 45.7378 81.6416 43.98 80.4911 42.5838C82.5135 41.9805 84 40.1416 84 37.9459C84 35.2638 81.7941 33.0811 79.0833 33.0811H78.8506C77.5444 23.5086 70.4841 15.4995 61.0556 12.913V12H47.9444V12.913C38.5159 15.4995 31.4539 23.5103 30.1494 33.0811H29.9167C27.2059 33.0811 25 35.2638 25 37.9459C25 40.1416 26.4865 41.9805 28.5089 42.5838ZM29.9167 47.6757C29.9167 45.5643 31.2917 43.7805 33.1944 43.1092V50.6886C33.1944 51.2189 33.2256 51.7443 33.2715 52.2665C31.3294 51.6162 29.9167 49.8146 29.9167 47.6757ZM72.5261 50.6886C72.5278 54.587 70.9938 58.2519 68.2077 61.0086L61.816 67.3313C60.9015 68.2378 59.6346 68.7568 58.3399 68.7568H50.6584C49.3637 68.7568 48.0985 68.2378 47.1824 67.3313L40.7907 61.0086C38.0046 58.2519 36.4706 54.587 36.4706 50.6886V42.8108H72.5261V50.6886ZM75.7285 52.2649C75.7744 51.7443 75.8056 51.2189 75.8056 50.6886V43.1092C77.7083 43.7805 79.0833 45.5643 79.0833 47.6757C79.0833 49.8146 77.6706 51.6162 75.7285 52.2649ZM47.9444 16.2908V29.8378H51.2222V15.2432H57.7778V29.8378H61.0556V16.2908C68.6518 18.7281 74.3207 25.273 75.5532 33.0811H33.4468C34.6793 25.273 40.3482 18.7281 47.9444 16.2908ZM29.9167 36.3243H79.0833C79.9864 36.3243 80.7222 37.0524 80.7222 37.9459C80.7222 38.8395 79.9864 39.5676 79.0833 39.5676H29.9167C29.0136 39.5676 28.2778 38.8395 28.2778 37.9459C28.2778 37.0524 29.0136 36.3243 29.9167 36.3243Z" fill="#313741"/>
<path d="M67 27H64V30H67V27Z" fill="#313741"/>
<path d="M44 27H41V30H44V27Z" fill="#313741"/>
<path d="M7 2L7 12M2 7H12" stroke="#313741" stroke-width="3" stroke-linecap="round"/>
</svg>
