<svg width="119" height="126" viewBox="0 0 119 126" fill="none" xmlns="http://www.w3.org/2000/svg">
<circle cx="68" cy="58" r="51" fill="#FFBD46"/>
<g clip-path="url(#clip0)">
<path d="M52.7347 55.4297C53.779 54.3965 54.8785 53.3765 56 52.3986L53.8743 50C52.6993 51.0223 51.5502 52.0906 50.4555 53.1722C46.4504 57.1406 42.9332 61.5706 40 66.3375L42.753 68C45.5508 63.4507 48.9098 59.2195 52.7347 55.4297Z" fill="#313741"/>
<path d="M41 71.6347L37.8503 70C37.2033 71.1577 36.5859 72.333 36 73.5268L39.2326 75C39.7924 73.8608 40.3826 72.7377 41 71.6347Z" fill="#313741"/>
<path d="M96.0747 25L85.9442 26.9937C70.5614 30.0704 56.567 37.5602 45.4714 48.6535C43.032 51.0929 40.7649 53.6758 38.6782 56.391C22.3374 57.8588 17.5708 69.8683 17.376 70.3886L17 71.3802L25.5945 79.9755L23.5046 84.4519L25.1215 86.0696L21.838 92.6367L33.3633 104.162L39.9304 100.878L41.5473 102.495L46.0245 100.406L54.6182 109L55.6098 108.624C56.1301 108.427 68.1412 103.661 69.6074 87.3202C72.321 85.2335 74.9039 82.9664 77.3449 80.527C88.4398 69.433 95.9296 55.4386 99.0063 40.055L100.969 30.2476L101 29.9253C101 27.2101 98.7899 25 96.0747 25ZM20.8808 70.6186C22.1338 68.2105 26.2855 61.9472 36.036 60.0617C33.6406 63.577 31.5163 67.279 29.7037 71.1654L27.0703 76.8082L20.8808 70.6186ZM34.0102 100.166L25.8342 91.9898L27.5697 88.5171L37.4829 98.4303L34.0102 100.166ZM55.3814 105.119L49.1902 98.9297L54.833 96.2963C58.7186 94.4837 62.423 92.3594 65.9383 89.9624C64.0544 99.7177 57.7847 103.868 55.3814 105.119ZM75.0234 78.2055C68.7456 84.4816 61.4851 89.568 53.4438 93.3197L42.2423 98.5489L27.4495 83.7561L32.6787 72.5546C36.432 64.5133 41.5168 57.2511 47.7929 50.975C56.9919 41.7761 68.2727 35.1697 80.6942 31.6433L94.3551 45.3042C90.8287 57.7273 84.2223 69.0081 75.0234 78.2055ZM95.7869 39.4104C95.6394 40.1472 95.4734 40.8799 95.3043 41.6102L84.3882 30.6941C85.1185 30.525 85.8512 30.359 86.588 30.2115L96.2077 28.2868C97.0054 28.3525 97.6443 28.9914 97.7092 29.7891L95.7869 39.4104Z" fill="#313741"/>
<path d="M33 85.883L40.1177 93L61 75.9146L50.0867 65L33 85.883ZM56.0488 75.6685L40.3427 88.5226L37.4818 85.6597L50.3327 69.9517L56.0488 75.6685Z" fill="#313741"/>
<path d="M71 42C63.8319 42 58 47.8327 58 55C58 62.1681 63.8319 68 71 68C78.1673 68 84 62.1681 84 55C84 47.8327 78.1673 42 71 42ZM71 64.75C65.6227 64.75 61.25 60.3773 61.25 55C61.25 49.6227 65.6227 45.25 71 45.25C76.3765 45.25 80.75 49.6227 80.75 55C80.75 60.3773 76.3765 64.75 71 64.75Z" fill="#313741"/>
<path d="M71.5 48C67.9152 48 65 50.9152 65 54.5C65 58.0848 67.9152 61 71.5 61C75.0848 61 78 58.0848 78 54.5C78 50.9152 75.0848 48 71.5 48ZM71.5 57.75C69.7076 57.75 68.25 56.2924 68.25 54.5C68.25 52.7076 69.7076 51.25 71.5 51.25C73.2924 51.25 74.75 52.7076 74.75 54.5C74.75 56.2924 73.2924 57.75 71.5 57.75Z" fill="#313741"/>
<path d="M62 124.515L65.5149 121L68 123.486L64.486 127L62 124.515Z" fill="#313741"/>
<path d="M97.7141 88L83.1519 102.562C82.5205 102.258 81.8219 102.075 81.0752 102.075C78.401 102.075 76.2256 104.251 76.2256 106.925C76.2256 107.671 76.4079 108.37 76.7118 109.002L67 118.714L69.2859 121L78.9977 111.288C79.63 111.592 80.3277 111.774 81.0752 111.774C83.7486 111.774 85.9248 109.599 85.9248 106.925C85.9248 106.178 85.7417 105.48 85.4378 104.848L100 90.2859L97.7141 88ZM81.0752 108.541C80.1841 108.541 79.4587 107.818 79.4587 106.925C79.4587 106.033 80.1841 105.308 81.0752 105.308C81.9656 105.308 82.6917 106.033 82.6917 106.925C82.6917 107.818 81.9656 108.541 81.0752 108.541Z" fill="#313741"/>
<path d="M0 124.515L3.51402 121L6 123.485L2.48513 127L0 124.515Z" fill="#313741"/>
<path d="M5 118.681L24.6809 99L27 101.319L7.31908 121L5 118.681Z" fill="#313741"/>
<path d="M13 119.514L16.5145 116L19 118.485L15.4855 122L13 119.514Z" fill="#313741"/>
<path d="M18 113.711L27.7105 104L30 106.289L20.2887 116L18 113.711Z" fill="#313741"/>
<path d="M5 110.514L8.51402 107L11 109.485L7.48513 113L5 110.514Z" fill="#313741"/>
<path d="M10 105.711L19.7113 96L22 98.2889L12.2887 108L10 105.711Z" fill="#313741"/>
<path d="M5 84.6494L11.6494 78L14 80.3506L7.35065 87L5 84.6494Z" fill="#313741"/>
<path d="M0 89.514L3.51487 86L6 88.4851L2.48513 92L0 89.514Z" fill="#313741"/>
<path d="M46 118.649L52.6494 112L55 114.351L48.3506 121L46 118.649Z" fill="#313741"/>
<path d="M41 124.514L44.5145 121L47 123.485L43.4855 127L41 124.514Z" fill="#313741"/>
<circle cx="47" cy="30" r="3.5" stroke="#313741" stroke-width="3"/>
</g>
<path d="M109.5 46L109.5 57M104 51.5H115" stroke="#313741" stroke-width="3" stroke-linecap="round"/>
<path d="M74 2L74 12M69 7H79" stroke="#313741" stroke-width="3" stroke-linecap="round"/>
<defs>
<clipPath id="clip0">
<rect width="101" height="101" fill="white" transform="translate(0 25)"/>
</clipPath>
</defs>
</svg>
