<svg width="20" height="20" viewBox="0 0 20 20" fill="none" xmlns="http://www.w3.org/2000/svg">
<g clip-path="url(#clip0)">
<path d="M19.4562 12.0035C19.5961 11.3426 19.6669 10.6697 19.6669 10C19.6669 7.41791 18.6613 4.99039 16.8356 3.16452C15.0098 1.33865 12.5822 0.333099 10.0002 0.333099C9.33167 0.333099 8.65875 0.4039 7.99683 0.543976C7.2493 0.187531 6.42242 0 5.59174 0C2.50839 0 0 2.50839 0 5.59158C0 6.42197 0.187531 7.24884 0.543976 7.99683C0.404205 8.65753 0.333405 9.33029 0.333405 10C0.333405 12.5821 1.33896 15.0096 3.16467 16.8355C4.99039 18.6612 7.41791 19.6667 10.0002 19.6667C10.6686 19.6667 11.3414 19.5958 12.0032 19.456C12.751 19.8125 13.5779 20 14.4086 20C17.4918 20 20 17.4916 20 14.4086C20 13.5782 19.8125 12.7513 19.4562 12.0035ZM14.4086 18.8281C13.6835 18.8281 12.9918 18.6574 12.3524 18.3205C12.2676 18.2758 12.1738 18.2529 12.0793 18.2529C12.0346 18.2529 11.9897 18.2581 11.9456 18.2684C11.304 18.4187 10.6496 18.4949 10.0002 18.4949C5.31601 18.4949 1.50528 14.6841 1.50528 10C1.50528 9.34937 1.58142 8.69492 1.73172 8.05481C1.76392 7.91733 1.74545 7.77283 1.67969 7.64786C1.34262 7.00806 1.17188 6.31622 1.17188 5.59158C1.17188 3.1546 3.1546 1.17188 5.59174 1.17188C6.31683 1.17188 7.00836 1.34262 7.6474 1.67938C7.77237 1.7453 7.91687 1.76376 8.05435 1.73157C8.69614 1.58127 9.35074 1.50497 10.0002 1.50497C14.6843 1.50497 18.495 5.31586 18.495 10C18.495 10.6506 18.4189 11.3052 18.2686 11.9455C18.2362 12.083 18.2547 12.2275 18.3205 12.3524C18.6574 12.9921 18.8281 13.6838 18.8281 14.4086C18.8281 16.8456 16.8456 18.8281 14.4086 18.8281Z" fill="#009FDD"/>
<path d="M10.0001 5.46988C11.7284 5.46988 13.1888 6.37289 13.1888 7.44177C13.1888 7.76541 13.4511 8.02771 13.7748 8.02771C14.0983 8.02771 14.3607 7.76541 14.3607 7.44177C14.3607 6.55814 13.8766 5.74362 12.9978 5.14807C12.1888 4.59982 11.1242 4.29785 10.0001 4.29785C8.87595 4.29785 7.81134 4.59982 7.00232 5.14807C6.12341 5.74362 5.6394 6.55814 5.6394 7.44177C5.6394 8.32541 6.12341 9.14008 7.00232 9.73563C7.81119 10.2839 8.87579 10.5857 10.0001 10.5857C11.7284 10.5857 13.1888 11.4887 13.1888 12.5577C13.1888 13.6266 11.7284 14.5296 10.0001 14.5296C8.27155 14.5296 6.81128 13.6266 6.81128 12.5577C6.81128 12.2341 6.54898 11.9718 6.22534 11.9718C5.90186 11.9718 5.6394 12.2341 5.6394 12.5577C5.6394 13.4412 6.12341 14.2559 7.00232 14.8514C7.81134 15.3995 8.87595 15.7015 10.0001 15.7015C11.1242 15.7015 12.1888 15.3995 12.9978 14.8514C13.8766 14.2559 14.3607 13.4412 14.3607 12.5577C14.3607 11.674 13.8766 10.8594 12.9978 10.2639C12.1888 9.71579 11.1242 9.41382 10.0001 9.41382C8.27155 9.41382 6.81128 8.5108 6.81128 7.44177C6.81128 6.37289 8.27155 5.46988 10.0001 5.46988Z" fill="#009FDD"/>
</g>
<defs>
<clipPath id="clip0">
<rect width="20" height="20" fill="white"/>
</clipPath>
</defs>
</svg>
