<svg width="80" height="68" viewBox="0 0 80 68" fill="none" xmlns="http://www.w3.org/2000/svg">
<circle cx="39" cy="29" r="28" fill="#FFBD46"/>
<mask id="mask0" mask-type="alpha" maskUnits="userSpaceOnUse" x="0" y="0" width="80" height="68">
<rect width="80" height="68" fill="#C4C4C4"/>
</mask>
<g mask="url(#mask0)">
<path d="M16 5V52.59C16 53.215 16.134 53.829 16.401 54.42C16.628 54.909 16.927 55.342 17.293 55.708L27.293 65.708C27.66 66.075 28.094 66.375 28.586 66.601C29.17 66.867 29.783 67.001 30.41 67.001H68V5H16ZM19.414 55H28V63.586L19.414 55ZM66 65H30.41C30.272 65 30.136 64.979 30 64.955V53H18.045C18.021 52.864 18 52.728 18 52.59V7H66V65Z" fill="#313741"/>
<path d="M22 36H32V38H22V36Z" fill="#313741"/>
<path d="M22 32H62V34H22V32Z" fill="#313741"/>
<path d="M22 27H28V29H22V27Z" fill="#313741"/>
<path d="M32 27H62V29H32V27Z" fill="#313741"/>
<path d="M52 21.333L54 18.667L56 21.333V23H58V20.667L55.25 17L58 13.333V11H56V12.667L54 15.333L52 12.667V11H50V13.333L52.75 17L50 20.667V23H52V21.333Z" fill="#313741"/>
<path d="M40 21H44V23H46V20L43.781 11H40.219L38.031 19.757L38 23H40V21ZM42.219 13L43.719 19H40.281L41.781 13H42.219Z" fill="#313741"/>
<path d="M30 23H32V13H36V11H26V13H30V23Z" fill="#313741"/>
<path d="M46 61C51.314 61 55.46 57.886 56.785 53H62V45H56.785C55.46 40.114 51.314 37 46 37C40.686 37 36.54 40.114 35.215 45H30V53H35.215C36.54 57.886 40.686 61 46 61ZM46 59C41.762 59 38.533 56.729 37.303 53H39.411C40.834 55.542 43.195 57 46 57C48.805 57 51.166 55.542 52.589 53H54.697C53.467 56.729 50.238 59 46 59ZM41.81 53H50.19C49.354 54.026 48.036 55 46 55C43.964 55 42.647 54.026 41.81 53ZM46 39C50.238 39 53.467 41.271 54.697 45H52.589C51.166 42.458 48.805 41 46 41C43.195 41 40.834 42.458 39.411 45H37.303C38.533 41.271 41.762 39 46 39ZM50.19 45H41.81C42.646 43.974 43.964 43 46 43C48.036 43 49.353 43.974 50.19 45ZM32 47H60V51H32V47Z" fill="#313741"/>
<path d="M4.5 22L4.5 27M2 24.5H7" stroke="#313741" stroke-width="1.2" stroke-linecap="round"/>
<rect x="5" y="37" width="4" height="4" transform="rotate(-45 5 37)" fill="#313741"/>
<path d="M76.5 8L76.5 13M74 10.5H79" stroke="#313741" stroke-width="1.2" stroke-linecap="round"/>
</g>
</svg>
