<svg width="20" height="20" viewBox="0 0 20 20" fill="none" xmlns="http://www.w3.org/2000/svg">
<g clip-path="url(#clip0)">
<path d="M0.345762 9.33L5.23659 11.7675C5.42576 11.8608 5.64909 11.8542 5.82993 11.7483L10.1833 9.2175L7.54826 11.5525C7.41409 11.6717 7.33743 11.8417 7.33743 12.0208V17.7083C7.33743 18.3083 8.10326 18.5608 8.46243 18.0842L10.5766 15.2733L15.8049 18.2508C16.1716 18.4617 16.6416 18.25 16.7266 17.8308L19.9874 1.58083C20.0849 1.0925 19.5991 0.694162 19.1474 0.875829L0.397428 8.18833C-0.105905 8.385 -0.138405 9.08916 0.345762 9.33ZM18.5374 2.45583L15.6716 16.7367L10.7174 13.915C10.4474 13.7608 10.0999 13.8292 9.90826 14.0825L8.58743 15.8383V12.3017L15.7133 5.98833C16.2774 5.48916 15.6291 4.60166 14.9849 4.98L5.49326 10.4983L2.16659 8.84083L18.5374 2.45583Z" fill="#2AA1DE"/>
</g>
<defs>
<clipPath id="clip0">
<rect width="20" height="20" fill="white"/>
</clipPath>
</defs>
</svg>
