<svg width="18" height="20" viewBox="0 0 18 20" fill="none" xmlns="http://www.w3.org/2000/svg">
<g clip-path="url(#clip0)">
<path d="M11.864 0C12.1503 0.0508607 12.4403 0.086072 12.7228 0.14867C15.467 0.747261 17.5625 3.04382 17.9251 5.88028C17.9938 6.42019 17.99 6.97183 17.9976 7.51565C18.009 8.39593 18.0014 9.2723 17.9976 10.1526C17.9861 13.4781 15.7533 16.2559 12.5663 16.8818C12.1503 16.964 11.7228 16.9875 11.2991 16.9914C10.2266 17.007 9.15407 16.9992 8.07774 16.9953C7.9327 16.9953 7.83728 17.0344 7.73804 17.1518C7.15026 17.8756 6.55865 18.5994 5.94797 19.3075C5.76094 19.5227 5.54339 19.73 5.29911 19.867C4.77621 20.1643 4.19606 19.9335 3.99759 19.3545C3.90598 19.0923 3.87545 18.795 3.86781 18.5133C3.84873 17.8639 3.85636 17.2105 3.86781 16.561C3.86781 16.4202 3.82965 16.3459 3.70369 16.2793C1.35255 14.9883 0.104456 12.9734 0.0204868 10.2347C-0.0138643 9.10798 0.0128533 7.98122 0.0166701 6.85837C0.0204868 3.56808 2.20369 0.813772 5.3411 0.13302C5.61972 0.0743349 5.90216 0.043036 6.18461 0C8.07774 0 9.97087 0 11.864 0ZM5.00904 18.6307C5.07774 18.5563 5.11209 18.5211 5.14262 18.482C5.78766 17.7034 6.43652 16.9288 7.07392 16.1424C7.25713 15.9155 7.46705 15.8216 7.74949 15.8216C8.92888 15.8294 10.1121 15.8333 11.2915 15.8216C11.677 15.8177 12.0701 15.7903 12.4441 15.7121C15.0472 15.1565 16.8411 12.8795 16.8487 10.1526C16.8525 9.05321 16.8525 7.95383 16.8487 6.85446C16.8487 6.59624 16.8373 6.33412 16.8029 6.0759C16.4174 3.2277 14.1197 1.17762 11.3182 1.17371C9.77621 1.1698 8.23041 1.15806 6.68842 1.18153C6.19224 1.18936 5.68079 1.24804 5.20369 1.38106C2.76858 2.06964 1.16171 4.26448 1.15789 6.85837C1.15407 7.95775 1.13117 9.05712 1.16171 10.1565C1.23041 12.6095 2.37163 14.3545 4.53957 15.3873C4.864 15.5399 5.01667 15.7512 5.01285 16.1189C4.99759 16.9405 5.00904 17.7582 5.00904 18.6307Z" fill="#8560FA"/>
<path d="M9.8664 14.6792C8.76716 14.6558 7.69846 14.2684 6.72136 13.6268C5.02671 12.5196 3.79388 11.0251 3.20228 9.0337C2.89693 8.00083 2.84732 6.95623 3.29006 5.94293C3.55342 5.34043 3.92747 4.82008 4.53434 4.54622C5.24808 4.22149 5.92747 4.33104 6.51907 4.85921C6.74808 5.06265 6.96182 5.28957 7.16793 5.5204C7.80152 6.22853 7.80915 7.30443 7.18701 8.02822C7.08777 8.14559 6.97327 8.25122 6.87022 8.36468C6.71373 8.53683 6.70991 8.71288 6.87403 8.88111C7.458 9.48753 8.04961 10.09 8.63739 10.6886C8.7977 10.849 8.96945 10.8412 9.14503 10.6847C9.33587 10.5126 9.50762 10.317 9.72136 10.1761C10.4275 9.71445 11.3244 9.81226 11.9351 10.3952C12.1374 10.5908 12.3359 10.7943 12.5267 11.0016C13.2099 11.7489 13.2099 12.8404 12.5305 13.5994C11.8931 14.3115 10.9847 14.6871 9.8664 14.6792ZM4.08777 7.53526C4.14503 7.88738 4.17938 8.2434 4.26716 8.58769C4.59159 9.85921 5.2977 10.8999 6.229 11.7763C7.2061 12.6996 8.31678 13.3647 9.67174 13.4899C10.4275 13.5603 11.1259 13.4038 11.6794 12.817C11.9504 12.5313 11.9695 12.1362 11.7175 11.8467C11.5305 11.6315 11.3321 11.432 11.1259 11.2403C10.855 10.9938 10.4771 11.0055 10.2061 11.252C10.1107 11.3381 10.0267 11.4359 9.9351 11.5259C9.33587 12.1206 8.46564 12.1479 7.86258 11.5572C7.229 10.939 6.61068 10.3013 6.00381 9.65185C5.458 9.06108 5.47327 8.18471 6.01144 7.58221C6.10304 7.48049 6.19846 7.3905 6.29007 7.28878C6.56869 6.98362 6.56869 6.57673 6.28625 6.27157C6.13739 6.11116 5.9809 5.95858 5.82823 5.80209C5.47709 5.44606 5.07632 5.44997 4.729 5.81382C4.28243 6.29113 4.12213 6.8819 4.08777 7.53526Z" fill="#8560FA"/>
<path d="M9.05343 2.33167C12.1145 2.44513 14.6946 4.92948 14.9924 8.05546C15.0114 8.27064 15.0229 8.4819 15.0267 8.69708C15.0305 9.04528 14.7901 9.3035 14.4695 9.30741C14.1488 9.31132 13.8931 9.06485 13.8893 8.71273C13.8817 8.16109 13.8053 7.6251 13.6374 7.10084C12.9542 4.98425 11.0878 3.56406 8.91221 3.49755C8.53434 3.48582 8.33587 3.36453 8.24427 3.09458C8.12595 2.73855 8.35877 2.36688 8.729 2.32776C8.83587 2.32384 8.94274 2.33167 9.05343 2.33167Z" fill="#8560FA"/>
<path d="M12.7481 8.52907C12.7481 8.62688 12.7595 8.72469 12.7443 8.81858C12.6985 9.11592 12.458 9.31545 12.1717 9.30763C11.8855 9.2998 11.6641 9.08462 11.6221 8.78728C11.5801 8.46647 11.5649 8.13392 11.4695 7.82875C11.1069 6.64331 10.0534 5.85301 8.8435 5.8178C8.458 5.80606 8.19846 5.5635 8.2061 5.21921C8.21373 4.87492 8.48472 4.64018 8.8664 4.64409C10.9313 4.67539 12.6183 6.35771 12.7481 8.52907Z" fill="#8560FA"/>
<path d="M8.84739 6.98335C9.73289 7.01074 10.4733 7.77756 10.4886 8.67741C10.4924 9.02561 10.2672 9.29165 9.94663 9.3073C9.62602 9.32686 9.37411 9.08429 9.34739 8.74C9.31685 8.38007 9.13746 8.19227 8.78632 8.15315C8.43136 8.11403 8.18708 7.8519 8.20998 7.53108C8.23288 7.19462 8.49242 6.97162 8.84739 6.98335Z" fill="#8560FA"/>
</g>
<defs>
<clipPath id="clip0">
<rect width="18" height="20" fill="white"/>
</clipPath>
</defs>
</svg>
