<svg width="29" height="31" viewBox="0 0 29 31" fill="none" xmlns="http://www.w3.org/2000/svg">
<g clip-path="url(#clip0)">
<path d="M14.6752 25.1875C18.8705 25.1875 17.3746 22.3484 17.6985 21.5321C17.6936 20.9224 17.6888 20.336 17.7081 19.9795C17.974 20.0596 18.6011 20.3993 19.8964 21.7452C21.8962 23.9023 22.4073 25.1875 24.0229 25.1875H26.9966C27.9391 25.1875 28.4297 24.7703 28.675 24.4202C28.9118 24.0818 29.1438 23.4877 28.89 22.5628C28.2267 20.336 24.3576 16.4907 24.1171 16.0851C24.1534 16.0102 24.2114 15.9107 24.2416 15.8591H24.2392C25.0028 14.7805 27.9173 10.1125 28.3463 8.24471C28.3475 8.24212 28.3487 8.23825 28.3487 8.23438C28.5807 7.38187 28.368 6.82904 28.1481 6.51646C27.817 6.04888 27.2902 5.8125 26.5785 5.8125H23.6048C22.6091 5.8125 21.8539 6.34854 21.4721 7.32633C20.8329 9.06362 19.0373 12.6364 17.6912 13.9009C17.6501 12.1094 17.6779 10.7415 17.6997 9.72496C17.7432 7.74225 17.8833 5.8125 15.9585 5.8125H11.2846C10.0787 5.8125 8.92475 7.22042 10.1742 8.89183C11.2665 10.3566 10.5669 11.1729 10.8025 15.2365C9.88417 14.1838 8.2505 11.3408 7.09533 7.70737C6.7715 6.72442 6.28092 5.81379 4.89979 5.81379H1.92608C0.720167 5.81379 0 6.51646 0 7.69317C0 10.3359 5.47254 25.1875 14.6752 25.1875ZM4.89979 7.75129C5.162 7.75129 5.18858 7.75129 5.38313 8.34158C6.56608 12.0655 9.21958 17.5757 11.1578 17.5757C12.6138 17.5757 12.6138 15.9805 12.6138 15.3799L12.6126 10.5981C12.5328 9.01583 11.9939 8.22792 11.6399 7.75L15.8787 7.75517C15.8811 7.77713 15.8545 13.0445 15.8908 14.3207C15.8908 16.1329 17.2369 17.1714 19.3382 14.8981C21.5555 12.223 23.0888 8.22404 23.1505 8.06129C23.2411 7.82879 23.3196 7.75 23.6048 7.75H26.5785H26.5906C26.5894 7.75387 26.5894 7.75775 26.5882 7.76162C26.3163 9.11787 23.6326 13.4398 22.7348 14.7818C22.7203 14.8025 22.707 14.8245 22.6937 14.8464C22.2986 15.5362 21.9772 16.2982 22.7481 17.3703H22.7493C22.8194 17.4607 23.0018 17.6726 23.2677 17.9671C24.0942 18.879 26.9289 21.9971 27.1803 23.2371C27.0135 23.2655 26.8323 23.2448 24.0229 23.2513C23.4248 23.2513 22.9571 22.2955 21.1724 20.3709C19.5677 18.702 18.5262 18.02 17.5776 18.02C15.7361 18.02 15.8703 19.6178 15.8872 21.5502C15.8932 23.6453 15.8811 22.9826 15.8944 23.1144C15.7869 23.1596 15.4788 23.25 14.6752 23.25C7.00833 23.25 2.0155 10.2416 1.82337 7.75517C1.88983 7.74871 2.80454 7.75258 4.89979 7.75129Z" fill="#3386CF"/>
</g>
<defs>
<clipPath id="clip0">
<rect width="29" height="31" fill="white"/>
</clipPath>
</defs>
</svg>
