<svg width="20" height="20" viewBox="0 0 20 20" fill="none" xmlns="http://www.w3.org/2000/svg">
<g clip-path="url(#clip0)">
<path d="M11.1084 15.0632C14.4834 15.8665 15.6709 12.9798 15.0759 11.9023C14.8375 11.4723 12.6959 10.6465 12.5917 10.6065C11.6717 10.2715 11.3317 10.8965 10.6942 11.719C9.47004 11.1065 8.64921 10.624 7.80587 9.25234C7.85337 9.19317 7.91671 9.12317 7.96421 9.06984C8.25921 8.73984 8.81171 8.12484 8.43504 7.37234C8.11837 6.7415 7.96087 6.3015 7.84504 5.979C7.50921 5.04484 7.25337 4.7915 6.09671 4.7915C4.89254 4.7915 3.95837 6.374 3.95837 7.7365C3.95837 10.7107 7.95671 14.3107 11.1084 15.0632ZM6.09671 6.0415C6.34671 6.0415 6.47337 6.04984 6.53671 6.05984C6.67171 6.34567 6.80837 6.94234 7.31171 7.87067C7.23337 8.16317 6.12087 8.849 6.63671 9.73567C7.69087 11.5257 8.74587 12.1465 10.2575 12.8982C11.2642 13.3532 11.5859 12.529 12.2242 11.8048C12.52 11.9248 13.5184 12.3665 13.9567 12.5882C13.9175 13.4515 13.0842 14.2482 11.3984 13.8465C8.50504 13.1557 5.20754 9.90067 5.20754 7.73567C5.20837 6.91234 5.78587 6.0415 6.09671 6.0415Z" fill="#40B66F"/>
<path d="M0.0691433 19.2377C-0.0400233 19.6327 0.25581 20.0285 0.671643 20.0285C0.821643 20.0285 0.576643 20.0668 5.54498 18.7785C7.56748 19.8085 9.10498 19.776 10.0866 19.8685C18.8825 19.8685 23.1908 9.141 17.1375 2.89933C8.83998 -5.12067 -4.08252 4.846 1.32498 14.6718L0.0691433 19.2377ZM16.1425 3.67767C16.2866 3.941 20.4216 7.67017 18.1191 13.2427C16.7016 16.676 13.4308 18.7918 9.76581 18.5935C6.78414 18.4277 6.01248 17.3627 5.46331 17.5085L1.56081 18.5252L2.59831 14.7552C2.64331 14.5935 2.62081 14.421 2.53748 14.276C-2.44836 5.67267 8.82581 -3.17317 16.1425 3.67767Z" fill="#40B66F"/>
</g>
<defs>
<clipPath id="clip0">
<rect width="20" height="20" fill="white"/>
</clipPath>
</defs>
</svg>
