<svg width="86" height="16" viewBox="0 0 86 16" fill="none" xmlns="http://www.w3.org/2000/svg">
<path d="M85.3536 8.35356C85.5488 8.1583 85.5488 7.84172 85.3536 7.64645L82.1716 4.46447C81.9763 4.26921 81.6597 4.26921 81.4645 4.46447C81.2692 4.65974 81.2692 4.97632 81.4645 5.17158L84.2929 8.00001L81.4645 10.8284C81.2692 11.0237 81.2692 11.3403 81.4645 11.5355C81.6597 11.7308 81.9763 11.7308 82.1716 11.5355L85.3536 8.35356ZM-4.37114e-08 8.5L1.93182 8.5L1.93182 7.5L4.37114e-08 7.5L-4.37114e-08 8.5ZM5.79545 8.5L9.65909 8.5L9.65909 7.5L5.79545 7.5L5.79545 8.5ZM13.5227 8.5L17.3864 8.5L17.3864 7.5L13.5227 7.5L13.5227 8.5ZM21.25 8.5L25.1136 8.5L25.1136 7.5L21.25 7.5L21.25 8.5ZM28.9773 8.5L32.8409 8.5L32.8409 7.5L28.9773 7.5L28.9773 8.5ZM36.7045 8.5L40.5682 8.5L40.5682 7.5L36.7045 7.5L36.7045 8.5ZM44.4318 8.5L48.2955 8.5L48.2955 7.5L44.4318 7.5L44.4318 8.5ZM52.1591 8.5L56.0227 8.5L56.0227 7.5L52.1591 7.5L52.1591 8.5ZM59.8864 8.50001L63.75 8.50001L63.75 7.50001L59.8864 7.50001L59.8864 8.50001ZM67.6136 8.50001L71.4773 8.50001L71.4773 7.50001L67.6136 7.50001L67.6136 8.50001ZM75.3409 8.50001L79.2046 8.50001L79.2046 7.50001L75.3409 7.50001L75.3409 8.50001ZM83.0682 8.50001L85 8.50001L85 7.50001L83.0682 7.50001L83.0682 8.50001ZM85.7071 8.70711C86.0976 8.31659 86.0976 7.68343 85.7071 7.2929L79.3431 0.928939C78.9526 0.538415 78.3195 0.538415 77.9289 0.928939C77.5384 1.31946 77.5384 1.95263 77.9289 2.34315L83.5858 8.00001L77.9289 13.6569C77.5384 14.0474 77.5384 14.6806 77.9289 15.0711C78.3195 15.4616 78.9526 15.4616 79.3431 15.0711L85.7071 8.70711ZM-8.74228e-08 9L1.93182 9L1.93182 7L8.74228e-08 7L-8.74228e-08 9ZM5.79545 9L9.65909 9L9.65909 7L5.79545 7L5.79545 9ZM13.5227 9L17.3864 9L17.3864 7L13.5227 7L13.5227 9ZM21.25 9L25.1136 9L25.1136 7L21.25 7L21.25 9ZM28.9773 9L32.8409 9L32.8409 7L28.9773 7L28.9773 9ZM36.7045 9L40.5682 9L40.5682 7L36.7045 7L36.7045 9ZM44.4318 9L48.2955 9L48.2955 7L44.4318 7L44.4318 9ZM52.1591 9L56.0227 9L56.0227 7L52.1591 7L52.1591 9ZM59.8864 9.00001L63.75 9.00001L63.75 7.00001L59.8864 7.00001L59.8864 9.00001ZM67.6136 9.00001L71.4773 9.00001L71.4773 7.00001L67.6136 7.00001L67.6136 9.00001ZM75.3409 9.00001L79.2046 9.00001L79.2046 7.00001L75.3409 7.00001L75.3409 9.00001ZM83.0682 9.00001L85 9.00001L85 7.00001L83.0682 7.00001L83.0682 9.00001Z" fill="#6F7784"/>
</svg>
