<svg width="30" height="30" viewBox="0 0 30 30" fill="none" xmlns="http://www.w3.org/2000/svg">
<path d="M8.90625 10.7812C10.7156 10.7812 12.1875 9.30937 12.1875 7.5C12.1875 5.69063 10.7156 4.21875 8.90625 4.21875C7.09688 4.21875 5.625 5.69063 5.625 7.5C5.625 9.30937 7.09688 10.7812 8.90625 10.7812ZM8.90625 5.15625C10.1986 5.15625 11.25 6.20766 11.25 7.5C11.25 8.79234 10.1986 9.84375 8.90625 9.84375C7.61391 9.84375 6.5625 8.79234 6.5625 7.5C6.5625 6.20766 7.61391 5.15625 8.90625 5.15625Z" fill="#313741"/>
<path d="M29.1656 8.4375C29.3906 8.18813 29.5312 7.86141 29.5312 7.5C29.5312 6.72469 28.9003 6.09375 28.125 6.09375H25.7812C25.523 6.09375 25.3125 5.88328 25.3125 5.625V2.92641C25.3125 2.12344 24.9998 1.36828 24.4317 0.800156C24.218 0.586406 23.9339 0.46875 23.6316 0.46875C23.0077 0.46875 22.5 0.976406 22.5 1.60031V3.28125C22.5 4.88531 21.7031 6.37406 20.3686 7.26375C20.1366 7.41844 19.867 7.5 19.5886 7.5H19.2188V6.5625H15V5.72766L13.8675 5.445L14.468 4.44469L11.9616 1.93828L10.9613 2.53875L10.6786 1.40625H7.13391L6.85125 2.53875L5.85094 1.93828L3.34406 4.44422L3.94453 5.44453L2.8125 5.72766V7.76859C1.30359 9.34594 0.46875 11.4033 0.46875 13.5938V13.9936C0.46875 15.6647 0.958594 17.2828 1.88578 18.6741L5.15625 23.5795V25.7812C5.15625 27.8489 6.83859 29.5312 8.90625 29.5312C10.9739 29.5312 12.6562 27.8489 12.6562 25.7812V23.5795L15.9267 18.6736C16.6659 17.5645 17.122 16.3097 17.2786 15H19.2188V14.0625H19.5769L20.0194 14.2838C20.2102 14.3794 20.4155 14.4445 20.625 14.4848V24.4856L22.8084 28.8525C23.0175 29.2711 23.4384 29.5312 23.9062 29.5312C24.3741 29.5312 24.795 29.2711 25.0041 28.853L27.1875 24.4856V14.5312H28.125C28.9003 14.5312 29.5312 13.9003 29.5312 13.125C29.5312 12.7636 29.3902 12.4369 29.1656 12.1875C29.3906 11.9381 29.5312 11.6114 29.5312 11.25C29.5312 10.8886 29.3902 10.5619 29.1656 10.3125C29.3906 10.0631 29.5312 9.73641 29.5312 9.375C29.5312 9.01359 29.3902 8.68688 29.1656 8.4375ZM3.75 6.45984L4.89656 6.17344L5.13188 5.60063L4.52484 4.58953L5.99578 3.11859L7.00734 3.72609L7.58016 3.49078L7.86609 2.34375H9.94641L10.2328 3.49031L10.8056 3.72563L11.8172 3.11812L13.2881 4.58906L12.6806 5.60063L12.9159 6.17344L14.0625 6.45984V8.54016L12.9159 8.82656L12.6802 9.39844L13.2877 10.4109L11.8167 11.8819L10.8052 11.2744L10.2323 11.5097L9.94641 12.6562H7.86609L7.57969 11.5097L7.00688 11.2744L5.99531 11.8819L4.52437 10.4109L5.13188 9.39844L4.8975 8.82703L3.75 8.54016V6.45984ZM6.09375 23.9062H11.7188V24.8438H6.09375V23.9062ZM7.03125 16.4062H6.09375C5.57672 16.4062 5.15625 15.9858 5.15625 15.4688C5.15625 14.9517 5.57672 14.5312 6.09375 14.5312C6.61078 14.5312 7.03125 14.9517 7.03125 15.4688V16.4062ZM9.84375 22.9688H7.96875V17.3438H9.84375V22.9688ZM8.90625 28.5938C7.35516 28.5938 6.09375 27.3323 6.09375 25.7812H11.7188C11.7188 27.3323 10.4573 28.5938 8.90625 28.5938ZM16.4062 13.9936C16.4062 15.4786 15.9708 16.9177 15.1467 18.1537L11.9367 22.9688H10.7812V17.3438H11.7188C12.7528 17.3438 13.5938 16.5028 13.5938 15.4688C13.5938 14.4347 12.7528 13.5938 11.7188 13.5938C10.6847 13.5938 9.84375 14.4347 9.84375 15.4688V16.4062H7.96875V15.4688C7.96875 14.4347 7.12781 13.5938 6.09375 13.5938C5.05969 13.5938 4.21875 14.4347 4.21875 15.4688C4.21875 16.5028 5.05969 17.3438 6.09375 17.3438H7.03125V22.9688H5.87578L2.66578 18.1542C1.84172 16.9177 1.40625 15.4786 1.40625 13.9936V13.5938C1.40625 12.0052 1.90359 10.4967 2.8125 9.2325V9.27281L3.945 9.55547L3.34453 10.5558L5.85094 13.0622L6.85125 12.4617L7.13391 13.5938H10.6786L10.9613 12.4613L11.9616 13.0617L14.468 10.5553L13.8675 9.555L15 9.27234V9.23203C15.9089 10.4967 16.4062 12.0052 16.4062 13.5933V13.9936ZM10.7812 16.4062V15.4688C10.7812 14.9517 11.2017 14.5312 11.7188 14.5312C12.2358 14.5312 12.6562 14.9517 12.6562 15.4688C12.6562 15.9858 12.2358 16.4062 11.7188 16.4062H10.7812ZM18.2812 14.0625H17.3414C17.3414 14.0395 17.3438 14.0166 17.3438 13.9936V13.5938C17.3438 11.4038 16.5094 9.345 15 7.76813V7.5H18.2812V14.0625ZM21.5625 23.9062V14.5312H23.4375V23.9062H21.5625ZM24.1655 28.4334C24.0666 28.6313 23.7459 28.6313 23.6475 28.4334L21.8522 24.8438H25.9603L24.1655 28.4334ZM26.25 23.9062H24.375V14.5312H26.25V23.9062ZM28.125 13.5938H21.0675C20.8505 13.5938 20.633 13.5427 20.4384 13.4452L19.7981 13.125H19.2188V8.4375H19.5886C20.0527 8.4375 20.5022 8.30109 20.8884 8.04375C22.4845 6.97969 23.4375 5.19938 23.4375 3.28125V1.60031C23.4375 1.44188 23.6573 1.35094 23.7689 1.46297C24.1598 1.85391 24.375 2.37328 24.375 2.92641V5.625C24.375 6.40031 25.0059 7.03125 25.7812 7.03125H28.125C28.3833 7.03125 28.5938 7.24172 28.5938 7.5C28.5938 7.75828 28.3833 7.96875 28.125 7.96875H26.7188V8.90625H28.125C28.3833 8.90625 28.5938 9.11672 28.5938 9.375C28.5938 9.63328 28.3833 9.84375 28.125 9.84375H26.7188V10.7812H28.125C28.3833 10.7812 28.5938 10.9917 28.5938 11.25C28.5938 11.5083 28.3833 11.7188 28.125 11.7188H26.7188V12.6562H28.125C28.3833 12.6562 28.5938 12.8667 28.5938 13.125C28.5938 13.3833 28.3833 13.5938 28.125 13.5938Z" fill="#313741"/>
</svg>
