<svg width="31" height="31" viewBox="0 0 31 31" fill="none" xmlns="http://www.w3.org/2000/svg">
<path d="M30.4395 18.7324L29.7839 18.0769L30.2791 17.511C30.7439 16.9805 31 16.3 31 15.594C31 14.7544 30.6375 13.9561 30.0061 13.4031L27.1216 10.8794C26.8774 10.6655 26.5974 10.5056 26.29 10.4031C25.4126 10.1084 24.4585 10.334 23.803 10.9895L22.8535 11.939C22.4971 12.2959 22.0039 12.5 21.5 12.5C20.9961 12.5 20.5029 12.2959 20.1465 11.9395L19.0605 10.8535C18.7041 10.4971 18.5 10.0039 18.5 9.5C18.5 8.99609 18.7041 8.50293 19.0605 8.14648L20.01 7.19702C20.6655 6.54199 20.8899 5.58911 20.5964 4.70996C20.4939 4.40259 20.334 4.12256 20.1206 3.87891L17.5964 0.993896C17.0439 0.362549 16.2451 0 15.406 0C14.7004 0 14.02 0.256104 13.4895 0.719971L11.603 2.37109C10.584 3.26196 10 4.54956 10 5.9021C10 6.27295 10.0491 6.64111 10.1355 7H1.5C0.673096 7 0 7.6731 0 8.5V25.5C0 26.3269 0.673096 27 1.5 27H15V27.5C15 28.3269 15.6731 29 16.5 29H17V29.5C17 30.3269 17.6731 31 18.5 31H23C23.8269 31 24.5 30.3269 24.5 29.5V28C24.5 27.4485 24.9485 27 25.5 27C26.0515 27 26.5 27.4485 26.5 28V29C26.5 30.103 27.397 31 28.5 31C29.603 31 30.5 30.103 30.5 29V21.3645C30.8076 21.0249 31 20.5791 31 20.0859C31 19.5745 30.801 19.094 30.4395 18.7324ZM29.7324 19.4395C29.9026 19.6096 30 19.845 30 20.0859C30 20.5901 29.5901 21 29.0859 21C28.8455 21 28.6096 20.9026 28.4395 20.7324L27.834 20.127C28.1106 19.927 28.3669 19.697 28.5955 19.4355L29.124 18.8315L29.7324 19.4395ZM25.9734 11.3516C26.1545 11.4121 26.3191 11.5066 26.4629 11.6326L29.3479 14.1565C29.762 14.519 30 15.043 30 15.594C30 15.928 29.9094 16.2524 29.7461 16.5391L24.7346 11.5276C25.0974 11.2849 25.5486 11.2104 25.9734 11.3516ZM16.844 1.65259L19.3684 4.53809C19.4939 4.68091 19.5879 4.84546 19.6489 5.0271C19.7915 5.4541 19.7229 5.90894 19.479 6.27197L14.4604 1.25342C14.7471 1.09058 15.0715 1 15.406 1C15.957 1 16.481 1.23804 16.844 1.65259ZM12.2605 3.12402L13.677 1.88452L18.793 7L18.3535 7.43945C17.811 7.98193 17.5 8.73291 17.5 9.5C17.5 10.2671 17.811 11.0181 18.3535 11.5605L19.4395 12.6465C19.9819 13.189 20.7329 13.5 21.5 13.5C22.2671 13.5 23.0181 13.189 23.5605 12.6465L24 12.207L29.1155 17.3225L27.8425 18.7771C27.1631 19.554 26.1809 20 25.1484 20C24.4895 20 23.8435 19.8186 23.281 19.4746L22.156 18.7871C17.718 16.0745 14.0244 12.2451 11.4746 7.71191C11.1641 7.15991 11 6.53394 11 5.9021C11 4.8374 11.4595 3.82446 12.2605 3.12402ZM16.7986 16H15V14.1985C15.5779 14.8201 16.1726 15.4265 16.7986 16ZM19 18H15V17H17.9624C18.302 17.2815 18.6489 17.5535 19 17.8206V18ZM15 23H19V24H15V23ZM19 22H15V21H19V22ZM19 20H15V19H19V20ZM1 25.5V8.5C1 8.22412 1.22412 8 1.5 8H10.5056C10.5391 8.06689 10.5659 8.13696 10.6025 8.2019C11.5791 9.93799 12.7195 11.5725 14 13.0869V25H20V18.5681C20.3264 18.7964 20.665 19.0081 21 19.2246V25.5C21 25.7759 20.7759 26 20.5 26H1.5C1.22412 26 1 25.7759 1 25.5ZM16 27.5V27H19V27.5C19 27.7759 18.7759 28 18.5 28H16.5C16.2241 28 16 27.7759 16 27.5ZM28.5 30C27.9485 30 27.5 29.5515 27.5 29V28C27.5 26.897 26.603 26 25.5 26C24.397 26 23.5 26.897 23.5 28V29.5C23.5 29.7759 23.2759 30 23 30H18.5C18.2241 30 18 29.7759 18 29.5V29H18.5C19.3269 29 20 28.3269 20 27.5V27H20.5C21.3269 27 22 26.3269 22 25.5V19.864L22.7595 20.3279C23.479 20.7676 24.3049 21 25.1484 21C25.7676 21 26.3706 20.8706 26.928 20.635L27.7324 21.4395C28.094 21.801 28.5745 22 29.0859 22C29.2285 22 29.3665 21.9819 29.5 21.9519V29C29.5 29.5515 29.0515 30 28.5 30Z" fill="#313741"/>
</svg>
