<svg width="30" height="30" viewBox="0 0 30 30" fill="none" xmlns="http://www.w3.org/2000/svg">
<g clip-path="url(#clip0)">
<path d="M25.8196 18.8709L24.8791 16.9901C25.0786 16.5853 25.2495 16.1763 25.3899 15.7692L27.3809 15.1053V9.65658L25.3899 8.99275C25.2499 8.58562 25.0786 8.17662 24.8791 7.77182L25.8205 5.88914L21.968 2.0366L20.0853 2.97806C19.6805 2.77856 19.2715 2.60719 18.8644 2.46722L18.2005 0.476196H12.7518L12.088 2.46722C11.6808 2.60719 11.2718 2.77856 10.867 2.97806L8.98435 2.0366L5.13181 5.88914L6.07326 7.77182C5.87376 8.17662 5.7024 8.58562 5.56242 8.99275L3.5714 9.65658V15.1049L5.56242 15.7685C5.70147 16.1728 5.87051 16.5781 6.06814 16.9796L5.4557 18.0952H2.61902V27.6191H5.95235V26.1905H9.5647L10.9933 27.6191H13.5714V28.0952C13.5714 29.1457 14.4257 30 15.4762 30C16.5267 30 17.3809 29.1457 17.3809 28.0952V27.6191H20.7147C21.5023 27.6191 22.1433 26.978 22.1433 26.1905C22.1433 25.8233 22.0001 25.4915 21.772 25.2381C22.0005 24.9847 22.1433 24.6529 22.1433 24.2857C22.1433 23.9186 22.0001 23.5868 21.772 23.3333C21.9538 23.1315 22.078 22.8795 22.1214 22.5986L25.8196 18.8709ZM7.02913 16.7685C6.76708 16.2654 6.5534 15.7538 6.39367 15.249L6.32042 15.0177L4.52378 14.4185V10.343L6.32042 9.74424L6.3932 9.51242C6.55224 9.0081 6.76615 8.49656 7.02843 7.9934L7.1405 7.77763L6.29043 6.07725L9.17199 3.19569L10.8724 4.04576L11.0881 3.93392C11.5918 3.67142 12.1028 3.45773 12.6072 3.29846L12.839 3.22568L13.4386 1.42858H17.5142L18.1129 3.22522L18.3447 3.298C18.849 3.45704 19.3606 3.67095 19.8637 3.93323L20.0795 4.0453L21.7799 3.19523L24.6614 6.07678L23.8114 7.77716L23.9232 7.99294C24.1857 8.49656 24.3994 9.00763 24.5587 9.51196L24.6314 9.74377L26.4285 10.3434V14.419L24.6319 15.0177L24.5587 15.249C24.3989 15.7538 24.1852 16.2654 23.9232 16.7685L23.8114 16.9843L24.6624 18.6858L21.8485 21.5213C21.8243 21.4895 21.7985 21.4581 21.772 21.4286C22.0005 21.1751 22.1433 20.8433 22.1433 20.4762C22.1433 19.7333 21.5713 19.1285 20.8461 19.0609C22.8662 17.4419 24.0476 15.0123 24.0476 12.381C24.0476 7.65486 20.2023 3.80953 15.4762 3.80953C10.7501 3.80953 6.90473 7.65486 6.90473 12.381C6.90473 14.9805 8.08661 17.4258 10.0927 19.0476H6.01955L7.14655 16.9943L7.02913 16.7685ZM21.1909 24.2857C21.1909 24.5485 20.977 24.7619 20.7147 24.7619H16.9047C16.6425 24.7619 16.4285 24.5485 16.4285 24.2857C16.4285 24.023 16.6425 23.8095 16.9047 23.8095H20.7147C20.977 23.8095 21.1909 24.023 21.1909 24.2857ZM14.3266 12.381H16.6257L17.3809 11.6257V9.52382C17.9062 9.52382 18.3333 9.95094 18.3333 10.4762V12.66L16.7076 14.2857H14.2448L12.619 12.66V10.4762C12.619 9.95094 13.0461 9.52382 13.5714 9.52382V11.6257L14.3266 12.381ZM14.5238 15.2381H16.4285V17.1429H14.5238V15.2381ZM17.3809 14.9591L19.2857 13.0543V10.4762C19.2857 9.42569 18.4314 8.57143 17.3809 8.57143H16.4285V11.2314L16.2314 11.4286H14.721L14.5238 11.2314V8.57143H13.5714C12.5209 8.57143 11.6666 9.42569 11.6666 10.4762V13.0543L13.5714 14.9591V17.1429H12.4218L12.3919 17.1729C10.7661 16.1237 9.76188 14.3252 9.76188 12.381C9.76188 9.22992 12.3251 6.66667 15.4762 6.66667C18.6272 6.66667 21.1904 9.22992 21.1904 12.381C21.1904 14.3111 20.2262 16.0786 18.6123 17.1429H17.3809V14.9591ZM22.1428 12.381C22.1428 8.70467 19.1525 5.71429 15.4762 5.71429C11.7999 5.71429 8.8095 8.70467 8.8095 12.381C8.8095 14.5805 9.90371 16.6285 11.6985 17.8662L11.0128 18.5519C9.03527 17.1196 7.85711 14.8272 7.85711 12.381C7.85711 8.18011 11.2753 4.76191 15.4762 4.76191C19.677 4.76191 23.0952 8.18011 23.0952 12.381C23.0952 14.7342 22.0315 16.9057 20.2153 18.3452C20.1609 18.0076 19.9886 17.7123 19.741 17.4977C21.2586 16.2377 22.1428 14.3824 22.1428 12.381ZM20.7147 20C20.977 20 21.1909 20.2135 21.1909 20.4762C21.1909 20.7389 20.977 20.9524 20.7147 20.9524H16.9047C16.6425 20.9524 16.4285 20.7389 16.4285 20.4762C16.4285 20.2135 16.6425 20 16.9047 20H20.7147ZM16.9047 22.8571C16.6425 22.8571 16.4285 22.6437 16.4285 22.381C16.4285 22.1182 16.6425 21.9048 16.9047 21.9048H20.7147C20.977 21.9048 21.1909 22.1182 21.1909 22.381C21.1909 22.6437 20.977 22.8571 20.7147 22.8571H16.9047ZM4.99997 26.6667H3.5714V19.0476H4.99997V26.6667ZM11.3876 26.6667L9.95905 25.2381H5.95235V20H10.9114L12.8162 18.0952H18.8095C19.0718 18.0952 19.2857 18.3087 19.2857 18.5714C19.2857 18.8342 19.0718 19.0476 18.8095 19.0476H13.8504L11.8061 21.0919L12.4795 21.7653L13.5714 20.6734V26.6667H11.3876ZM15.4762 29.0476C14.9509 29.0476 14.5238 28.6205 14.5238 28.0952V20H15.5638C15.5103 20.1495 15.4762 20.3086 15.4762 20.4762C15.4762 20.8433 15.6194 21.1751 15.8475 21.4286C15.6189 21.682 15.4762 22.0138 15.4762 22.381C15.4762 22.7481 15.6194 23.0799 15.8475 23.3333C15.6189 23.5868 15.4762 23.9186 15.4762 24.2857C15.4762 24.6529 15.6194 24.9847 15.8475 25.2381C15.6189 25.4915 15.4762 25.8233 15.4762 26.1905C15.4762 26.8104 15.8756 27.3342 16.4285 27.5314V28.0952C16.4285 28.6205 16.0014 29.0476 15.4762 29.0476ZM20.7147 26.6667H16.9047C16.6425 26.6667 16.4285 26.4532 16.4285 26.1905C16.4285 25.9277 16.6425 25.7143 16.9047 25.7143H20.7147C20.977 25.7143 21.1909 25.9277 21.1909 26.1905C21.1909 26.4532 20.977 26.6667 20.7147 26.6667Z" fill="#313741"/>
</g>
<defs>
<clipPath id="clip0">
<rect width="30" height="30" fill="white"/>
</clipPath>
</defs>
</svg>
