<svg width="30" height="30" viewBox="0 0 30 30" fill="none" xmlns="http://www.w3.org/2000/svg">
<path d="M25.9993 18.811C27.721 17.8271 28.7903 15.9848 28.7903 14.0023V12.5806C29.3241 12.5806 29.7581 12.1466 29.7581 11.6129V10.6452C29.7581 10.1114 29.3241 9.67742 28.7903 9.67742H24.4355V3.3871C24.4355 2.58687 23.7841 1.93548 22.9839 1.93548H21.5323V0.967742C21.5323 0.434019 21.0982 0 20.5645 0H19.5968C19.0631 0 18.629 0.434019 18.629 0.967742V1.93548H17.6613V0.967742C17.6613 0.434019 17.2273 0 16.6936 0H15.7258C15.1921 0 14.7581 0.434019 14.7581 0.967742V1.93548H13.7903V0.967742C13.7903 0.434019 13.3563 0 12.8226 0H11.8548C11.3211 0 10.8871 0.434019 10.8871 0.967742V1.93548H9.91936V0.967742C9.91936 0.434019 9.48534 0 8.95162 0H7.98388C7.45016 0 7.01614 0.434019 7.01614 0.967742V1.93548H6.0484V0.967742C6.0484 0.434019 5.61438 0 5.08065 0H4.11291C3.57919 0 3.14517 0.434019 3.14517 0.967742V1.93548H1.69356C0.893326 1.93548 0.241943 2.58687 0.241943 3.3871V20.8065C0.241943 21.6067 0.893326 22.2581 1.69356 22.2581H18.3635C17.61 23.2194 17.1774 24.4185 17.1774 25.6752V27.0968C16.6437 27.0968 16.2097 27.5308 16.2097 28.0645V29.0323C16.2097 29.566 16.6437 30 17.1774 30H28.7903C29.3241 30 29.7581 29.566 29.7581 29.0323V28.0645C29.7581 27.5308 29.3241 27.0968 28.7903 27.0968V25.6752C28.7903 23.6927 27.721 21.8503 25.9993 20.8665C25.6322 20.656 25.4032 20.2626 25.4032 19.8387C25.4032 19.4149 25.6322 19.0215 25.9993 18.811ZM27.8226 14.0023C27.8226 14.0564 27.8138 14.1088 27.812 14.1624C27.6338 14.3328 27.4732 14.5128 27.3257 14.6947C26.9158 15.1989 26.6578 15.4839 26.1272 15.4839C25.5963 15.4839 25.339 15.1989 24.9291 14.6947C24.5139 14.1837 23.9977 13.5484 22.9806 13.5484C21.9639 13.5484 21.4477 14.1842 21.0323 14.6952C20.6231 15.1989 20.3656 15.4839 19.8354 15.4839C19.3059 15.4839 19.0491 15.1989 18.6397 14.6952C18.4901 14.5107 18.3358 14.3231 18.1549 14.1513C18.1534 14.101 18.1452 14.0526 18.1452 14.0023V12.5806H27.8226V14.0023ZM19.3355 21.2903H5.08065V20.3226H20.4504C20.3493 20.5461 20.1877 20.7412 19.9684 20.8665C19.7459 20.9938 19.5354 21.136 19.3355 21.2903ZM20.5645 9.67742H18.629V8.70968H20.5645V9.67742ZM17.6613 9.67742H17.1774C16.6437 9.67742 16.2097 10.1114 16.2097 10.6452H15.7258V8.70968H17.6613V9.67742ZM15.7258 19.3548V17.4194H17.6613V19.3548H15.7258ZM5.08065 17.4194H6.0484V19.3548H5.08065V17.4194ZM7.01614 17.4194H8.95162V19.3548H7.01614V17.4194ZM12.8226 14.5161H14.7581V16.4516H12.8226V14.5161ZM11.8548 16.4516H9.91936V14.5161H11.8548V16.4516ZM12.8226 13.5484V11.6129H14.7581V13.5484H12.8226ZM11.8548 13.5484H9.91936V11.6129H11.8548V13.5484ZM8.95162 13.5484H7.01614V11.6129H8.95162V13.5484ZM8.95162 14.5161V16.4516H7.01614V14.5161H8.95162ZM9.91936 17.4194H11.8548V19.3548H9.91936V17.4194ZM12.8226 17.4194H14.7581V19.3548H12.8226V17.4194ZM15.7258 16.4516V14.5161H17.2117C17.2757 15.1975 17.4659 15.8501 17.7634 16.4516H15.7258ZM17.1774 13.5484H15.7258V11.6129H16.2097C16.2097 12.1466 16.6437 12.5806 17.1774 12.5806V13.5484ZM14.7581 10.6452H12.8226V8.70968H14.7581V10.6452ZM11.8548 10.6452H9.91936V8.70968H11.8548V10.6452ZM8.95162 10.6452H7.01614V8.70968H8.95162V10.6452ZM6.0484 10.6452H4.11291V8.70968H6.0484V10.6452ZM4.11291 11.6129H6.0484V13.5484H4.11291V11.6129ZM4.11291 14.5161H6.0484V16.4516H4.11291V14.5161ZM4.11291 17.4194V20.3942L1.73278 17.4194H4.11291ZM18.629 19.3548V17.7218C19.0137 18.1452 19.4579 18.5192 19.9684 18.811C20.1877 18.9362 20.3493 19.1313 20.4504 19.3548H18.629ZM28.7908 11.6129H17.1774V10.6452H28.7903L28.7908 11.6129ZM21.5323 9.67742V7.74194H3.14517V16.4516H1.20969V6.77419H23.4678V9.67742H21.5323ZM19.5968 0.967742H20.5645L20.565 3.87097H19.5968V0.967742ZM15.7258 0.967742H16.6936L16.694 3.87097H15.7258V0.967742ZM11.8548 0.967742H12.8226L12.8231 3.87097H11.8548V0.967742ZM7.98388 0.967742H8.95162L8.95209 3.87097H7.98388V0.967742ZM4.11291 0.967742H5.08065L5.08113 3.87097H4.11291V0.967742ZM1.69356 2.90323H3.14517V3.87097C3.14517 4.40469 3.57919 4.83871 4.11291 4.83871H5.08065C5.61438 4.83871 6.0484 4.40469 6.0484 3.87097V2.90323H7.01614V3.87097C7.01614 4.40469 7.45016 4.83871 7.98388 4.83871H8.95162C9.48534 4.83871 9.91936 4.40469 9.91936 3.87097V2.90323H10.8871V3.87097C10.8871 4.40469 11.3211 4.83871 11.8548 4.83871H12.8226C13.3563 4.83871 13.7903 4.40469 13.7903 3.87097V2.90323H14.7581V3.87097C14.7581 4.40469 15.1921 4.83871 15.7258 4.83871H16.6936C17.2273 4.83871 17.6613 4.40469 17.6613 3.87097V2.90323H18.629V3.87097C18.629 4.40469 19.0631 4.83871 19.5968 4.83871H20.5645C21.0982 4.83871 21.5323 4.40469 21.5323 3.87097V2.90323H22.9839C23.2509 2.90323 23.4678 3.12059 23.4678 3.3871V5.80645H1.20969V3.3871C1.20969 3.12059 1.42658 2.90323 1.69356 2.90323ZM1.20969 20.8065V18.3155L3.58982 21.2903H1.69356C1.42658 21.2903 1.20969 21.0734 1.20969 20.8065ZM28.7913 29.0323H17.1774V28.0645H28.7903L28.7913 29.0323ZM18.9697 27.0968L19.8938 26.3046C20.7542 25.5672 21.8512 25.1613 22.9839 25.1613C24.1165 25.1613 25.2135 25.5672 26.0745 26.3046L26.998 27.0968H18.9697ZM24.4355 19.8387C24.4355 20.6089 24.8506 21.3246 25.5195 21.7064C26.9399 22.5184 27.8226 24.0393 27.8226 25.6752V26.5283L26.7039 25.5691C25.6683 24.6821 24.3469 24.1935 22.9839 24.1935C21.6209 24.1935 20.2994 24.6821 19.2639 25.5698L18.1452 26.5288V25.6756C18.1452 24.0397 19.0279 22.5189 20.4483 21.7069C21.1171 21.3246 21.5323 20.6089 21.5323 19.8387C21.5323 19.0685 21.1171 18.3528 20.4483 17.971C19.6674 17.5247 19.0572 16.8601 18.659 16.084C18.9629 16.2987 19.3388 16.4516 19.8354 16.4516C20.8521 16.4516 21.3683 15.8163 21.7834 15.3048C22.1929 14.8011 22.4502 14.5161 22.9806 14.5161C23.5108 14.5161 23.7688 14.8011 24.178 15.3048C24.5933 15.8158 25.1105 16.4516 26.1272 16.4516C26.6269 16.4516 27.0049 16.2973 27.3101 16.0804C26.9116 16.858 26.3008 17.5238 25.5195 17.9706C24.8506 18.3528 24.4355 19.0685 24.4355 19.8387Z" fill="#313741"/>
<path d="M22.5 22.2581H23.4677V23.2258H22.5V22.2581Z" fill="#313741"/>
<path d="M22.5 20.3226H23.4677V21.2903H22.5V20.3226Z" fill="#313741"/>
<path d="M22.5 18.387H23.4677V19.3548H22.5V18.387Z" fill="#313741"/>
<path d="M22.5 16.4515H23.4677V17.4193H22.5V16.4515Z" fill="#313741"/>
</svg>
