<svg width="30" height="31" viewBox="0 0 30 31" fill="none" xmlns="http://www.w3.org/2000/svg">
<g clip-path="url(#clip0)">
<path d="M12.4238 10.1473C11.8026 9.76363 11.0063 10.2273 11.0063 10.9791V20.0208C11.0063 20.7764 11.8038 21.2337 12.4238 20.8539L19.7601 16.3395C20.3701 15.9636 20.3688 15.0517 19.7613 14.6746L12.4238 10.1473ZM12.8813 18.3171V12.6854L17.4501 15.5051L12.8813 18.3171Z" fill="#E72121"/>
<path d="M24.88 4.22507C19.0638 3.33253 10.9388 3.33253 5.12 4.22507C2.7925 4.58157 0.95875 6.46999 0.55875 8.92157C-0.18625 13.4721 -0.18625 17.5292 0.55875 22.0785C0.95875 24.5314 2.7925 26.4185 5.12 26.775C8.035 27.2219 11.525 27.4454 15.0138 27.4454C18.4963 27.4454 21.9775 27.2232 24.8813 26.7763C27.2063 26.4198 29.0388 24.5326 29.4413 22.0798C30.1863 17.5292 30.1863 13.4708 29.4413 8.92028C29.0413 6.46999 27.2075 4.58157 24.88 4.22507ZM27.5925 21.7569C27.3263 23.3792 26.1263 24.6269 24.605 24.8594C18.9575 25.7261 11.0575 25.7261 5.395 24.8582C3.8725 24.6244 2.67125 23.3779 2.40625 21.7556C1.68875 17.3717 1.68875 13.6297 2.40625 9.24319C2.6725 7.62086 3.8725 6.37569 5.39625 6.14061C8.22375 5.7079 11.6125 5.4909 14.9988 5.4909C18.3875 5.4909 21.7763 5.7079 24.6038 6.14061C26.1263 6.3744 27.3275 7.62086 27.5925 9.24319C28.31 13.6297 28.31 17.3716 27.5925 21.7569Z" fill="#E72121"/>
</g>
<defs>
<clipPath id="clip0">
<rect width="30" height="31" fill="white"/>
</clipPath>
</defs>
</svg>
