<?xml version="1.0" standalone="no"?>
<!DOCTYPE svg PUBLIC "-//W3C//DTD SVG 20010904//EN"
 "http://www.w3.org/TR/2001/REC-SVG-20010904/DTD/svg10.dtd">
<svg version="1.0" xmlns="http://www.w3.org/2000/svg"
 width="1024.000000pt" height="1024.000000pt" viewBox="0 0 1024.000000 1024.000000"
 preserveAspectRatio="xMidYMid meet">
<metadata>
Created by potrace 1.11, written by Peter Selinger 2001-2013
</metadata>
<g transform="translate(0.000000,1024.000000) scale(0.100000,-0.100000)"
fill="#000000" stroke="none">
<path d="M3154 7759 c-11 -3 -24 -4 -31 -2 -9 4 -10 -3 -5 -24 4 -15 6 -41 5
-58 -6 -66 -5 -133 1 -144 4 -6 3 -11 -3 -11 -6 0 -7 -11 -3 -27 4 -16 6 -39
5 -53 -4 -35 -5 -90 -4 -122 3 -81 3 -86 0 -202 -1 -30 2 -59 5 -65 4 -6 3
-11 -3 -11 -6 0 -7 -11 -3 -27 4 -16 6 -39 5 -53 -4 -35 -5 -90 -4 -122 3 -81
3 -86 0 -202 -1 -30 2 -59 5 -65 4 -6 3 -11 -3 -11 -6 0 -7 -11 -3 -27 4 -16
6 -39 5 -53 -6 -67 -7 -170 -1 -170 3 0 4 -8 2 -17 -7 -31 -9 -143 -2 -143 3
0 4 -8 2 -17 -7 -31 -9 -143 -2 -143 3 0 4 -8 2 -17 -6 -27 -10 -143 -4 -143
3 0 4 -24 2 -52 -5 -105 -4 -156 2 -167 4 -6 3 -11 -3 -11 -6 0 -7 -11 -3 -27
4 -16 6 -39 5 -53 -4 -35 -5 -90 -4 -122 3 -81 3 -86 0 -202 -1 -30 2 -59 5
-65 4 -6 3 -11 -3 -11 -6 0 -7 -11 -3 -27 4 -16 6 -39 5 -53 -4 -35 -5 -90 -4
-122 3 -81 3 -86 0 -202 -1 -30 2 -59 5 -65 4 -6 3 -11 -3 -11 -6 0 -7 -11 -3
-27 4 -16 6 -39 5 -53 -6 -67 -7 -170 -1 -170 3 0 4 -8 2 -17 -7 -31 -9 -143
-2 -143 3 0 4 -8 2 -17 -7 -31 -9 -143 -2 -143 3 0 4 -8 2 -17 -6 -27 -10
-143 -4 -143 6 0 3 -98 -4 -115 -11 -30 62 -49 132 -34 17 4 48 3 67 -1 19 -4
37 -4 40 0 3 4 20 5 37 1 32 -7 92 -5 114 3 6 3 28 1 48 -4 20 -4 38 -4 41 1
3 4 11 6 18 4 23 -9 82 -11 115 -4 17 4 48 3 67 -1 19 -4 37 -4 40 0 3 4 20 5
37 1 32 -7 92 -5 114 3 6 3 28 1 48 -4 20 -4 38 -4 41 0 3 4 20 5 37 1 32 -7
92 -5 114 3 6 3 28 1 48 -4 20 -4 38 -4 41 0 3 4 20 5 37 1 32 -7 92 -5 114 3
6 3 28 1 48 -4 20 -4 38 -4 41 0 3 4 20 5 37 1 32 -7 92 -5 114 3 6 3 28 1 48
-4 20 -4 38 -4 41 0 3 4 20 5 37 1 32 -7 92 -5 114 3 6 3 28 1 48 -4 20 -4 38
-4 41 0 3 4 20 5 37 1 32 -7 92 -5 114 3 6 3 28 1 48 -4 20 -4 38 -4 41 0 3 4
20 5 37 1 32 -7 92 -5 114 3 6 3 28 1 48 -4 20 -4 38 -4 41 0 3 4 20 5 37 1
32 -7 92 -5 114 3 6 3 28 1 48 -4 20 -4 38 -4 41 0 3 4 20 5 37 1 32 -7 92 -5
114 3 6 3 28 1 48 -4 20 -4 38 -4 41 0 3 4 20 5 37 1 32 -7 92 -5 114 3 6 3
28 1 48 -4 20 -4 38 -4 41 0 3 4 20 5 37 1 33 -7 92 -5 115 4 7 2 15 0 18 -4
3 -5 21 -5 40 -1 19 4 51 4 70 0 19 -4 37 -4 40 0 3 4 20 5 37 1 32 -7 92 -5
114 3 6 3 28 1 48 -4 20 -4 38 -4 41 0 3 4 20 5 37 1 32 -7 92 -5 114 3 6 3
28 1 48 -4 20 -4 38 -4 41 0 3 4 20 5 37 1 34 -7 77 -6 114 3 19 5 21 10 14
41 -4 20 -4 38 1 41 5 3 7 9 5 13 -5 8 -7 45 -6 146 0 33 0 93 -1 133 0 39 2
76 6 81 3 5 1 12 -5 16 -6 4 -7 11 -4 17 4 6 6 94 5 197 -1 102 -2 192 -2 199
0 6 1 23 1 37 0 14 0 33 0 43 0 9 0 49 -1 87 0 39 0 76 0 83 1 16 1 119 0 135
0 12 0 146 0 180 1 34 1 134 0 205 0 39 2 76 6 81 3 5 1 12 -5 16 -6 4 -7 11
-4 17 4 6 6 94 5 197 -1 102 -2 192 -2 199 0 6 1 23 1 37 0 14 0 33 0 43 0 9
0 49 -1 87 0 39 0 76 0 83 1 19 1 120 0 135 0 6 0 42 1 79 1 36 -1 71 -4 77
-4 5 -2 12 3 15 5 3 6 21 1 40 -4 19 -4 40 0 46 4 7 4 26 0 41 -5 16 -5 31 0
34 4 3 4 21 0 40 -4 19 -4 37 0 40 4 3 4 21 0 40 -4 19 -4 37 0 40 4 3 4 20 0
39 -4 19 -4 40 0 46 4 7 4 26 0 41 -5 16 -5 31 0 34 4 3 4 21 0 40 -4 20 -4
38 1 41 5 3 7 9 5 13 -5 8 -7 45 -6 146 0 33 0 93 -1 133 0 39 2 76 6 81 3 5
1 12 -5 16 -6 4 -8 11 -4 16 3 6 6 63 6 127 -1 203 3 183 -37 179 -19 -3 -35
-1 -35 2 0 6 -113 4 -142 -3 -10 -2 -18 -1 -18 2 0 7 -112 5 -142 -2 -10 -2
-18 -1 -18 2 0 7 -112 5 -142 -2 -10 -2 -18 -1 -18 2 0 7 -112 5 -142 -2 -10
-2 -18 -1 -18 2 0 7 -112 5 -142 -2 -10 -2 -18 -1 -18 2 0 7 -112 5 -142 -2
-10 -2 -18 -1 -18 2 0 7 -112 5 -142 -2 -10 -2 -18 -1 -18 2 0 7 -112 5 -142
-2 -10 -2 -18 -1 -18 2 0 7 -112 5 -142 -2 -10 -2 -18 -1 -18 2 0 7 -112 5
-142 -2 -10 -2 -18 -1 -18 2 0 7 -112 5 -142 -2 -10 -2 -18 -1 -18 2 0 7 -112
5 -142 -2 -10 -2 -18 -1 -18 2 0 4 -33 6 -72 4 -92 -4 -105 -4 -206 0 -45 2
-82 1 -82 -2 0 -6 -98 -3 -116 4 -8 3 -14 1 -14 -3 0 -5 -15 -6 -32 -2 -18 3
-46 5 -63 4 -40 -4 -85 -4 -178 -1 -42 2 -77 1 -77 -2 0 -6 -98 -3 -116 4 -8
3 -14 1 -14 -3 0 -5 -15 -6 -32 -2 -18 3 -46 5 -63 4 -40 -4 -85 -4 -178 -1
-42 2 -77 1 -77 -2 0 -6 -98 -3 -116 4 -8 3 -14 1 -14 -3 0 -5 -15 -6 -32 -2
-18 3 -46 5 -63 4 -40 -4 -85 -4 -178 -1 -42 2 -77 1 -77 -2 0 -6 -98 -3 -116
4 -8 3 -14 1 -14 -4 0 -5 -6 -7 -12 -5 -23 9 -95 11 -114 4z"/>
<path d="M162 7403 c-5 -2 -8 -3119 -3 -3154 1 -7 17 -8 131 -8 90 1 139 0
185 -5 11 -1 35 1 52 5 18 4 49 3 67 -1 19 -4 38 -5 41 -2 3 3 19 6 35 6 l30
1 0 1308 0 1308 382 -3 c358 -4 387 -5 438 -25 97 -37 120 -47 120 -55 0 -4 7
-8 15 -8 8 0 15 -4 15 -10 0 -5 6 -10 13 -10 14 0 135 -124 156 -160 65 -112
92 -207 92 -318 -1 -89 -5 -116 -32 -192 -11 -30 -21 -60 -22 -65 -1 -6 -13
-25 -25 -42 -12 -17 -22 -35 -22 -40 0 -13 -90 -106 -140 -145 -54 -42 -139
-83 -206 -99 -27 -7 -116 -13 -199 -15 -82 -1 -158 -3 -167 -3 -10 -1 -21 -16
-29 -38 -6 -21 -15 -42 -19 -48 -5 -5 -9 -14 -10 -20 -3 -13 -6 -21 -94 -237
-42 -103 -76 -190 -76 -193 0 -2 84 -6 186 -7 l185 -3 17 -30 c9 -16 19 -32
22 -35 3 -3 21 -30 40 -60 19 -30 64 -100 100 -155 37 -55 69 -105 71 -110 2
-6 42 -68 89 -140 47 -71 97 -148 110 -170 13 -22 28 -41 32 -43 4 -2 8 -7 8
-12 0 -21 80 -127 97 -128 10 -1 54 -1 98 -1 44 0 86 0 93 0 6 -1 18 -1 25 -2
6 0 42 0 79 1 37 1 71 -1 77 -4 5 -4 12 -2 16 4 4 6 11 8 16 4 11 -6 210 -6
216 0 4 4 -95 166 -107 176 -3 3 -17 23 -30 45 -13 22 -52 83 -86 135 -33 52
-93 145 -132 205 -39 61 -74 115 -79 120 -4 6 -17 26 -27 45 -11 19 -22 37
-25 40 -4 3 -33 48 -66 100 -32 52 -65 101 -72 108 -18 19 -18 18 35 48 183
106 288 202 405 370 30 44 78 128 82 144 1 3 12 28 24 55 53 117 82 265 85
420 2 106 -13 229 -36 305 -37 121 -138 330 -181 375 -7 7 -27 32 -46 55 -65
79 -125 134 -236 215 -79 58 -243 134 -347 160 -132 35 -174 37 -846 38 -336
1 -615 1 -620 0z"/>
<path d="M7882 5824 l0 -1582 27 0 c14 -1 64 -1 111 -1 47 0 91 0 98 0 6 -1
18 -1 25 -2 6 0 41 0 77 0 36 0 72 0 80 0 14 0 101 0 178 0 85 1 135 0 165 0
17 -1 52 -1 77 0 25 1 52 1 60 0 13 0 74 0 178 0 17 0 55 0 82 0 28 0 58 1 68
1 24 0 63 -1 87 -4 11 -1 35 1 53 5 17 4 34 3 37 -1 3 -4 21 -4 40 0 19 4 50
4 69 0 19 -4 40 -4 46 0 7 4 24 5 39 1 14 -4 35 -6 46 -5 50 6 231 8 285 4 29
-2 25 -2 105 0 33 1 67 0 75 -2 13 -3 15 33 18 270 2 214 0 272 -10 273 -7 0
-364 1 -794 1 l-780 1 0 378 c1 207 4 380 7 383 3 4 299 6 657 6 616 0 650 1
646 17 -2 10 -20 81 -40 158 -19 77 -36 145 -37 150 -2 6 -14 56 -27 112 -21
88 -28 103 -45 104 -11 0 -275 0 -587 1 -518 0 -568 1 -571 17 -3 9 -4 180 -3
381 l1 365 793 3 792 2 0 270 c0 149 -3 270 -7 271 -5 0 -483 1 -1064 2
l-1057 2 0 -1581z"/>
<path d="M1570 3084 c-19 -8 -45 -30 -57 -49 -22 -33 -23 -41 -20 -257 2 -205
4 -225 22 -250 42 -56 137 -71 203 -33 55 33 61 61 61 290 0 211 -5 242 -43
280 -31 30 -114 40 -166 19z m101 -90 c10 -12 13 -63 13 -210 1 -167 -2 -196
-16 -210 -21 -21 -66 -11 -76 17 -4 11 -7 103 -7 204 1 195 6 215 50 215 12 0
29 -7 36 -16z"/>
<path d="M4073 3080 c-65 -29 -71 -57 -69 -306 1 -206 2 -211 26 -246 39 -57
130 -73 197 -33 42 25 55 56 59 141 l4 70 -45 3 c-31 1 -45 -2 -46 -11 -1 -7
-2 -31 -3 -53 -2 -66 -13 -83 -46 -81 -17 1 -35 7 -41 13 -6 6 -11 83 -11 208
-1 181 1 199 18 212 44 32 84 -3 81 -72 -2 -39 -1 -40 33 -41 56 0 60 4 59 55
-2 60 -33 125 -67 141 -43 20 -105 20 -149 0z"/>
<path d="M4503 3087 c-32 -17 -61 -53 -70 -88 -5 -19 -9 -122 -8 -229 2 -212
8 -242 60 -276 37 -24 112 -26 156 -4 48 25 69 71 69 154 l0 66 -45 0 -45 0 0
-59 c0 -69 -17 -94 -57 -86 -14 2 -28 7 -32 10 -10 10 -11 397 -1 416 12 21
67 20 81 -2 5 -8 9 -34 9 -59 l0 -45 45 -1 45 -1 0 53 c0 29 -6 66 -12 81 -15
33 -56 72 -78 74 -63 5 -102 4 -117 -4z"/>
<path d="M9003 3092 c-36 -6 -82 -60 -88 -106 -4 -23 -5 -129 -3 -236 3 -176
5 -198 23 -222 60 -80 201 -70 244 17 15 31 23 136 11 155 -4 6 -24 10 -45 8
l-39 -3 -1 -57 c-2 -68 -18 -92 -54 -83 -14 4 -30 10 -35 15 -5 5 -9 98 -9
206 0 180 1 198 18 210 45 33 86 -2 81 -68 -2 -22 2 -38 8 -39 6 -1 27 -2 46
-3 l35 -1 0 55 c0 93 -44 148 -125 153 -25 2 -55 1 -67 -1z"/>
<path d="M119 3083 c-4 -23 -6 -571 -2 -585 3 -14 15 -18 49 -18 28 0 44 4 45
13 0 6 0 58 -1 115 l-1 102 43 0 c58 0 109 27 130 69 14 27 17 56 15 130 -3
109 -19 144 -74 167 -34 15 -202 20 -204 7z m159 -87 c23 -8 23 -11 24 -96 0
-82 -1 -88 -24 -96 -60 -20 -63 -17 -66 90 -3 117 1 124 66 102z"/>
<path d="M530 2785 l0 -304 44 1 c24 0 49 -3 55 -6 6 -4 11 -3 11 3 0 6 11 7
28 2 26 -6 71 -6 102 1 16 3 28 42 22 70 -3 13 -17 16 -70 16 -37 0 -74 1 -82
1 -12 1 -15 16 -15 79 1 42 4 82 8 88 4 7 31 11 66 10 l59 -2 -2 44 -1 45 -65
1 -64 1 0 78 c0 42 4 80 7 83 4 4 40 7 82 7 l75 1 0 43 0 43 -130 0 -130 0 0
-305z"/>
<path d="M939 3083 c0 -5 -1 -141 -2 -303 l0 -294 31 -7 c18 -4 32 -2 32 3 0
5 5 6 10 3 12 -7 12 -7 11 224 0 95 1 172 3 170 2 -2 6 -22 10 -44 3 -22 12
-78 21 -125 8 -47 18 -103 20 -125 11 -85 19 -100 53 -100 18 0 32 -4 32 -9 0
-4 6 -3 14 3 8 7 17 40 21 74 4 34 9 71 11 82 7 33 12 67 18 115 20 150 24
141 25 -62 l1 -208 45 0 45 0 0 53 c1 54 1 426 0 510 l0 48 -67 -3 c-49 -2
-67 -7 -69 -18 -1 -8 -5 -35 -9 -60 -3 -25 -9 -58 -11 -75 -3 -16 -7 -39 -9
-50 -1 -11 -8 -55 -14 -97 -7 -42 -13 -86 -14 -97 -1 -21 -10 -20 -13 2 -1 7
-5 35 -8 62 -4 28 -9 59 -11 70 -4 20 -7 40 -20 120 -25 158 -17 145 -91 145
-35 0 -64 -3 -65 -7z"/>
<path d="M1930 2779 c0 -205 3 -308 10 -304 6 3 27 6 48 7 l37 0 0 125 c0 76
4 127 10 129 5 1 29 5 53 7 48 5 44 20 46 -147 1 -99 3 -110 21 -116 11 -4 30
-4 41 1 12 4 25 5 28 2 3 -4 6 5 6 18 1 169 1 549 1 567 -1 20 -6 22 -49 22
l-48 0 1 -127 0 -128 -56 -3 -55 -3 1 131 1 130 -48 0 -48 0 0 -311z"/>
<path d="M2360 3051 c0 -42 6 -47 64 -50 16 0 31 -3 34 -5 2 -3 4 -120 4 -261
-1 -195 2 -255 11 -252 7 2 24 0 39 -4 17 -5 30 -3 36 4 5 7 9 118 8 247 -1
129 1 244 5 256 5 16 15 20 40 18 50 -3 59 4 57 47 l-1 39 -149 0 -148 0 0
-39z"/>
<path d="M3009 3038 c0 -56 0 -538 1 -549 0 -11 71 -16 77 -6 3 5 5 89 4 188
0 98 3 179 7 179 4 0 9 -10 10 -22 4 -49 12 -98 33 -219 l22 -127 46 2 c51 1
46 -8 66 131 4 28 9 59 10 70 2 11 6 43 10 70 9 72 22 124 25 100 1 -11 1 -24
0 -30 -2 -13 0 -313 3 -328 3 -17 25 -24 58 -19 26 4 28 8 31 56 2 28 2 165 0
304 l-3 252 -64 0 c-71 0 -69 1 -80 -80 -3 -25 -8 -56 -10 -70 -2 -14 -7 -43
-10 -65 -3 -22 -8 -53 -11 -70 -8 -38 -12 -72 -13 -109 -2 -50 -14 -16 -27 74
-10 67 -44 275 -49 298 -5 20 -11 22 -70 22 l-65 0 -1 -52z"/>
<path d="M3639 3083 c0 -5 -2 -16 -4 -25 -3 -17 -11 -67 -20 -128 -3 -19 -9
-60 -15 -90 -25 -146 -30 -179 -35 -225 -4 -27 -10 -64 -15 -81 -12 -49 0 -59
63 -52 9 1 17 4 18 7 0 3 2 15 5 26 2 11 5 31 7 45 2 23 7 25 63 28 59 3 60 2
62 -25 6 -73 14 -83 61 -83 21 0 40 2 43 5 3 3 1 29 -4 58 -4 28 -17 108 -28
177 -11 69 -22 137 -25 152 -3 16 -7 40 -9 55 -8 56 -17 119 -22 141 -4 20
-10 22 -74 22 -39 0 -70 -3 -71 -7z m75 -168 c3 -22 8 -51 11 -65 3 -14 7 -41
9 -60 3 -19 8 -53 11 -76 l6 -41 -45 0 c-45 0 -45 0 -41 31 3 17 7 48 10 69 3
20 8 54 11 75 6 39 11 78 13 101 2 24 9 8 15 -34z"/>
<path d="M4925 3068 c-8 -39 -45 -276 -61 -393 -1 -11 -3 -20 -4 -20 -3 0 -9
-40 -14 -88 -3 -27 -8 -57 -11 -68 -6 -17 -1 -19 39 -19 30 0 46 4 47 13 1 22
10 72 14 85 3 8 25 12 63 12 63 0 59 6 66 -80 2 -23 7 -25 53 -28 47 -2 50 -1
47 20 -3 24 -28 178 -38 236 -9 47 -15 86 -32 197 -26 173 -15 155 -95 155
-63 0 -69 -2 -74 -22z m90 -228 c5 -30 9 -66 9 -80 1 -14 4 -30 7 -35 3 -6 5
-19 5 -30 -1 -16 -9 -20 -44 -21 l-43 -1 6 46 c3 25 7 57 10 71 9 52 20 126
25 165 2 22 14 -30 25 -115z"/>
<path d="M5279 3073 c42 -81 110 -236 107 -246 -2 -6 -7 -21 -12 -32 -4 -11
-8 -24 -10 -30 -1 -5 -19 -59 -39 -120 -62 -185 -60 -167 -14 -162 21 2 39 0
39 -6 0 -5 7 -4 15 3 8 7 15 18 15 25 0 8 14 53 30 102 17 48 29 88 29 88 -1
0 1 10 5 23 8 24 25 30 27 10 5 -47 7 -58 12 -72 3 -8 2 -18 -2 -20 -5 -3 -7
-18 -5 -33 6 -43 7 -87 3 -102 -3 -10 7 -16 31 -18 19 -2 41 -5 48 -8 15 -5
14 -14 16 127 1 76 5 121 13 129 10 10 13 9 17 -2 2 -8 14 -40 25 -71 11 -32
18 -58 16 -58 -3 0 1 -13 10 -29 8 -17 16 -39 18 -50 2 -11 6 -24 10 -28 13
-13 83 -20 93 -10 4 3 -7 43 -22 89 -15 46 -29 88 -30 93 -1 6 -14 45 -28 87
-14 42 -26 82 -26 88 0 6 25 63 55 126 30 64 55 117 55 120 0 2 -22 4 -50 4
-33 0 -50 -4 -50 -12 -1 -7 -25 -62 -54 -123 l-53 -110 1 123 2 122 -48 0
c-55 0 -50 15 -49 -145 l0 -90 -56 118 -57 117 -48 0 c-43 0 -48 -2 -39 -17z"/>
<path d="M5912 2786 l-1 -304 45 -4 c33 -2 45 1 48 12 2 8 5 66 5 129 1 63 3
117 6 119 9 9 95 6 98 -3 2 -5 3 -65 3 -131 l-1 -121 50 -2 50 -1 0 306 0 305
-50 -3 -50 -3 1 -127 0 -128 -56 0 -55 0 1 130 2 130 -48 0 -48 0 0 -304z"/>
<path d="M6370 2784 l0 -306 50 4 c28 1 50 1 50 -2 0 -5 48 -5 60 0 3 1 10 3
15 4 24 4 60 20 73 33 25 24 39 95 36 175 -4 123 -41 165 -149 170 l-40 1 1
114 2 113 -49 0 -49 0 0 -306z m181 -23 c1 -3 3 -43 4 -88 3 -90 -1 -98 -52
-105 -37 -5 -34 -14 -37 107 -2 91 3 102 48 97 20 -2 37 -7 37 -11z"/>
<path d="M6710 2783 c0 -168 3 -304 6 -301 3 4 18 3 33 -2 56 -16 56 -17 56
310 l1 300 -48 0 -48 0 0 -307z"/>
<path d="M6950 3086 c0 -8 87 -263 93 -273 4 -6 -17 -84 -47 -172 l-55 -161
27 2 c15 1 33 -1 39 -5 6 -4 15 -1 20 6 12 16 73 202 73 223 0 10 2 15 5 12 8
-7 55 -138 50 -138 -1 0 5 -21 15 -47 17 -46 20 -48 64 -53 30 -4 47 -2 50 6
3 7 2 15 -2 18 -3 4 -7 12 -8 19 -2 7 -23 71 -47 143 l-44 130 42 125 c23 68
45 134 49 147 7 21 4 22 -37 22 -40 0 -46 -3 -53 -27 -10 -36 -9 -33 -22 -66
-7 -16 -17 -48 -23 -73 -6 -24 -15 -44 -18 -44 -4 0 -22 47 -40 105 l-33 105
-49 0 c-27 0 -49 -2 -49 -4z"/>
<path d="M7649 3073 c-7 -31 -3 -583 4 -589 10 -11 68 -7 80 5 5 5 10 44 9 85
-1 42 5 93 12 113 l14 38 19 -45 c11 -25 30 -74 42 -110 27 -78 48 -99 90 -92
40 6 43 12 26 45 -8 15 -12 27 -10 27 2 0 -7 25 -20 55 -14 30 -23 55 -20 55
3 0 -4 17 -15 37 -11 21 -20 42 -20 46 0 5 -7 24 -16 42 -15 33 -15 34 50 164
36 72 66 133 66 136 0 13 -93 -1 -101 -15 -26 -46 -99 -208 -99 -218 0 -7 -4
-12 -8 -12 -5 0 -8 56 -8 125 l1 125 -46 0 c-36 0 -48 -4 -50 -17z"/>
<path d="M8095 2789 l0 -302 22 -3 c12 -2 26 -4 30 -5 42 -7 43 -3 43 116 l0
115 40 0 c54 0 104 22 127 56 14 22 18 50 20 123 2 166 -27 197 -185 200 l-97
2 0 -302z m181 185 c9 -35 9 -125 0 -151 -4 -13 -15 -23 -24 -24 -9 0 -27 -2
-39 -3 -23 -3 -23 -1 -23 100 0 109 2 113 52 106 20 -3 30 -12 34 -28z"/>
<path d="M8512 2788 l3 -303 28 0 c15 1 27 -2 27 -5 0 -3 27 -5 60 -5 33 0 60
2 60 5 0 3 17 4 39 2 36 -4 39 -2 42 25 9 57 4 61 -74 61 -40 0 -76 0 -82 1
-8 1 -10 60 -6 162 1 13 13 16 64 15 l62 -1 2 43 c3 46 8 44 -79 44 -27 1 -48
4 -49 7 -1 10 -2 135 0 151 1 12 16 15 80 14 78 -2 79 -2 83 25 9 61 8 61
-133 61 l-129 0 2 -302z"/>
<path d="M9342 2786 c0 -287 1 -304 18 -309 11 -3 21 -2 24 1 3 3 29 4 58 3
93 -2 149 -1 157 3 6 4 7 47 2 78 -1 4 -29 6 -63 6 -113 0 -103 -8 -102 82 0
44 4 83 8 87 4 5 30 9 57 9 27 1 54 2 59 3 6 0 10 19 10 41 0 31 -4 40 -17 41
-10 1 -40 2 -67 3 l-49 1 1 70 c0 39 1 77 1 85 1 12 17 15 83 15 l82 0 0 40 0
40 -131 3 -131 3 0 -305z"/>
<path d="M9799 3088 c-1 -5 -7 -140 -13 -320 -3 -91 -9 -173 -12 -182 -3 -8
-15 -16 -27 -18 -19 -3 -22 -10 -23 -46 l0 -43 35 2 c45 3 89 33 102 68 11 29
17 105 23 291 2 69 4 134 5 145 1 17 7 20 39 20 l37 -1 5 -260 5 -259 28 0
c15 1 27 -2 27 -6 0 -4 9 -5 20 -2 19 5 19 15 19 309 l0 304 -135 0 c-73 0
-134 -1 -135 -2z"/>
</g>
</svg>
