<?xml version="1.0" encoding="utf-8"?><svg viewBox="0 0 128 126" xmlns="http://www.w3.org/2000/svg" xmlns:xlink="http://www.w3.org/1999/xlink"><style>:root>svg{display:none}:root>svg:target{display:block}</style><svg fill="none" viewBox="0 0 6 10" id="arrow-left" xmlns="http://www.w3.org/2000/svg"><path d="M5 9L1 5l4-4" stroke="#313741" stroke-width="1.5" stroke-linecap="round" stroke-linejoin="round"/></svg><svg fill="none" viewBox="0 0 6 10" id="arrow-right" xmlns="http://www.w3.org/2000/svg"><path d="M1 1l4 4-4 4" stroke="#313741" stroke-width="1.5" stroke-linecap="round" stroke-linejoin="round"/></svg><svg fill="none" viewBox="0 0 58 65" id="car" xmlns="http://www.w3.org/2000/svg"><circle cx="29" cy="29" r="28" fill="#FFBD46"/><mask id="aca" maskUnits="userSpaceOnUse" x="0" y="0" width="58" height="65"><path fill="#C4C4C4" d="M0 0h58v65H0z"/></mask><g mask="url(#aca)"><path d="M31 29c6.617 0 12-5.383 12-12S37.617 5 31 5s-12 5.383-12 12 5.383 12 12 12zm0-22c5.514 0 10 4.486 10 10s-4.486 10-10 10-10-4.486-10-10S25.486 7 31 7z" fill="#313741"/><path d="M29.5 23h.5v2h2v-2h.5c1.93 0 3.5-1.57 3.5-3.5S34.43 16 32.5 16h-3c-.827 0-1.5-.673-1.5-1.5s.673-1.5 1.5-1.5h3c.827 0 1.5.673 1.5 1.5v.5h2v-.5c0-1.93-1.57-3.5-3.5-3.5H32V9h-2v2h-.5c-1.93 0-3.5 1.57-3.5 3.5s1.57 3.5 3.5 3.5h3c.827 0 1.5.673 1.5 1.5s-.673 1.5-1.5 1.5h-3c-.827 0-1.5-.673-1.5-1.5V19h-2v.5c0 1.93 1.57 3.5 3.5 3.5zM16 44c-1.654 0-3 1.346-3 3s1.346 3 3 3 3-1.346 3-3-1.346-3-3-3zm0 4c-.551 0-1-.449-1-1 0-.551.449-1 1-1 .551 0 1 .449 1 1 0 .551-.449 1-1 1zm27-1c0 1.654 1.346 3 3 3s3-1.346 3-3-1.346-3-3-3-3 1.346-3 3zm4 0c0 .551-.449 1-1 1-.551 0-1-.449-1-1 0-.551.449-1 1-1 .551 0 1 .449 1 1z" fill="#313741"/><path d="M52 32.972h-3.398l-.231-3.468A6.981 6.981 0 0042.101 23l-.202 1.99a4.987 4.987 0 014.477 4.646l.555 8.34h-2.005l-.546-8.207a3.009 3.009 0 00-2.993-2.803H40v2.001h1.387c.524 0 .962.41.998.935l.537 8.074H19.078l.538-8.076c.035-.522.473-.933.997-.933H22v-2.001h-1.387a3.008 3.008 0 00-2.993 2.802l-.546 8.208h-2.005l.555-8.341a4.987 4.987 0 014.477-4.645L19.899 23a6.981 6.981 0 00-6.27 6.503l-.231 3.469H10c-1.654 0-3 1.347-3 3.003v1a3.005 3.005 0 003 3.003v-2.002c-.551 0-1-.449-1-1v-1.001c0-.552.449-1.001 1-1.001h3.265l-.227 3.406A5.012 5.012 0 0010 42.98v9.008c-1.103 0-2 .898-2 2.002v2.002c0 1.104.897 2.002 2 2.002h2v2.001A4.006 4.006 0 0016 64c2.206 0 4-1.796 4-4.004v-2.001h22v2.001A4.006 4.006 0 0046 64c2.206 0 4-1.796 4-4.004v-2.001h2c1.103 0 2-.898 2-2.002V53.99a2.003 2.003 0 00-2-2.002V42.98a5.012 5.012 0 00-3.038-4.601l-.227-3.406H52c.551 0 1 .45 1 1v1.002c0 .551-.449 1-1 1v2.002c1.654 0 3-1.347 3-3.002v-1.001a3.005 3.005 0 00-3-3.003zm-7.414 7.006l-4 4.004H21.414l-4-4.004h27.172zM40 45.984v6.005h-2v-6.005h2zm-4 0v6.005h-2v-6.005h2zm-4 0v6.005h-2v-6.005h2zm-4 0v6.005h-2v-6.005h2zm-4 0v6.005h-2v-6.005h2zM12 42.98a2.995 2.995 0 012.624-2.965L20 45.397v6.592h-8v-9.008zm6 17.015a2.003 2.003 0 01-2 2.002c-1.103 0-2-.898-2-2.002v-2.001h4v2.001zm30 0a2.003 2.003 0 01-2 2.002c-1.103 0-2-.898-2-2.002v-2.001h4v2.001zm4-6.005l.001 2.002H10V53.99h42zm-2-11.01v9.008h-8v-6.592l5.376-5.38A2.995 2.995 0 0150 42.98z" fill="#313741"/><path d="M5.5 5v5M3 7.5h5" stroke="#313741" stroke-width="1.2" stroke-linecap="round"/><path fill="#313741" d="M6 20l2.828-2.828L11.657 20l-2.829 2.828z"/><path d="M48.5 5v5M46 7.5h5" stroke="#313741" stroke-width="1.2" stroke-linecap="round"/></g></svg><svg fill="none" viewBox="0 0 16 16" id="close" xmlns="http://www.w3.org/2000/svg"><path d="M1 1l7 7m0 0l7 7M8 8l7-7M8 8l-7 7" stroke="#262F56" stroke-width="1.8" stroke-linecap="round" stroke-linejoin="round"/></svg><svg fill="none" viewBox="0 0 73 67" id="credit" xmlns="http://www.w3.org/2000/svg"><circle cx="39" cy="29" r="28" fill="#FFBD46"/><mask id="aea" maskUnits="userSpaceOnUse" x="0" y="0" width="73" height="67"><path fill="#C4C4C4" d="M0 0h73v67H0z"/></mask><g mask="url(#aea)"><path d="M66 29v2H44.537c-.442 0-.884.059-1.315.176l-9.3 2.536a4.993 4.993 0 00-2.48 1.57l-4.688 5.47c-.486.564-.754 1.287-.754 2.126 0 .04.007.08.008.122H26c-1.103 0-2 .897-2 2v19c0 1.102.897 2 2 2h34c1.102 0 2-.898 2-2V45c0-1.103-.898-2-2-2h-2.586l2-2H66v2h6V29h-6zm-6 16v19H26V45h20.586l-.671.67A3.141 3.141 0 0045 47.88a3.125 3.125 0 005.33 2.207L55.414 45H60zm-11.413-2H38.17c.09-.686.205-1.37.372-2.04l.24-.96h6.11c.544 0 1.078.147 1.544.428l2.95 1.771-.8.8zM36.6 40.477A20.331 20.331 0 0036.157 43H34.22l-.134-.671 1.45-1.45a2.981 2.981 0 011.139-.702l-.074.3zM58.586 39l-9.67 9.67a1.122 1.122 0 01-1.587-1.585L52 42.415V38h-2v2.234l-2.536-1.521A4.999 4.999 0 0044.893 38h-7.235c-1.335 0-2.591.52-3.536 1.465L30.587 43h-2.563c-.009-.07-.024-.131-.024-.215 0-.268.096-.526.27-.73l4.69-5.471a2.988 2.988 0 011.489-.942l9.296-2.536c.26-.07.526-.105.79-.105H66v6h-7.413V39zM70 41h-2V31h2v10zM23 15h4c.55 0 1 .448 1 1h2c0-1.654-1.346-3-3-3h-1v-1h-2v1h-1c-1.654 0-3 1.346-3 3v1c0 1.654 1.346 3 3 3h4c.55 0 1 .448 1 1v1a1 1 0 01-1 1h-4a1 1 0 01-1-1h-2c0 1.654 1.346 3 3 3h1v1h2v-1h1c1.654 0 3-1.346 3-3v-1c0-1.654-1.346-3-3-3h-4a1 1 0 01-1-1v-1c0-.552.45-1 1-1z" fill="#313741"/><path d="M25.024 30c2.536 0 5.014-.885 6.976-2.49l-1.27-1.551a9.037 9.037 0 01-5.706 2.037c-4.973 0-9.02-4.046-9.02-9.02a9.03 9.03 0 012.037-5.705L16.489 12A11.045 11.045 0 0014 18.976C14 25.054 18.946 30 25.024 30zm-.048-19.996c4.973 0 9.02 4.046 9.02 9.02a9.032 9.032 0 01-2.037 5.705L33.511 26A11.044 11.044 0 0036 19.024C36 12.946 31.054 8 24.976 8c-2.536 0-5.014.885-6.976 2.49l1.27 1.551a9.037 9.037 0 015.706-2.037z" fill="#313741"/><path d="M25 34c8.27 0 15-6.73 15-15 0-8.271-6.73-15-15-15-8.271 0-15 6.729-15 15 0 8.27 6.729 15 15 15zm0-28c7.168 0 13 5.832 13 13s-5.832 13-13 13-13-5.832-13-13S17.832 6 25 6zm24 46c-2.757 0-5 2.243-5 5s2.243 5 5 5a4.95 4.95 0 002-.424A4.95 4.95 0 0053 62c2.757 0 5-2.243 5-5s-2.243-5-5-5a4.95 4.95 0 00-2 .424A4.95 4.95 0 0049 52zm3 5c0 .883-.391 1.67-1 2.22-.609-.55-1-1.337-1-2.22 0-.883.391-1.67 1-2.22.609.55 1 1.337 1 2.22zm-6 0c0-1.654 1.346-3 3-3l.024.002A4.951 4.951 0 0048 57c0 1.129.39 2.16 1.024 2.998L49 60c-1.654 0-3-1.346-3-3zm10 0c0 1.654-1.346 3-3 3l-.024-.002A4.95 4.95 0 0054 57a4.95 4.95 0 00-1.024-2.998L53 54c1.654 0 3 1.346 3 3zM28 47h2v2h-2v-2zm4 0h2v2h-2v-2zm4 0h2v2h-2v-2zm-8 8h2v4h-2v-4zm4 0h2v4h-2v-4zm4 0h2v4h-2v-4zm4 0h2v4h-2v-4z" fill="#313741"/><path d="M46.5 9v5m2.5-2.5h-5" stroke="#313741" stroke-width="1.2" stroke-linecap="round"/><path fill="#313741" d="M55 24l-2.828-2.828L49.343 24l2.829 2.828z"/><path d="M3.5 9v5M6 11.5H1" stroke="#313741" stroke-width="1.2" stroke-linecap="round"/></g></svg><svg fill="none" viewBox="0 0 30 31" id="email" xmlns="http://www.w3.org/2000/svg"><g clip-path="url(#afclip0)" fill="#5D6B81"><path d="M27.188 25.833H2.813C1.26 25.833 0 24.53 0 22.927V8.073C0 6.47 1.261 5.167 2.813 5.167h24.375C28.738 5.167 30 6.47 30 8.073v14.854c0 1.603-1.261 2.906-2.813 2.906zM2.813 7.104c-.518 0-.938.434-.938.969v14.854c0 .535.42.969.938.969h24.375c.517 0 .937-.434.937-.969V8.073c0-.535-.42-.969-.938-.969H2.813z"/><path d="M14.999 18.078a3.37 3.37 0 01-1.592-.399L.504 10.713a.984.984 0 01-.398-1.306.923.923 0 011.265-.41l12.9 6.963a1.57 1.57 0 001.461-.003l12.897-6.96a.922.922 0 011.265.41.985.985 0 01-.397 1.307l-12.9 6.963a3.398 3.398 0 01-1.598.401z"/></g><defs><clipPath id="afclip0"><path fill="#fff" d="M0 0h30v31H0z"/></clipPath></defs></svg><svg fill="none" viewBox="0 0 87 70" id="feature-1" xmlns="http://www.w3.org/2000/svg"><g clip-path="url(#agclip0)" fill="#2694F5"><path d="M77.528 55.248c-.754-4.494-3.924-8.181-8.272-9.622l-9.656-3.2V41h-2.245v1.95l-7.854 14.641-7.855-14.64V41H39.4v2.51l8.977 16.73v1.952H34.913v2.231h13.465v3.346H31.696l.895-7.122a5.108 5.108 0 002.322-4.295V55.5h-2.244v.852a2.904 2.904 0 01-1.624 2.612l-.538.267-1.074 8.538H21.65l1.278-7.625-2.213-.365L19 70h61l-2.472-14.752zM50.623 67.769v-3.346h13.465v-2.23H50.623V60.24l8.399-15.653 5.066 1.678V56.35c0 1.753.876 3.35 2.322 4.297l.895 7.121H50.623zm18.945 0l-1.074-8.538-.538-.267a2.906 2.906 0 01-1.624-2.612V47.01l2.213.732a10.039 10.039 0 016.769 7.874l2.037 12.154h-7.783z"/><path d="M30.139 24.973c0 2.913 2.22 5.292 5.059 5.612a12.402 12.402 0 003.166 5.326l4.44 4.426A5.668 5.668 0 0046.832 42h5.336a5.668 5.668 0 004.028-1.663l4.44-4.426a12.413 12.413 0 003.166-5.326c2.838-.32 5.06-2.7 5.06-5.612a5.605 5.605 0 00-1.17-3.405H70v-6.811h-3.58C65.516 8.057 60.609 2.45 54.056.64V0h-9.112v.64c-6.55 1.81-11.458 7.416-12.364 14.117H29v6.81h2.307a5.605 5.605 0 00-1.168 3.406zm2.278 0c0-1.478.955-2.727 2.277-3.197v5.305c0 .371.022.739.054 1.104-1.35-.454-2.331-1.715-2.331-3.212zm29.61 2.108a10.14 10.14 0 01-3.001 7.225l-4.44 4.426a3.4 3.4 0 01-2.418.998h-5.336a3.397 3.397 0 01-2.417-.998l-4.44-4.426a10.137 10.137 0 01-3.003-7.224v-5.514h25.056v5.513zm2.225 1.104c.032-.365.054-.732.054-1.104v-5.305c1.322.47 2.277 1.719 2.277 3.197 0 1.497-.981 2.758-2.331 3.212zM44.944 3.004v9.482h2.278V2.27h4.556v10.216h2.278V3.005C59.333 4.71 63.274 9.29 64.13 14.757H34.87C35.727 9.29 39.667 4.71 44.944 3.004zM31.278 19.297v-2.27h36.444v2.27H31.278z"/><path d="M58 10h-2v2h2v-2zm-16 0h-2v2h2v-2zM20.082 58h6.438l.59-2.906c.378-.13.748-.281 1.107-.45l2.497 1.643 4.552-4.494-1.664-2.465c.17-.354.324-.72.456-1.093L37 47.653v-6.356l-2.943-.583A11.055 11.055 0 0033.276 39l-1.996 1.097a8.85 8.85 0 01.795 1.902l.192.66 2.45.485v2.661l-2.45.485-.192.66a8.831 8.831 0 01-.795 1.903l-.339.6 1.384 2.05-1.906 1.88-2.075-1.365-.609.334a9.111 9.111 0 01-1.927.785l-.669.188-.49 2.42h-2.696l-.49-2.418-.67-.188a9.078 9.078 0 01-1.927-.784l-.609-.335-2.075 1.366-2.568-2.534L12 52.446l3.89 3.84 2.496-1.641c.359.168.73.319 1.108.45L20.082 58zm-6.358-9l1.996-1.097a8.851 8.851 0 01-.795-1.902l-.192-.66-2.45-.484v-2.661l2.45-.485.192-.66a8.79 8.79 0 01.795-1.903l.339-.601-1.384-2.05 1.905-1.88 2.076 1.366.609-.335a9.056 9.056 0 011.927-.784l.669-.189.49-2.42h2.696l.49 2.418.67.188c.68.19 1.328.455 1.927.785l.609.334 2.075-1.365 2.568 2.533L35 35.554l-3.89-3.84-2.496 1.642a11.41 11.41 0 00-1.108-.45L26.918 30H20.48l-.59 2.906c-.378.13-.748.282-1.107.45l-2.497-1.643-4.552 4.494 1.664 2.465c-.17.354-.323.72-.456 1.093L10 40.348v6.356l2.943.583c.214.595.474 1.17.781 1.713z"/><path d="M23.5 38a5.506 5.506 0 00-5.5 5.5c0 3.033 2.467 5.5 5.5 5.5s5.5-2.467 5.5-5.5-2.467-5.5-5.5-5.5zm0 8.8c-1.82 0-3.3-1.48-3.3-3.3 0-1.82 1.48-3.3 3.3-3.3 1.82 0 3.3 1.48 3.3 3.3 0 1.82-1.48 3.3-3.3 3.3z"/></g><path d="M15.5 2v5M13 4.5h5" stroke="#2694F5" stroke-width="1.2" stroke-linecap="round"/><path fill="#2694F5" d="M16 17l2.828-2.828L21.657 17l-2.829 2.828z"/><path d="M83.5 20v5M81 22.5h5M3.5 21v5M1 23.5h5" stroke="#2694F5" stroke-width="1.2" stroke-linecap="round"/><defs><clipPath id="agclip0"><path fill="#fff" transform="translate(10)" d="M0 0h70v70H0z"/></clipPath></defs></svg><svg fill="none" viewBox="0 0 96 70" id="feature-2" xmlns="http://www.w3.org/2000/svg"><path d="M75.7 10.927L72.088 0H61.2v4.516a2.251 2.251 0 01-2.24 2.258 2.251 2.251 0 01-2.24-2.258V0H43.28v4.516a2.251 2.251 0 01-2.24 2.258 2.251 2.251 0 01-2.24-2.258V0H27.912L24.3 10.927A45.423 45.423 0 0022 25.212c0 12.267 5.043 24.166 13.837 32.647l11.46 11.048a3.887 3.887 0 005.407-.001l11.458-11.049C72.957 49.377 78 37.478 78 25.212c0-4.865-.774-9.67-2.3-14.285zM62.615 56.226L51.156 67.274c-.627.602-1.685.602-2.31 0l-11.46-11.048C29.03 48.169 24.24 36.865 24.24 25.212c0-4.62.735-9.188 2.185-13.57l3.103-9.384h7.032v2.258c0 2.49 2.01 4.516 4.48 4.516 2.47 0 4.48-2.025 4.48-4.516V2.258h8.96v2.258c0 2.49 2.01 4.516 4.48 4.516 2.47 0 4.48-2.025 4.48-4.516V2.258h7.032l3.103 9.383a43.107 43.107 0 012.185 13.571c0 11.653-4.791 22.957-13.145 31.014z" fill="#2694F5"/><path d="M70.16 14H30.84l-.239.816C29.54 18.438 29 22.12 29 25.762c0 10.515 4.332 20.714 11.884 27.984L50.5 63l9.616-9.254C67.668 46.476 72 36.276 72 25.762c0-3.642-.539-7.324-1.601-10.946L70.16 14zM58.551 52.1L50.5 59.85l-8.051-7.75c-7.109-6.84-11.186-16.44-11.186-26.338 0-3.151.43-6.337 1.279-9.485h35.916a36.44 36.44 0 011.279 9.485c0 9.897-4.077 19.497-11.186 26.338zM67 6h2v2h-2V6zM31 6h2v2h-2V6z" fill="#2694F5"/><path d="M50 22l-6.047 8.35L36 26.43 38.8 43h22.4L64 26.43l-7.953 3.922L50 22zm10.031 14.27h-4.344v2.243h3.965l-.38 2.244H40.728l-.379-2.244h13.064V36.27H39.97l-.991-5.865 5.696 2.809L50 25.86l5.326 7.354 5.696-2.809-.99 5.864z" fill="#2694F5"/><path d="M49 30h2v2h-2v-2zm1.5-18c1.93 0 3.5-1.57 3.5-3.5S52.43 5 50.5 5 47 6.57 47 8.5s1.57 3.5 3.5 3.5zm0-4.667c.643 0 1.167.524 1.167 1.167s-.524 1.167-1.167 1.167A1.169 1.169 0 0149.333 8.5c0-.643.524-1.167 1.167-1.167z" fill="#2694F5"/><path d="M15.5 2v5M13 4.5h5" stroke="#2694F5" stroke-width="1.2" stroke-linecap="round"/><path fill="#2694F5" d="M11 37l2.828-2.828L16.657 37l-2.829 2.828z"/><path d="M3.5 21v5M1 23.5h5M92.5 5v5M90 7.5h5" stroke="#2694F5" stroke-width="1.2" stroke-linecap="round"/></svg><svg fill="none" viewBox="0 0 87 71" id="feature-3" xmlns="http://www.w3.org/2000/svg"><path d="M80.882 63.09L87 56.97l-2.825-2.825L87 51.321l-6.118-6.118-3.39 3.39-8.573-8.573 3.39-3.39-6.118-6.118-3.39 3.39-1.793-1.792 3.39-3.39-6.118-6.12-2.26 2.26-3.39-3.39-1.13 1.13-9.04-9.04-1.13 1.13-7.911-7.91-1.695 1.695L23.248 0 16 7.248l8.476 8.476-1.696 1.695 7.91 7.91-1.13 1.13 9.041 9.041-1.13 1.13 3.39 3.39-2.26 2.26 6.119 6.12 3.39-3.39 1.792 1.792-3.39 3.39 6.118 6.118 3.39-3.39 8.573 8.573-3.39 3.39L67.32 71l6.78-6.78L80.88 71l5.32-5.32-1.598-1.597-3.721 3.721-5.183-5.182 2.358-2.358 2.825 2.825zm0-3.196l-1.228-1.228 2.923-2.922 1.227 1.227-2.922 2.923zM58.28 25.797l2.923 2.923-7.443 7.442-2.922-2.922 7.442-7.443zM19.196 7.248l4.052-4.052 2.923 2.922-4.053 4.053-2.922-2.923zm4.52 4.52l4.052-4.052 2.358 2.357-4.053 4.053-2.357-2.357zm2.26 5.65l7.443-7.442 2.357 2.358-7.442 7.442-2.358-2.357zm6.78 9.041l2.592-2.59-1.598-1.599-1.461 1.462-2.358-2.358 7.443-7.442 2.357 2.357-4.85 4.851 1.597 1.598 5.981-5.981 7.443 7.442-9.703 9.703-7.442-7.443zm7.911 10.171L52.63 24.667l1.792 1.792L42.46 38.422l-1.792-1.792zm4.053 8.573l-2.923-2.923 7.443-7.442 2.922 2.922-7.442 7.443zm4.988-1.793l9.703-9.702 1.792 1.792-9.703 9.703-1.792-1.793zm2.922 9.703l-2.922-2.922L66.19 33.708l2.922 2.922L52.63 53.113zm4.988-1.792l9.703-9.703 1.792 1.792-9.703 9.703-1.792-1.792zm6.78 6.78l7.112-7.111-1.598-1.598-7.111 7.111-1.793-1.792 9.703-9.703 1.793 1.793-1.462 1.46 1.598 1.599 1.461-1.461 1.793 1.792-9.703 9.703-1.792-1.793zm2.923 9.703l-2.922-2.922 16.483-16.483 2.922 2.922-16.483 16.483z" fill="#2694F5"/><path d="M12.225 38.202l2.689 4.215m-3.453-.763l4.216-2.689" stroke="#2694F5" stroke-width="1.2" stroke-linecap="round"/><path fill="#2694F5" d="M20.713 50.58l.863-3.907 3.906.864-.863 3.906z"/><path d="M79.234 16.807l2.689 4.216m-3.452-.764l4.215-2.689m-70.36 43.104l2.689 4.215m-3.452-.763l4.215-2.689" stroke="#2694F5" stroke-width="1.2" stroke-linecap="round"/></svg><svg fill="none" viewBox="0 0 108 59" id="feature-4" xmlns="http://www.w3.org/2000/svg"><mask id="aja" maskUnits="userSpaceOnUse" x="0" y="0" width="108" height="59"><path fill="#fff" d="M0 0h108v59H0z"/></mask><g mask="url(#aja)"><path d="M88.742 2H51.484a2.256 2.256 0 00-2.258 2.25v1.125h-22.58a2.256 2.256 0 00-2.259 2.25v2.25c0 1.24 1.013 2.25 2.258 2.25h2.07l-1.86 12.059a1.13 1.13 0 01-.697.873l-3.03 1.207A3.362 3.362 0 0021 29.398v16.477c0 1.24 1.013 2.25 2.258 2.25h3.465C27.282 52.557 31.08 56 35.677 56c4.598 0 8.396-3.443 8.955-7.875h8.06C53.25 52.557 57.049 56 61.646 56a9.042 9.042 0 007.903-4.653A9.039 9.039 0 0077.453 56c4.198 0 7.728-2.874 8.735-6.75h2.555A2.256 2.256 0 0091 47V4.25C91 3.01 89.987 2 88.742 2zM26.723 45.875h-3.465v-2.25h4.052a8.93 8.93 0 00-.587 2.25zm8.954 7.875c-3.735 0-6.774-3.027-6.774-6.75s3.039-6.75 6.774-6.75c3.736 0 6.775 3.027 6.775 6.75s-3.039 6.75-6.775 6.75zm0-15.75c-.78 0-1.534.11-2.258.296V27.875h11.29v13.5h-1.992A9.028 9.028 0 0035.677 38zm-2.01-12.375l1.807-9h9.236v9H33.668zm13.775 20.25h-2.81a8.938 8.938 0 00-.587-2.25h4.687l-1.29 2.25zm1.784-4.5h-2.258v-27H33.624l-2.44 12.154-.022 12.688a9.073 9.073 0 00-2.524 2.158h-5.38v-4.5h3.387v-2.25h-3.387v-2.25h3.387v-2.25h-3.387v-.727c0-.462.279-.873.71-1.044l3.03-1.207a3.395 3.395 0 002.09-2.621L31 12.125h18.225v29.25zm0-31.5H26.645v-2.25h22.58v2.25zm3.465 36h-2.649l3.226-5.625h2.423a8.973 8.973 0 00-3 5.625zm8.954 7.875c-3.736 0-6.774-3.027-6.774-6.75s3.038-6.75 6.774-6.75S68.42 43.277 68.42 47s-3.038 6.75-6.774 6.75zm7.903-11.097A9.068 9.068 0 0067.6 40.25h3.897a9.03 9.03 0 00-1.949 2.403zm7.904 11.097c-3.736 0-6.775-3.027-6.775-6.75s3.039-6.75 6.775-6.75 6.774 3.027 6.774 6.75-3.038 6.75-6.774 6.75zM88.742 47h-2.258c0-.779-.11-1.529-.297-2.25h2.555V47zm0-4.5h-3.48a9.086 9.086 0 00-1.856-2.25h5.336v2.25zm0-4.5H51.958l-.474.827V4.25h37.258V38z" fill="#2694F5"/><path d="M43 30h-5v2h5v-2zm-7.5 13a4.504 4.504 0 00-4.5 4.5c0 2.482 2.018 4.5 4.5 4.5s4.5-2.018 4.5-4.5-2.018-4.5-4.5-4.5zm0 6.75c-1.24 0-2.25-1.01-2.25-2.25s1.01-2.25 2.25-2.25 2.25 1.01 2.25 2.25-1.01 2.25-2.25 2.25zm26-6.75a4.504 4.504 0 00-4.5 4.5c0 2.482 2.018 4.5 4.5 4.5s4.5-2.018 4.5-4.5-2.018-4.5-4.5-4.5zm0 6.75c-1.24 0-2.25-1.01-2.25-2.25s1.01-2.25 2.25-2.25 2.25 1.01 2.25 2.25-1.01 2.25-2.25 2.25zm16-6.75a4.504 4.504 0 00-4.5 4.5c0 2.482 2.018 4.5 4.5 4.5s4.5-2.018 4.5-4.5-2.018-4.5-4.5-4.5zm0 6.75c-1.24 0-2.25-1.01-2.25-2.25s1.01-2.25 2.25-2.25 2.25 1.01 2.25 2.25-1.01 2.25-2.25 2.25zM78 14H57v2h21v-2zm-4 5H57v2h17v-2zm-3 4H57v2h14v-2zm12-9h-2v2h2v-2z" fill="#2694F5"/><path d="M4.225 7.202l2.689 4.215m-3.453-.763l4.216-2.689" stroke="#2694F5" stroke-width="1.2" stroke-linecap="round"/><path fill="#2694F5" d="M12.713 19.58l.863-3.907 3.906.864-.863 3.906z"/><path d="M4.326 29.674l2.689 4.215m-3.452-.763l4.215-2.689m91.33 6.219l2.689 4.215m-3.453-.763l4.216-2.69" stroke="#2694F5" stroke-width="1.2" stroke-linecap="round"/></g></svg><svg fill="none" viewBox="0 0 114 75" id="feature-5" xmlns="http://www.w3.org/2000/svg"><mask id="aka" maskUnits="userSpaceOnUse" x="0" y="0" width="114" height="75"><path fill="#fff" d="M0 0h114v75H0z"/></mask><g mask="url(#aka)"><path d="M68.643 61.81A3.361 3.361 0 0072 58.452a3.361 3.361 0 00-3.357-3.357 3.353 3.353 0 00-3.151 2.238h-4.683V50.62h4.683a3.353 3.353 0 003.15 2.238A3.361 3.361 0 0072 49.5a3.361 3.361 0 00-3.357-3.357 3.353 3.353 0 00-3.151 2.238h-4.683v-6.714h4.683a3.353 3.353 0 003.15 2.238A3.361 3.361 0 0072 40.548a3.361 3.361 0 00-3.357-3.358 3.353 3.353 0 00-3.151 2.239h-4.683V37.19h-2.238v-4.682a3.353 3.353 0 002.239-3.15A3.361 3.361 0 0057.452 26a3.361 3.361 0 00-3.357 3.357c0 1.457.94 2.688 2.238 3.151v4.682H49.62v-4.682a3.353 3.353 0 002.238-3.15A3.361 3.361 0 0048.5 26a3.361 3.361 0 00-3.357 3.357c0 1.457.939 2.688 2.238 3.151v4.682h-6.714v-4.682a3.353 3.353 0 002.238-3.15A3.361 3.361 0 0039.548 26a3.361 3.361 0 00-3.358 3.357c0 1.457.94 2.688 2.239 3.151v4.682H36.19v2.239h-4.682a3.353 3.353 0 00-3.15-2.239A3.361 3.361 0 0025 40.548a3.361 3.361 0 003.357 3.357 3.353 3.353 0 003.151-2.238h4.683v6.714h-4.683a3.353 3.353 0 00-3.15-2.238A3.361 3.361 0 0025 49.5a3.361 3.361 0 003.357 3.357 3.353 3.353 0 003.151-2.238h4.683v6.714h-4.683a3.353 3.353 0 00-3.15-2.238A3.361 3.361 0 0025 58.452a3.361 3.361 0 003.357 3.358 3.353 3.353 0 003.151-2.239h4.683v2.239h2.238v4.682a3.353 3.353 0 00-2.239 3.15A3.361 3.361 0 0039.548 73a3.361 3.361 0 003.357-3.357 3.353 3.353 0 00-2.238-3.151v-4.683h6.714v4.683a3.353 3.353 0 00-2.238 3.15A3.361 3.361 0 0048.5 73a3.361 3.361 0 003.357-3.357 3.353 3.353 0 00-2.238-3.151v-4.683h6.714v4.683a3.353 3.353 0 00-2.238 3.15A3.361 3.361 0 0057.452 73a3.361 3.361 0 003.358-3.357 3.353 3.353 0 00-2.239-3.151v-4.683h2.239v-2.238h4.682a3.353 3.353 0 003.15 2.239zm0-4.477a1.12 1.12 0 11-.001 2.24 1.12 1.12 0 010-2.24zm0-8.952a1.12 1.12 0 110 2.239 1.12 1.12 0 010-2.239zm0-8.952a1.12 1.12 0 110 2.238 1.12 1.12 0 010-2.238zm-40.286 2.238a1.12 1.12 0 11.001-2.24 1.12 1.12 0 010 2.24zm0 8.952a1.12 1.12 0 110-2.239 1.12 1.12 0 010 2.239zm0 8.952a1.12 1.12 0 110-2.238 1.12 1.12 0 010 2.238zm29.095-31.333a1.12 1.12 0 010 2.238 1.12 1.12 0 010-2.238zm-8.952 0a1.12 1.12 0 010 2.238 1.12 1.12 0 010-2.238zm-8.952 0a1.12 1.12 0 010 2.238 1.12 1.12 0 010-2.238zm0 42.524a1.12 1.12 0 110-2.239 1.12 1.12 0 010 2.239zm8.952 0a1.12 1.12 0 110-2.239 1.12 1.12 0 010 2.239zm8.952 0a1.12 1.12 0 11.001-2.24 1.12 1.12 0 010 2.24zm1.12-11.19H38.428V39.428H58.57V59.57z" fill="#2694F5"/><path d="M89.917 21.05v.001a17.888 17.888 0 00-1.933-4.652l3.598-3.6-6.383-6.38-3.599 3.598a17.846 17.846 0 00-4.651-1.934V3h-9.026v5.083a17.88 17.88 0 00-4.651 1.933l-3.6-3.599L53.29 12.8l3.598 3.598a17.89 17.89 0 00-1.934 4.653H51v2.257h5.774l.184-.904c.4-1.976 1.176-3.84 2.304-5.545l.509-.769-3.291-3.29 3.191-3.191 3.291 3.29.769-.508a15.616 15.616 0 015.545-2.304l.904-.183V5.256h4.512v4.647l.904.184c1.977.4 3.841 1.176 5.545 2.304l.768.509L85.2 9.609l3.192 3.19-3.29 3.292.508.768a15.633 15.633 0 012.304 5.545l.184.904h4.646v4.512h-4.646l-.184.904a15.62 15.62 0 01-2.304 5.544l-.509.77 3.291 3.29L85.2 41.52l-3.29-3.29-.769.508a15.615 15.615 0 01-5.545 2.304l-.904.184V47h2.257v-3.954a17.83 17.83 0 004.651-1.934l3.6 3.598 6.382-6.383-3.598-3.599a17.888 17.888 0 001.933-4.652H95V21.05h-5.083z" fill="#2694F5"/><path d="M72.5 34.7V37C78.841 37 84 31.841 84 25.5S78.841 14 72.5 14 61 19.159 61 25.5h2.3c0-5.073 4.127-9.2 9.2-9.2 5.073 0 9.2 4.127 9.2 9.2 0 5.073-4.127 9.2-9.2 9.2zM57 41H41v2h16v-2zm-1 14h-2v2h2v-2zm-4 0H41v2h11v-2zm15 15.766L67.453 73A35.207 35.207 0 0095 45.453L92.766 45A32.922 32.922 0 0167 70.766zM54 6.233L53.547 4A35.207 35.207 0 0026 31.548l2.234.452A32.927 32.927 0 0154 6.233zM16.542 21.42l.863-3.906 3.906.863-.864 3.906z" fill="#2694F5"/><path d="M2.326 31.674l2.689 4.215m-3.452-.763l4.215-2.689m.33-28.781L8.797 7.87m-3.453-.763l4.216-2.69m99.548 20.238l2.689 4.216m-3.453-.763l4.216-2.69" stroke="#2694F5" stroke-width="1.2" stroke-linecap="round"/></g></svg><svg fill="none" viewBox="0 0 128 74" id="logo" xmlns="http://www.w3.org/2000/svg"><path fill="#FFBD46" d="M39 4h51v50H39z"/><path d="M30.946 22.645c0 1.43-.207 2.804-.621 4.122a13.302 13.302 0 01-1.638 3.558 13.586 13.586 0 01-2.541 2.993 13.672 13.672 0 01-3.275 2.146L30.946 48H22.87l-7.172-11.125h-4.63l2.766-6.776h2.937c2.033 0 3.783-.734 5.252-2.203a7.947 7.947 0 001.58-2.428 7.27 7.27 0 00.565-2.823 7.27 7.27 0 00-.564-2.824 7.275 7.275 0 00-1.582-2.372c-1.468-1.468-3.218-2.202-5.251-2.202h-8.02V48H1.977V8.471h14.796c1.957 0 3.783.376 5.477 1.129 1.732.753 3.238 1.77 4.518 3.05a14.485 14.485 0 013.05 4.517c.752 1.694 1.129 3.52 1.129 5.478zm46.03-14.23h7.398v39.529h-6.776v-28.01l-13.045 20.16-12.988-20.16v28.01h-6.777V8.413h7.398l12.367 19.2 12.424-19.2zm48.141 6.832h-19.821v9.6h14.738l1.695 6.776h-16.433v9.6h19.821V48H98.519V8.47h26.598v6.777zM3.2 62.374c.603 0 1.05.16 1.34.48.298.32.447.788.447 1.405v.991c0 .618-.149 1.086-.447 1.406-.29.32-.737.479-1.34.479h-.566V70H1.436v-7.626H3.2zm-.566 1.09v2.582h.567c.188 0 .334-.051.435-.153.102-.102.153-.29.153-.566v-1.144c0-.276-.051-.465-.153-.567-.101-.101-.247-.152-.435-.152h-.567zm5.196 2.124h1.645v1.09H7.83v2.233H9.9V70H6.63v-7.626H9.9v1.09H7.83v2.124zm6.44 2.2l.817-5.413h1.666V70H15.62v-5.469L14.793 70H13.66l-.894-5.392V70h-1.045v-7.626h1.666l.883 5.415zm5.545.458c0 .276.054.472.163.588a.642.642 0 00.458.164.604.604 0 00.446-.164c.116-.116.175-.312.175-.588v-4.118c0-.276-.058-.468-.175-.577a.582.582 0 00-.446-.174.619.619 0 00-.458.174c-.109.109-.163.301-.163.577v4.118zm-1.199-4.041c0-.618.157-1.09.469-1.417.312-.334.762-.5 1.35-.5.589 0 1.04.166 1.352.5.312.327.468.8.468 1.417v3.965c0 .617-.156 1.093-.468 1.427-.313.327-.763.49-1.351.49-.589 0-1.039-.163-1.351-.49-.312-.334-.469-.81-.469-1.427v-3.965zM25.321 70h-1.198v-7.626h1.198v3.269h1.362v-3.269h1.22V70h-1.22v-3.268h-1.362V70zm4.192-7.626h3.704v1.09h-1.253V70h-1.199v-6.536h-1.252v-1.09zm10.64 5.415l.817-5.415h1.666V70h-1.133v-5.469L40.677 70h-1.133l-.894-5.392V70h-1.045v-7.626h1.666l.883 5.415zM48.476 70h-1.21l-.207-1.383h-1.47L45.382 70h-1.1l1.22-7.626h1.753L48.475 70zm-2.735-2.418h1.155l-.577-3.857-.578 3.857zm7.857-.425v1.013c0 .617-.152 1.093-.457 1.427-.298.327-.741.49-1.33.49-.588 0-1.034-.163-1.34-.49-.297-.334-.446-.81-.446-1.427v-3.965c0-.618.149-1.09.447-1.417.305-.334.751-.5 1.34-.5.588 0 1.03.166 1.329.5.305.327.457.8.457 1.417v.74h-1.133v-.817c0-.276-.058-.468-.174-.577a.582.582 0 00-.447-.174.619.619 0 00-.457.174c-.11.109-.164.301-.164.577v4.118c0 .276.055.469.164.578a.642.642 0 00.457.163.604.604 0 00.447-.163c.116-.11.174-.302.174-.578v-1.09h1.133zm5.291 0v1.013c0 .617-.152 1.093-.457 1.427-.298.327-.74.49-1.329.49-.588 0-1.035-.163-1.34-.49-.298-.334-.447-.81-.447-1.427v-3.965c0-.618.15-1.09.447-1.417.305-.334.752-.5 1.34-.5.588 0 1.031.166 1.329.5.305.327.457.8.457 1.417v.74h-1.132v-.817c0-.276-.058-.468-.175-.577a.582.582 0 00-.446-.174.619.619 0 00-.458.174c-.109.109-.163.301-.163.577v4.118c0 .276.054.469.163.578a.642.642 0 00.458.163.604.604 0 00.446-.163c.117-.11.175-.302.175-.578v-1.09h1.133zM64.584 70h-1.21l-.206-1.383h-1.47L61.49 70h-1.1l1.22-7.626h1.754L64.584 70zm-2.734-2.418h1.154l-.577-3.857-.577 3.857zm7.835-2.125l1.416-3.082h1.198l-1.47 3.093L72.299 70h-1.23l-1.09-3.377-.294.577V70h-1.188v-2.8l-.294-.588L67.113 70h-1.23l1.481-4.5-1.481-3.126h1.198l1.416 3.083v-3.082h1.188v3.082zM75.094 70h-1.199v-7.626h1.199v3.269h1.361v-3.269h1.22V70h-1.22v-3.268h-1.361V70zm4.54 0v-7.626h1.198v2.866h.566c.603 0 1.05.16 1.34.479.298.32.447.788.447 1.405v.991c0 .618-.149 1.086-.447 1.406-.29.32-.737.479-1.34.479h-1.764zm1.764-1.09c.19 0 .334-.05.436-.152.102-.102.153-.29.153-.566v-1.144c0-.276-.051-.465-.153-.567-.102-.101-.247-.152-.436-.152h-.566v2.582h.566zM83.871 70v-7.626h1.199V70h-1.2zm7.158-7.626l-1.252 3.704L91.117 70h-1.264l-.98-3.017L87.88 70h-1.12l1.34-3.922-1.253-3.704h1.242l.904 2.811.926-2.81h1.111zm6.122 4.587l-.37.697V70h-1.199v-7.626h1.199v3.323l1.569-3.323h1.198l-1.667 3.4L99.548 70h-1.231l-1.166-3.04zm5.796-4.587c.603 0 1.05.16 1.34.48.298.32.447.788.447 1.405v.991c0 .618-.149 1.086-.447 1.406-.29.32-.737.479-1.34.479h-.566V70h-1.198v-7.626h1.764zm-.566 1.09v2.582h.566c.189 0 .334-.051.436-.153.102-.102.153-.29.153-.566v-1.144c0-.276-.051-.465-.153-.567-.102-.101-.247-.152-.436-.152h-.566zm5.196 2.124h1.645v1.09h-1.645v2.233h2.069V70h-3.268v-7.626h3.268v1.09h-2.069v2.124zm7.376 1.569v1.013c0 .617-.152 1.093-.457 1.427-.298.327-.741.49-1.329.49s-1.035-.163-1.34-.49c-.298-.334-.447-.81-.447-1.427v-3.965c0-.618.149-1.09.447-1.417.305-.334.752-.5 1.34-.5.588 0 1.031.166 1.329.5.305.327.457.8.457 1.417v.74h-1.133v-.817c0-.276-.058-.468-.174-.577a.583.583 0 00-.447-.174.618.618 0 00-.457.174c-.109.109-.163.301-.163.577v4.118c0 .276.054.469.163.578a.642.642 0 00.457.163.604.604 0 00.447-.163c.116-.11.174-.302.174-.578v-1.09h1.133zm3.015-1.569h1.645v1.09h-1.645v2.233h2.07V70h-3.268v-7.626h3.268v1.09h-2.07v2.124zm3.564 3.334c.138 0 .251-.008.338-.022a.446.446 0 00.229-.098.463.463 0 00.119-.24c.029-.109.048-.25.055-.425l.196-5.763h3.388V70h-1.22v-6.536h-1.046l-.131 4.608c-.022.697-.17 1.194-.446 1.492-.269.298-.701.447-1.297.447h-.185v-1.09z" fill="#313741"/></svg><svg fill="none" viewBox="0 0 104 113" id="master" xmlns="http://www.w3.org/2000/svg"><circle cx="53" cy="53" r="51" fill="#FFBD46"/><circle cx="15" cy="38" r="3.5" stroke="#313741" stroke-width="3"/><path d="M94.5 42v11M89 47.5h11" stroke="#313741" stroke-width="3" stroke-linecap="round"/><path d="M95.392 91.635c-1.099-6.509-5.724-11.849-12.07-13.936l-14.086-4.633V71H65.96v3.032l-2.444 9.644-6.613-7.83h-4.808l-6.613 7.83-2.443-9.644V71h-3.274v2.066L25.68 77.7c-6.345 2.087-10.97 7.427-12.07 13.936L10 113h89l-3.608-21.365zm-70.205 18.134h-11.32l2.973-17.603c.812-4.805 3.987-8.815 8.414-10.81l1.406 13.875-1.473 14.538zm55.337 0H62.698c.01-1.134.028-2.224.056-3.231h14.668v-3.23H62.888c.064-1.188.138-2.262.22-3.231h14.314v-3.23H63.445c.391-3.05.789-4.32.797-4.343L62.687 92l-1.554-.51c-.067.2-1.591 4.907-1.71 18.279h-3.285V83.923h-3.274v25.846h-3.286c-.118-13.372-1.642-18.08-1.71-18.28l-3.108 1.015c.008.024.406 1.294.797 4.342H31.58v3.231h14.312c.082.969.156 2.043.22 3.231H31.58v3.23h14.668c.03 1.007.046 2.097.055 3.231H28.478l1.473-14.538L28.428 80.2l11.816-3.885 3.628 14.317 9.758-11.555h1.74l9.76 11.555 3.628-14.317L80.573 80.2l-1.522 15.03 1.473 14.539zm3.29 0l-1.472-14.538 1.406-13.875c4.427 1.995 7.603 6.003 8.413 10.81l2.974 17.603h-11.32z" fill="#313741"/><path d="M28.509 42.584c-1.15 1.396-1.87 3.154-1.87 5.092 0 4.16 3.196 7.56 7.28 8.017a17.692 17.692 0 004.556 7.609l6.392 6.322A8.187 8.187 0 0050.66 72h7.682a8.187 8.187 0 005.793-2.376l6.392-6.322a17.7 17.7 0 004.556-7.609c4.082-.457 7.278-3.856 7.278-8.017 0-1.938-.72-3.696-1.87-5.092C82.513 41.98 84 40.142 84 37.946c0-2.682-2.206-4.865-4.917-4.865h-.232C77.544 23.51 70.484 15.5 61.056 12.913V12H47.944v.913c-9.428 2.586-16.49 10.597-17.795 20.168h-.232c-2.711 0-4.917 2.183-4.917 4.865 0 2.196 1.486 4.035 3.509 4.638zm1.408 5.092c0-2.112 1.375-3.895 3.277-4.567v7.58a18 18 0 00.078 1.578c-1.943-.65-3.355-2.452-3.355-4.591zm42.61 3.013c0 3.898-1.533 7.563-4.32 10.32l-6.391 6.322a4.97 4.97 0 01-3.476 1.426h-7.682a4.974 4.974 0 01-3.476-1.426l-6.391-6.322c-2.786-2.757-4.32-6.422-4.32-10.32V42.81h36.055v7.878zm3.201 1.576c.046-.52.078-1.046.078-1.576v-7.58c1.902.672 3.277 2.455 3.277 4.567 0 2.139-1.412 3.94-3.355 4.589zM47.944 16.29v13.547h3.278V15.243h6.556v14.595h3.278V16.29c7.596 2.437 13.265 8.982 14.497 16.79H33.447c1.232-7.808 6.901-14.353 14.497-16.79zM29.917 36.324h49.166c.903 0 1.64.728 1.64 1.622 0 .894-.737 1.622-1.64 1.622H29.917a1.633 1.633 0 01-1.64-1.622c0-.894.737-1.622 1.64-1.622z" fill="#313741"/><path d="M67 27h-3v3h3v-3zm-23 0h-3v3h3v-3z" fill="#313741"/><path d="M7 2v10M2 7h10" stroke="#313741" stroke-width="3" stroke-linecap="round"/></svg><svg fill="none" viewBox="0 0 19 19" id="phone-icon" xmlns="http://www.w3.org/2000/svg"><path d="M13.617 13.18l-.619.928c-.123.185-.287.343-.502.4-.705.187-2.576.27-5.425-2.579C4.22 9.08 4.305 7.21 4.49 6.504c.058-.215.216-.379.4-.502l.929-.619c.69-.46.877-1.394.417-2.085L4.484.67A1.503 1.503 0 002.641.122l-.79.339A2.76 2.76 0 00.468 1.764c-.244.488-.433 1.003-.46 1.548-.08 1.718.297 5.952 5.013 10.668 4.715 4.715 8.949 5.092 10.667 5.011.545-.026 1.06-.215 1.548-.459a2.763 2.763 0 001.303-1.383l.34-.79a1.503 1.503 0 00-.549-1.843l-2.628-1.753a1.503 1.503 0 00-2.085.417z" fill="#2694F5"/></svg><svg fill="none" viewBox="0 0 119 126" id="rocket" xmlns="http://www.w3.org/2000/svg"><circle cx="68" cy="58" r="51" fill="#FFBD46"/><g clip-path="url(#aoclip0)"><path d="M52.735 55.43A71.124 71.124 0 0156 52.399L53.874 50A70.77 70.77 0 0040 66.338L42.753 68a67.51 67.51 0 019.982-12.57zM41 71.635L37.85 70A74.611 74.611 0 0036 73.527L39.233 75c.56-1.14 1.15-2.262 1.767-3.365z" fill="#313741"/><path d="M96.075 25l-10.13 1.994a78.968 78.968 0 00-40.474 21.66 79.14 79.14 0 00-6.793 7.737c-16.34 1.468-21.107 13.477-21.302 13.998L17 71.38l8.595 8.596-2.09 4.476 1.617 1.618-3.284 6.567 11.525 11.525 6.567-3.284 1.617 1.617 4.478-2.089L54.618 109l.992-.376c.52-.197 12.531-4.963 13.997-21.304a79.515 79.515 0 007.738-6.793 78.947 78.947 0 0021.661-40.472l1.963-9.807.031-.323A4.932 4.932 0 0096.075 25zM20.88 70.619c1.253-2.409 5.404-8.672 15.155-10.557a79.05 79.05 0 00-6.332 11.103l-2.634 5.643-6.19-6.19zm13.13 29.547l-8.177-8.176 1.736-3.473 9.913 9.913-3.473 1.736zm21.37 4.953l-6.19-6.19 5.642-2.633a78.964 78.964 0 0011.105-6.334c-1.884 9.756-8.153 13.906-10.557 15.157zm19.642-26.913a75.714 75.714 0 01-21.58 15.114l-11.2 5.229-14.794-14.793 5.23-11.201a75.722 75.722 0 0115.114-21.58 75.634 75.634 0 0132.901-19.332l13.661 13.661a75.616 75.616 0 01-19.332 32.901zM95.787 39.41c-.148.737-.314 1.47-.483 2.2L84.388 30.694c.73-.169 1.463-.335 2.2-.482l9.62-1.925a1.646 1.646 0 011.501 1.502l-1.922 9.621z" fill="#313741"/><path d="M33 85.883L40.118 93 61 75.915 50.087 65 33 85.883zm23.049-10.215L40.343 88.523l-2.861-2.863 12.85-15.708 5.717 5.716zM71 42c-7.168 0-13 5.833-13 13 0 7.168 5.832 13 13 13 7.167 0 13-5.832 13-13 0-7.167-5.833-13-13-13zm0 22.75c-5.377 0-9.75-4.373-9.75-9.75s4.373-9.75 9.75-9.75c5.376 0 9.75 4.373 9.75 9.75s-4.374 9.75-9.75 9.75z" fill="#313741"/><path d="M71.5 48a6.506 6.506 0 00-6.5 6.5c0 3.585 2.915 6.5 6.5 6.5s6.5-2.915 6.5-6.5-2.915-6.5-6.5-6.5zm0 9.75a3.253 3.253 0 01-3.25-3.25 3.253 3.253 0 013.25-3.25 3.253 3.253 0 013.25 3.25 3.253 3.253 0 01-3.25 3.25zM62 124.515L65.515 121 68 123.486 64.486 127 62 124.515zM97.714 88l-14.562 14.562a4.765 4.765 0 00-2.077-.487 4.855 4.855 0 00-4.85 4.85c0 .746.183 1.445.487 2.077L67 118.714 69.286 121l9.712-9.712c.632.304 1.33.486 2.077.486a4.855 4.855 0 004.85-4.849c0-.747-.183-1.445-.487-2.077L100 90.286 97.714 88zm-16.639 20.541a1.617 1.617 0 11.001-3.234 1.617 1.617 0 010 3.234zM0 124.515L3.514 121 6 123.485 2.485 127 0 124.515zm5-5.834L24.68 99l2.32 2.319L7.32 121 5 118.681zm8 .833L16.515 116 19 118.485 15.486 122 13 119.514zm5-5.803L27.71 104l2.29 2.289L20.289 116 18 113.711zm-13-3.197L8.514 107 11 109.485 7.485 113 5 110.514zm5-4.803L19.711 96 22 98.289 12.289 108 10 105.711zM5 84.65L11.65 78 14 80.35 7.35 87 5 84.65zm-5 4.864L3.515 86 6 88.485 2.485 92 0 89.514zm46 29.135L52.65 112l2.35 2.351L48.35 121 46 118.649zm-5 5.865L44.514 121 47 123.485 43.486 127 41 124.514z" fill="#313741"/><circle cx="47" cy="30" r="3.5" stroke="#313741" stroke-width="3"/></g><path d="M109.5 46v11m-5.5-5.5h11M74 2v10m-5-5h10" stroke="#313741" stroke-width="3" stroke-linecap="round"/><defs><clipPath id="aoclip0"><path fill="#fff" transform="translate(0 25)" d="M0 0h101v101H0z"/></clipPath></defs></svg><svg fill="none" viewBox="0 0 20 20" id="skype" xmlns="http://www.w3.org/2000/svg"><g clip-path="url(#apclip0)" fill="#009FDD"><path d="M19.456 12.004c.14-.661.21-1.334.21-2.004a9.604 9.604 0 00-2.83-6.835A9.603 9.603 0 0010 .333c-.668 0-1.341.07-2.003.211A5.606 5.606 0 005.592 0 5.598 5.598 0 000 5.592c0 .83.188 1.657.544 2.405A9.69 9.69 0 00.334 10a9.604 9.604 0 002.83 6.835A9.604 9.604 0 0010 19.668c.669 0 1.341-.071 2.003-.211A5.608 5.608 0 0014.41 20 5.598 5.598 0 0020 14.409a5.61 5.61 0 00-.544-2.405zm-5.047 6.824c-.726 0-1.417-.17-2.057-.508a.586.586 0 00-.406-.052 8.541 8.541 0 01-1.946.227c-4.684 0-8.495-3.81-8.495-8.495 0-.65.076-1.305.227-1.945a.587.587 0 00-.052-.407 4.367 4.367 0 01-.508-2.056 4.425 4.425 0 014.42-4.42c.725 0 1.416.17 2.055.507.125.066.27.085.407.053A8.546 8.546 0 0110 1.505c4.684 0 8.495 3.81 8.495 8.495a8.54 8.54 0 01-.226 1.945.585.585 0 00.052.407 4.424 4.424 0 01-3.912 6.476z"/><path d="M10 5.47c1.728 0 3.189.903 3.189 1.972a.586.586 0 101.172 0c0-.884-.484-1.698-1.363-2.294-.81-.548-1.874-.85-2.998-.85s-2.189.302-2.998.85c-.879.596-1.363 1.41-1.363 2.294 0 .883.484 1.698 1.363 2.294.81.548 1.874.85 2.998.85 1.728 0 3.189.903 3.189 1.972S11.729 14.53 10 14.53c-1.728 0-3.189-.903-3.189-1.972a.586.586 0 10-1.172 0c0 .883.484 1.698 1.363 2.293.81.548 1.874.85 2.998.85s2.189-.302 2.998-.85c.879-.595 1.363-1.41 1.363-2.293 0-.884-.484-1.699-1.363-2.294-.81-.548-1.874-.85-2.998-.85-1.728 0-3.189-.903-3.189-1.972 0-1.07 1.46-1.972 3.19-1.972z"/></g><defs><clipPath id="apclip0"><path fill="#fff" d="M0 0h20v20H0z"/></clipPath></defs></svg><svg fill="none" viewBox="0 0 80 68" id="tax" xmlns="http://www.w3.org/2000/svg"><circle cx="39" cy="29" r="28" fill="#FFBD46"/><mask id="aqa" maskUnits="userSpaceOnUse" x="0" y="0" width="80" height="68"><path fill="#C4C4C4" d="M0 0h80v68H0z"/></mask><g mask="url(#aqa)"><path d="M16 5v47.59c0 .625.134 1.239.401 1.83.227.489.526.922.892 1.288l10 10c.367.367.801.667 1.293.893a4.37 4.37 0 001.824.4H68V5H16zm3.414 50H28v8.586L19.414 55zM66 65H30.41a2.36 2.36 0 01-.41-.045V53H18.045a2.36 2.36 0 01-.045-.41V7h48v58z" fill="#313741"/><path d="M22 36h10v2H22v-2zm0-4h40v2H22v-2zm0-5h6v2h-6v-2zm10 0h30v2H32v-2zm20-5.667l2-2.666 2 2.666V23h2v-2.333L55.25 17 58 13.333V11h-2v1.667l-2 2.666-2-2.666V11h-2v2.333L52.75 17 50 20.667V23h2v-1.667zM40 21h4v2h2v-3l-2.219-9h-3.562l-2.188 8.757L38 23h2v-2zm2.219-8l1.5 6h-3.438l1.5-6h.438zM30 23h2V13h4v-2H26v2h4v10zm16 38c5.314 0 9.46-3.114 10.785-8H62v-8h-5.215C55.46 40.114 51.314 37 46 37s-9.46 3.114-10.785 8H30v8h5.215c1.325 4.886 5.471 8 10.785 8zm0-2c-4.238 0-7.467-2.271-8.697-6h2.108c1.423 2.542 3.784 4 6.589 4 2.805 0 5.166-1.458 6.589-4h2.108c-1.23 3.729-4.459 6-8.697 6zm-4.19-6h8.38c-.836 1.026-2.154 2-4.19 2-2.036 0-3.353-.974-4.19-2zM46 39c4.238 0 7.467 2.271 8.697 6h-2.108c-1.423-2.542-3.784-4-6.589-4-2.805 0-5.166 1.458-6.589 4h-2.108c1.23-3.729 4.459-6 8.697-6zm4.19 6h-8.38c.836-1.026 2.154-2 4.19-2 2.036 0 3.353.974 4.19 2zM32 47h28v4H32v-4z" fill="#313741"/><path d="M4.5 22v5M2 24.5h5" stroke="#313741" stroke-width="1.2" stroke-linecap="round"/><path fill="#313741" d="M5 37l2.828-2.828L10.657 37l-2.829 2.828z"/><path d="M76.5 8v5M74 10.5h5" stroke="#313741" stroke-width="1.2" stroke-linecap="round"/></g></svg><svg fill="none" viewBox="0 0 20 20" id="telegram" xmlns="http://www.w3.org/2000/svg"><g clip-path="url(#arclip0)"><path d="M.346 9.33l4.89 2.438c.19.093.413.086.594-.02l4.353-2.53-2.635 2.335a.626.626 0 00-.21.468v5.687c0 .6.765.853 1.124.376l2.115-2.81 5.228 2.977a.626.626 0 00.922-.42l3.26-16.25a.625.625 0 00-.84-.705L.397 8.188A.626.626 0 00.346 9.33zm18.191-6.874l-2.865 14.28-4.955-2.821a.626.626 0 00-.809.168l-1.32 1.755v-3.536l7.125-6.314c.564-.499-.084-1.386-.728-1.008l-9.492 5.518-3.326-1.657 16.37-6.385z" fill="#2AA1DE"/></g><defs><clipPath id="arclip0"><path fill="#fff" d="M0 0h20v20H0z"/></clipPath></defs></svg><svg fill="none" viewBox="0 0 18 20" id="viber" xmlns="http://www.w3.org/2000/svg"><g clip-path="url(#asclip0)" fill="#8560FA"><path d="M11.864 0c.286.05.576.086.859.149 2.744.598 4.84 2.895 5.202 5.731.069.54.065 1.092.073 1.636.011.88.003 1.756 0 2.637-.012 3.325-2.245 6.103-5.432 6.729a6.87 6.87 0 01-1.267.11c-1.072.015-2.145.007-3.221.003-.145 0-.24.04-.34.157a94.665 94.665 0 01-1.79 2.155 2.55 2.55 0 01-.649.56c-.523.297-1.103.066-1.301-.512a2.825 2.825 0 01-.13-.842 41.62 41.62 0 010-1.952c0-.14-.038-.215-.164-.282-2.351-1.29-3.6-3.306-3.684-6.044C-.014 9.108.013 7.98.017 6.858.02 3.568 2.204.814 5.34.133c.279-.059.561-.09.844-.133h5.679zM5.009 18.63c.069-.074.103-.109.134-.148.645-.779 1.294-1.553 1.93-2.34a.8.8 0 01.676-.32c1.18.007 2.363.011 3.542 0a5.967 5.967 0 001.153-.11c2.603-.556 4.397-2.832 4.405-5.56.003-1.099.003-2.198 0-3.298 0-.258-.012-.52-.046-.778-.386-2.848-2.683-4.898-5.485-4.902-1.542-.004-3.088-.016-4.63.008a5.932 5.932 0 00-1.484.2c-2.435.688-4.042 2.882-4.046 5.476-.004 1.1-.027 2.2.004 3.298.068 2.454 1.21 4.198 3.378 5.231.324.153.477.364.473.732-.015.822-.004 1.64-.004 2.512z"/><path d="M9.866 14.68c-1.099-.024-2.168-.412-3.145-1.053-1.694-1.107-2.927-2.602-3.519-4.593C2.897 8 2.847 6.956 3.29 5.943c.263-.603.637-1.123 1.244-1.397.714-.325 1.393-.215 1.985.313.23.204.443.43.649.661.634.709.641 1.784.019 2.508-.1.118-.214.223-.317.337-.156.172-.16.348.004.516.584.607 1.176 1.209 1.763 1.808.16.16.332.152.508-.004.19-.172.363-.368.576-.509.707-.462 1.603-.364 2.214.22.202.195.4.398.592.606.683.747.683 1.838.004 2.597-.638.713-1.546 1.088-2.665 1.08zM4.088 7.534c.057.352.091.708.18 1.053.324 1.271 1.03 2.312 1.961 3.188.977.924 2.088 1.589 3.443 1.714.755.07 1.454-.086 2.007-.673.271-.286.29-.68.038-.97a7.94 7.94 0 00-.591-.607c-.271-.246-.649-.235-.92.012-.095.086-.18.184-.27.274-.6.595-1.47.622-2.073.031a57.695 57.695 0 01-1.86-1.905c-.545-.59-.53-1.467.008-2.07.092-.102.187-.191.28-.293a.72.72 0 00-.005-1.017c-.149-.16-.305-.313-.458-.47-.35-.356-.752-.352-1.099.012-.447.477-.607 1.068-.641 1.721zm4.965-5.202c3.061.113 5.642 2.597 5.94 5.723.018.216.03.427.034.642.004.348-.237.607-.557.61-.321.004-.577-.242-.58-.594a5.487 5.487 0 00-.253-1.612c-.683-2.117-2.55-3.537-4.725-3.603-.378-.012-.576-.133-.668-.403a.58.58 0 01.485-.767c.107-.004.214.004.324.004z"/><path d="M12.748 8.53c0 .097.011.195-.004.289a.56.56 0 01-.572.489c-.287-.008-.508-.223-.55-.52-.042-.322-.057-.654-.152-.96a2.82 2.82 0 00-2.627-2.01c-.385-.012-.645-.254-.637-.599.008-.344.279-.579.66-.575 2.065.031 3.752 1.714 3.882 3.885z"/><path d="M8.847 6.983c.886.028 1.626.795 1.642 1.694.003.349-.222.615-.542.63-.321.02-.573-.223-.6-.567-.03-.36-.21-.548-.56-.587-.356-.039-.6-.301-.577-.622.023-.336.282-.56.637-.548z"/></g><defs><clipPath id="asclip0"><path fill="#fff" d="M0 0h18v20H0z"/></clipPath></defs></svg><svg fill="none" viewBox="0 0 29 31" id="vk" xmlns="http://www.w3.org/2000/svg"><g clip-path="url(#atclip0)"><path d="M14.675 25.188c4.195 0 2.7-2.84 3.023-3.656-.004-.61-.01-1.196.01-1.552.266.08.893.42 2.188 1.765 2 2.157 2.511 3.442 4.127 3.442h2.974c.942 0 1.433-.417 1.678-.767.237-.338.469-.932.215-1.857-.663-2.227-4.532-6.072-4.773-6.478.036-.075.094-.174.125-.226h-.003c.764-1.079 3.678-5.746 4.107-7.614a.026.026 0 00.003-.01c.232-.853.019-1.406-.2-1.719-.332-.467-.859-.704-1.57-.704h-2.974c-.996 0-1.751.537-2.133 1.514-.64 1.738-2.435 5.31-3.78 6.575a88.42 88.42 0 01.008-4.176c.043-1.983.183-3.912-1.741-3.912h-4.674c-1.206 0-2.36 1.407-1.11 3.079 1.091 1.465.392 2.28.627 6.345-.918-1.053-2.551-3.896-3.707-7.53-.324-.983-.814-1.893-2.195-1.893H1.926C.72 5.814 0 6.516 0 7.694c0 2.642 5.473 17.493 14.675 17.493zM4.9 7.75c.262 0 .289 0 .483.59 1.183 3.725 3.837 9.235 5.775 9.235 1.456 0 1.456-1.596 1.456-2.196l-.001-4.782c-.08-1.582-.62-2.37-.973-2.848l4.239.005c.002.022-.024 5.29.012 6.566 0 1.812 1.346 2.85 3.447.577 2.217-2.675 3.75-6.674 3.813-6.837.09-.232.169-.311.454-.311h2.985l-.003.012c-.272 1.356-2.955 5.678-3.853 7.02-.015.02-.028.043-.041.064-.395.69-.717 1.452.054 2.524h.001c.07.09.253.303.519.597.826.912 3.66 4.03 3.912 5.27-.166.029-.348.008-3.157.014-.598 0-1.066-.956-2.85-2.88-1.605-1.669-2.647-2.351-3.595-2.351-1.842 0-1.708 1.598-1.69 3.53.005 2.095-.007 1.433.006 1.564-.107.046-.415.136-1.219.136-7.667 0-12.66-13.008-12.852-15.495.067-.006.982-.002 3.077-.004z" fill="#3386CF"/></g><defs><clipPath id="atclip0"><path fill="#fff" d="M0 0h29v31H0z"/></clipPath></defs></svg><svg fill="none" viewBox="0 0 20 20" id="whatsapp" xmlns="http://www.w3.org/2000/svg"><g clip-path="url(#auclip0)" fill="#40B66F"><path d="M11.108 15.063c3.375.803 4.563-2.083 3.968-3.16-.239-.43-2.38-1.257-2.484-1.296-.92-.335-1.26.29-1.898 1.112-1.224-.612-2.045-1.095-2.888-2.467a4.13 4.13 0 01.158-.182c.295-.33.848-.945.471-1.698-.317-.63-.474-1.07-.59-1.393-.336-.934-.592-1.188-1.748-1.188-1.204 0-2.139 1.583-2.139 2.946 0 2.974 3.999 6.574 7.15 7.326zM6.097 6.042c.25 0 .376.008.44.018.135.286.271.882.775 1.81-.079.293-1.191.979-.675 1.866 1.054 1.79 2.109 2.41 3.62 3.162 1.007.455 1.329-.369 1.967-1.093.296.12 1.294.562 1.733.783-.04.864-.873 1.66-2.559 1.259-2.893-.691-6.19-3.946-6.19-6.111 0-.824.578-1.694.889-1.694z"/><path d="M.07 19.238c-.11.395.186.79.602.79.15 0-.095.039 4.873-1.25 2.022 1.03 3.56.998 4.542 1.09 8.796 0 13.104-10.727 7.05-16.969C8.84-5.12-4.082 4.846 1.325 14.672L.069 19.238zm16.072-15.56c.145.263 4.28 3.992 1.977 9.565-1.417 3.433-4.688 5.549-8.353 5.35-2.982-.165-3.754-1.23-4.303-1.084l-3.902 1.016 1.037-3.77a.625.625 0 00-.06-.479C-2.449 5.673 8.825-3.174 16.141 3.678z"/></g><defs><clipPath id="auclip0"><path fill="#fff" d="M0 0h20v20H0z"/></clipPath></defs></svg><svg fill="none" viewBox="0 0 31 31" id="working-1" xmlns="http://www.w3.org/2000/svg"><path d="M30.44 18.732l-.656-.655.495-.566a2.907 2.907 0 00-.273-4.108l-2.884-2.524a2.414 2.414 0 00-.832-.476 2.413 2.413 0 00-2.487.586l-.95.95c-.356.357-.85.561-1.353.561a1.93 1.93 0 01-1.354-.56l-1.085-1.086A1.927 1.927 0 0118.5 9.5c0-.504.204-.997.56-1.354l.95-.949c.655-.655.88-1.608.586-2.487a2.414 2.414 0 00-.475-.831L17.596.994A2.912 2.912 0 0013.49.72l-1.886 1.651A4.69 4.69 0 0010 5.902c0 .37.05.74.136 1.098H1.5C.673 7 0 7.673 0 8.5v17c0 .827.673 1.5 1.5 1.5H15v.5c0 .827.673 1.5 1.5 1.5h.5v.5c0 .827.673 1.5 1.5 1.5H23c.827 0 1.5-.673 1.5-1.5V28a1.001 1.001 0 012 0v1c0 1.103.897 2 2 2s2-.897 2-2v-7.636a1.899 1.899 0 00-.06-2.632zm-.708.707a.915.915 0 01-1.293 1.293l-.605-.605c.277-.2.533-.43.762-.691l.528-.605.608.608zm-3.759-8.087c.181.06.346.155.49.28l2.885 2.524a1.903 1.903 0 01.398 2.383l-5.011-5.011a1.415 1.415 0 011.238-.176zm-9.129-9.7l2.524 2.886a1.422 1.422 0 01.111 1.734L14.46 1.253a1.91 1.91 0 012.384.4zM12.26 3.125l1.417-1.24L18.793 7l-.44.44A2.934 2.934 0 0017.5 9.5c0 .767.311 1.518.854 2.06l1.085 1.086a2.934 2.934 0 002.061.854 2.93 2.93 0 002.06-.854l.44-.439 5.116 5.116-1.273 1.454a3.58 3.58 0 01-4.562.698l-1.125-.688A30.58 30.58 0 0111.475 7.712a3.69 3.69 0 01.786-4.588zM16.8 16H15v-1.802A31.768 31.768 0 0016.799 16zm2.2 2h-4v-1h2.962c.34.282.687.553 1.038.82V18zm-4 5h4v1h-4v-1zm4-1h-4v-1h4v1zm0-2h-4v-1h4v1zM1 25.5v-17a.5.5 0 01.5-.5h9.006c.033.067.06.137.096.202A31.453 31.453 0 0014 13.087V25h6v-6.432c.326.228.665.44 1 .657V25.5a.5.5 0 01-.5.5h-19a.5.5 0 01-.5-.5zm15 2V27h3v.5a.5.5 0 01-.5.5h-2a.5.5 0 01-.5-.5zM28.5 30a1 1 0 01-1-1v-1c0-1.103-.897-2-2-2s-2 .897-2 2v1.5a.5.5 0 01-.5.5h-4.5a.5.5 0 01-.5-.5V29h.5c.827 0 1.5-.673 1.5-1.5V27h.5c.827 0 1.5-.673 1.5-1.5v-5.636l.76.464a4.58 4.58 0 002.388.672c.62 0 1.223-.13 1.78-.365l.804.804a1.902 1.902 0 001.768.513V29a1 1 0 01-1 1z" fill="#313741"/></svg><svg fill="none" viewBox="0 0 30 30" id="working-2" xmlns="http://www.w3.org/2000/svg"><path d="M26 18.811a5.55 5.55 0 002.79-4.809v-1.421a.969.969 0 00.968-.968v-.968a.969.969 0 00-.968-.968h-4.354v-6.29c0-.8-.652-1.452-1.452-1.452h-1.452V.968A.969.969 0 0020.564 0h-.967a.969.969 0 00-.968.968v.967h-.968V.968A.969.969 0 0016.694 0h-.968a.969.969 0 00-.968.968v.967h-.968V.968A.969.969 0 0012.823 0h-.968a.969.969 0 00-.968.968v.967H9.92V.968A.969.969 0 008.952 0h-.968a.969.969 0 00-.968.968v.967h-.968V.968A.969.969 0 005.081 0h-.968a.969.969 0 00-.968.968v.967H1.694c-.8 0-1.452.652-1.452 1.452v17.42c0 .8.651 1.451 1.452 1.451h16.67a5.544 5.544 0 00-1.187 3.417v1.422a.969.969 0 00-.967.967v.968c0 .534.434.968.967.968H28.79a.969.969 0 00.968-.968v-.968a.969.969 0 00-.968-.967v-1.422A5.55 5.55 0 0026 20.866a1.188 1.188 0 01-.597-1.027c0-.424.23-.817.596-1.028zm1.823-4.809c0 .054-.01.107-.011.16a5.7 5.7 0 00-.486.533c-.41.504-.668.789-1.199.789-.53 0-.788-.285-1.198-.79-.415-.51-.931-1.146-1.948-1.146s-1.533.636-1.949 1.147c-.409.504-.666.789-1.197.789-.53 0-.786-.285-1.195-.789a5.567 5.567 0 00-.485-.544c-.002-.05-.01-.098-.01-.149v-1.421h9.678v1.421zm-8.488 7.288H5.082v-.967h15.37a1.175 1.175 0 01-.483.543 5.53 5.53 0 00-.633.424zm1.23-11.613h-1.936V8.71h1.935v.967zm-2.904 0h-.484a.969.969 0 00-.967.968h-.484V8.71h1.935v.967zm-1.935 9.678v-1.936h1.935v1.936h-1.935zM5.08 17.419h.967v1.936H5.08v-1.936zm1.935 0h1.936v1.936H7.016v-1.936zm5.807-2.903h1.935v1.936h-1.935v-1.936zm-.968 1.936H9.919v-1.936h1.936v1.936zm.968-2.904v-1.935h1.935v1.935h-1.935zm-.968 0H9.919v-1.935h1.936v1.935zm-2.903 0H7.016v-1.935h1.936v1.935zm0 .968v1.936H7.016v-1.936h1.936zm.967 2.903h1.936v1.936H9.919v-1.936zm2.904 0h1.935v1.936h-1.935v-1.936zm2.903-.967v-1.936h1.486c.064.681.254 1.334.551 1.936h-2.037zm1.451-2.904h-1.451v-1.935h.484c0 .534.434.968.967.968v.967zm-2.419-2.903h-1.935V8.71h1.935v1.935zm-2.903 0H9.919V8.71h1.936v1.935zm-2.903 0H7.016V8.71h1.936v1.935zm-2.904 0H4.113V8.71h1.935v1.935zm-1.935.968h1.935v1.935H4.113v-1.935zm0 2.903h1.935v1.936H4.113v-1.936zm0 2.903v2.975l-2.38-2.975h2.38zm14.516 1.936v-1.633a5.52 5.52 0 001.34 1.089c.219.125.38.32.481.544H18.63zm10.162-7.742H17.177v-.968H28.79v.968zm-7.259-1.936V7.742H3.145v8.71H1.21V6.774h22.258v2.903h-1.936zM19.597.967h.967l.001 2.904h-.968V.968zm-3.871 0h.968v2.904h-.968V.968zm-3.871 0h.968v2.904h-.968V.968zm-3.871 0h.968v2.904h-.968V.968zm-3.871 0h.968v2.904h-.968V.968zm-2.42 1.936h1.452v.968c0 .534.434.968.968.968h.968a.969.969 0 00.967-.968v-.968h.968v.968c0 .534.434.968.968.968h.968a.969.969 0 00.967-.968v-.968h.968v.968c0 .534.434.968.968.968h.968a.969.969 0 00.967-.968v-.968h.968v.968c0 .534.434.968.968.968h.968a.969.969 0 00.967-.968v-.968h.968v.968c0 .534.434.968.968.968h.967a.969.969 0 00.968-.968v-.968h1.452c.267 0 .484.218.484.484v2.42H1.21v-2.42c0-.266.217-.484.484-.484zM1.21 20.807v-2.491l2.38 2.974H1.694a.484.484 0 01-.484-.483zm27.581 8.225H17.177v-.968H28.79l.001.968zm-9.821-1.935l.924-.792a4.75 4.75 0 016.18 0l.924.792H18.97zm5.466-7.258c0 .77.415 1.486 1.084 1.867a4.582 4.582 0 012.303 3.97v.852l-1.12-.959a5.72 5.72 0 00-7.44 0l-1.118.96v-.853c0-1.636.883-3.157 2.303-3.97a2.156 2.156 0 001.084-1.867c0-.77-.415-1.486-1.084-1.868a4.561 4.561 0 01-1.789-1.887c.304.215.68.368 1.176.368 1.017 0 1.533-.636 1.948-1.147.41-.504.667-.789 1.198-.789.53 0 .788.285 1.197.789.415.51.932 1.147 1.95 1.147a1.97 1.97 0 001.182-.372 4.566 4.566 0 01-1.79 1.89 2.156 2.156 0 00-1.084 1.869z" fill="#313741"/><path d="M22.5 22.258h.968v.968H22.5v-.968zm0-1.935h.968v.967H22.5v-.967zm0-1.936h.968v.968H22.5v-.968zm0-1.936h.968v.968H22.5v-.968z" fill="#313741"/></svg><svg fill="none" viewBox="0 0 30 30" id="working-3" xmlns="http://www.w3.org/2000/svg"><g clip-path="url(#axclip0)"><path d="M25.82 18.87l-.94-1.88c.199-.405.37-.814.51-1.22l1.99-.665V9.657l-1.99-.664a10.58 10.58 0 00-.51-1.221l.94-1.883-3.852-3.852-1.883.941c-.405-.2-.814-.37-1.22-.51L18.2.475h-5.45l-.663 1.991c-.407.14-.816.312-1.221.511l-1.883-.941-3.852 3.852.941 1.883c-.2.405-.37.814-.51 1.22l-1.992.665v5.448l1.991.663c.14.405.309.81.506 1.212l-.612 1.115H2.619v9.524h3.333V26.19h3.613l1.428 1.428h2.578v.476c0 1.05.855 1.905 1.905 1.905s1.905-.854 1.905-1.905v-.476h3.334a1.43 1.43 0 001.428-1.428 1.42 1.42 0 00-.371-.953c.229-.253.371-.585.371-.952a1.42 1.42 0 00-.371-.953c.182-.201.306-.453.35-.734l3.698-3.728zM7.03 16.769a9.528 9.528 0 01-.636-1.519l-.074-.231-1.796-.6v-4.075l1.796-.599.073-.232a9.458 9.458 0 01.635-1.519l.113-.215-.85-1.7 2.881-2.882 1.7.85.216-.112a9.479 9.479 0 011.52-.636l.231-.072.6-1.797h4.075l.599 1.796.232.073a9.456 9.456 0 011.519.635l.215.112 1.7-.85 2.882 2.882-.85 1.7.112.216a9.48 9.48 0 01.636 1.519l.072.232 1.797.6v4.075l-1.796.599-.073.231a9.54 9.54 0 01-.636 1.52l-.112.215.851 1.702-2.813 2.835a1.488 1.488 0 00-.077-.092c.229-.254.371-.586.371-.953 0-.743-.572-1.348-1.297-1.415a8.52 8.52 0 003.202-6.68c0-4.726-3.846-8.571-8.572-8.571-4.726 0-8.571 3.845-8.571 8.571 0 2.6 1.182 5.045 3.188 6.667H6.02l1.127-2.054-.118-.226zm14.16 7.518a.477.477 0 01-.475.476h-3.81a.477.477 0 010-.953h3.81c.262 0 .476.214.476.477zM14.328 12.38h2.299l.755-.755V9.524c.525 0 .952.427.952.952v2.184l-1.625 1.626h-2.463L12.62 12.66v-2.184c0-.525.427-.952.952-.952v2.102l.756.755zm.197 2.857h1.905v1.905h-1.905v-1.905zm2.857-.279l1.905-1.905v-2.578c0-1.05-.855-1.905-1.905-1.905h-.953v2.66l-.197.198h-1.51l-.197-.198V8.57h-.953c-1.05 0-1.904.855-1.904 1.905v2.578l1.904 1.905v2.184h-1.15l-.03.03a5.715 5.715 0 01-2.63-4.792 5.72 5.72 0 015.715-5.714 5.72 5.72 0 015.714 5.714 5.68 5.68 0 01-2.578 4.762h-1.231v-2.184zm4.762-2.578a6.674 6.674 0 00-6.667-6.667A6.674 6.674 0 008.81 12.38c0 2.2 1.095 4.247 2.89 5.485l-.686.686a7.622 7.622 0 01-3.156-6.171c0-4.2 3.418-7.62 7.62-7.62 4.2 0 7.618 3.42 7.618 7.62a7.574 7.574 0 01-2.88 5.964 1.418 1.418 0 00-.474-.847 6.623 6.623 0 002.402-5.117zM20.715 20a.477.477 0 010 .952h-3.81a.477.477 0 010-.952h3.81zm-3.81 2.857a.477.477 0 010-.952h3.81a.477.477 0 010 .952h-3.81zM5 26.667H3.571v-7.62H5v7.62zm6.388 0l-1.429-1.429H5.952V20h4.96l1.904-1.905h5.993a.477.477 0 010 .953H13.85l-2.044 2.044.674.673 1.091-1.092v5.994h-2.183zm4.088 2.38a.953.953 0 01-.952-.952V20h1.04a1.4 1.4 0 00-.088.476c0 .367.143.7.371.953a1.417 1.417 0 00-.37.952c0 .367.142.699.37.952a1.417 1.417 0 00-.37.953c0 .367.142.699.37.952a1.417 1.417 0 00-.37.953c0 .62.399 1.143.951 1.34v.564a.953.953 0 01-.952.953zm5.239-2.38h-3.81a.477.477 0 010-.953h3.81a.477.477 0 010 .953z" fill="#313741"/></g><defs><clipPath id="axclip0"><path fill="#fff" d="M0 0h30v30H0z"/></clipPath></defs></svg><svg fill="none" viewBox="0 0 30 30" id="working-4" xmlns="http://www.w3.org/2000/svg"><path d="M8.906 10.781A3.285 3.285 0 0012.187 7.5a3.285 3.285 0 00-3.28-3.281A3.285 3.285 0 005.624 7.5a3.285 3.285 0 003.281 3.281zm0-5.625A2.346 2.346 0 0111.25 7.5a2.346 2.346 0 01-2.344 2.344A2.346 2.346 0 016.562 7.5a2.346 2.346 0 012.344-2.344z" fill="#313741"/><path d="M29.166 8.438c.225-.25.365-.577.365-.938 0-.775-.63-1.406-1.406-1.406h-2.344a.47.47 0 01-.468-.469V2.926c0-.803-.313-1.558-.881-2.126a1.133 1.133 0 00-1.932.8v1.681a4.777 4.777 0 01-2.131 3.983 1.401 1.401 0 01-.78.236h-.37v-.938H15v-.834l-1.133-.283.601-1-2.506-2.507-1 .6-.283-1.132H7.134L6.85 2.54l-1-.6-2.507 2.505.6 1-1.131.284v2.04a8.374 8.374 0 00-2.344 5.826v.4c0 1.67.49 3.289 1.417 4.68l3.27 4.905v2.202a3.754 3.754 0 003.75 3.75 3.754 3.754 0 003.75-3.75V23.58l3.27-4.906A8.407 8.407 0 0017.28 15h1.94v-.938h.358l.442.222c.191.095.397.16.606.2v10.002l2.183 4.366c.21.42.63.68 1.098.68.468 0 .889-.26 1.098-.679l2.183-4.367V14.53h.938c.775 0 1.406-.63 1.406-1.406 0-.361-.14-.688-.365-.938.225-.249.365-.576.365-.937 0-.361-.14-.688-.365-.938.225-.249.365-.576.365-.937 0-.361-.14-.688-.365-.938zM3.75 6.46l1.147-.287.235-.572-.607-1.011 1.47-1.471 1.012.607.573-.235.286-1.147h2.08l.287 1.146.573.236 1.011-.608 1.471 1.471-.607 1.012.235.572 1.146.287v2.08l-1.146.287-.236.571.608 1.013-1.471 1.47-1.012-.607-.573.236-.286 1.146h-2.08L7.58 11.51l-.573-.236-1.012.608-1.47-1.471.607-1.013-.234-.571L3.75 8.54V6.46zm2.344 17.446h5.625v.938H6.094v-.938zm.937-7.5h-.937a.938.938 0 010-1.875c.517 0 .937.42.937.938v.937zm2.813 6.563H7.969v-5.625h1.875v5.625zm-.938 5.625a2.815 2.815 0 01-2.812-2.813h5.625a2.815 2.815 0 01-2.813 2.813zm7.5-14.6a7.477 7.477 0 01-1.26 4.16l-3.21 4.815h-1.155v-5.625h.938a1.877 1.877 0 001.875-1.875 1.877 1.877 0 00-1.875-1.875c-1.034 0-1.875.84-1.875 1.875v.937H7.969v-.937c0-1.034-.841-1.875-1.875-1.875s-1.875.84-1.875 1.875c0 1.034.84 1.875 1.875 1.875h.937v5.625H5.876l-3.21-4.815a7.48 7.48 0 01-1.26-4.16v-.4c0-1.589.498-3.097 1.407-4.361v.04l1.132.282-.6 1 2.506 2.507 1-.6.283 1.132h3.545l.282-1.133 1 .6 2.507-2.506-.6-1L15 9.272v-.04a7.44 7.44 0 011.406 4.361v.4zm-5.625 2.412v-.937a.939.939 0 011.875 0c0 .517-.42.937-.937.937h-.938zm7.5-2.343h-.94c0-.024.003-.046.003-.07v-.4c0-2.19-.835-4.248-2.344-5.825V7.5h3.281v6.563zm3.282 9.843v-9.375h1.875v9.375h-1.875zm2.603 4.527c-.1.198-.42.198-.518 0l-1.796-3.59h4.108l-1.794 3.59zm2.084-4.527h-1.875v-9.375h1.875v9.375zm1.875-10.312h-7.058c-.216 0-.434-.051-.629-.149l-.64-.32h-.58V8.437h.37c.465 0 .914-.136 1.3-.393a5.712 5.712 0 002.55-4.763v-1.68c0-.16.22-.25.33-.138.392.39.607.91.607 1.463v2.699c0 .775.63 1.406 1.406 1.406h2.344a.47.47 0 010 .938h-1.406v.937h1.406a.47.47 0 010 .938h-1.406v.937h1.406a.47.47 0 010 .938h-1.406v.937h1.406a.47.47 0 010 .938z" fill="#313741"/></svg><svg fill="none" viewBox="0 0 86 16" id="working-arrow" xmlns="http://www.w3.org/2000/svg"><path d="M85.354 8.354a.5.5 0 000-.708l-3.182-3.182a.5.5 0 10-.707.708L84.293 8l-2.829 2.828a.5.5 0 10.708.708l3.182-3.182zM0 8.5h1.932v-1H0v1zm5.795 0H9.66v-1H5.795v1zm7.728 0h3.863v-1h-3.863v1zm7.727 0h3.864v-1H21.25v1zm7.727 0h3.864v-1h-3.864v1zm7.728 0h3.863v-1h-3.863v1zm7.727 0h3.863v-1h-3.863v1zm7.727 0h3.864v-1h-3.864v1zm7.727 0h3.864v-1h-3.864v1zm7.728 0h3.863v-1h-3.863v1zm7.727 0h3.864v-1H75.34v1zm7.727 0H85v-1h-1.932v1zm2.64.207a1 1 0 000-1.414L79.342.929a1 1 0 10-1.414 1.414L83.586 8l-5.657 5.657a1 1 0 001.414 1.414l6.364-6.364zM0 9h1.932V7H0v2zm5.795 0H9.66V7H5.795v2zm7.728 0h3.863V7h-3.863v2zm7.727 0h3.864V7H21.25v2zm7.727 0h3.864V7h-3.864v2zm7.728 0h3.863V7h-3.863v2zm7.727 0h3.863V7h-3.863v2zm7.727 0h3.864V7h-3.864v2zm7.727 0h3.864V7h-3.864v2zm7.728 0h3.863V7h-3.863v2zm7.727 0h3.864V7H75.34v2zm7.727 0H85V7h-1.932v2z" fill="#6F7784"/></svg><svg fill="none" viewBox="0 0 30 31" id="youtube" xmlns="http://www.w3.org/2000/svg"><g clip-path="url(#baclip0)" fill="#E72121"><path d="M12.424 10.147c-.621-.383-1.418.08-1.418.832v9.042c0 .755.798 1.213 1.418.833l7.336-4.514c.61-.376.609-1.288.001-1.665l-7.337-4.528zm.457 8.17v-5.632l4.57 2.82-4.57 2.812z"/><path d="M24.88 4.225c-5.816-.892-13.941-.892-19.76 0C2.792 4.582.959 6.47.559 8.922c-.745 4.55-.745 8.607 0 13.156.4 2.453 2.234 4.34 4.561 4.697 2.915.447 6.405.67 9.894.67 3.482 0 6.963-.222 9.867-.669 2.325-.356 4.158-2.243 4.56-4.696.745-4.55.745-8.61 0-13.16-.4-2.45-2.233-4.338-4.561-4.695zm2.713 17.532c-.267 1.622-1.467 2.87-2.988 3.102-5.648.867-13.548.867-19.21 0-1.522-.235-2.724-1.481-2.989-3.103-.717-4.384-.717-8.126 0-12.513.266-1.622 1.466-2.867 2.99-3.102 2.828-.433 6.217-.65 9.603-.65 3.388 0 6.777.217 9.605.65 1.522.233 2.724 1.48 2.989 3.102.717 4.387.717 8.129 0 12.514z"/></g><defs><clipPath id="baclip0"><path fill="#fff" d="M0 0h30v31H0z"/></clipPath></defs></svg></svg>